<svg width="32" height="32" viewBox="0 0 32 32" fill="none" xmlns="http://www.w3.org/2000/svg">
<path opacity="0.4" d="M27.334 13.586H23.4806C20.3207 13.586 17.7473 11.0127 17.7473 7.85268V3.99935C17.7473 3.26602 17.1473 2.66602 16.414 2.66602H10.7607C6.65398 2.66602 3.33398 5.33268 3.33398 10.0927V21.906C3.33398 26.666 6.65398 29.3327 10.7607 29.3327H21.2407C25.3473 29.3327 28.6673 26.666 28.6673 21.906V14.9193C28.6673 14.186 28.0673 13.586 27.334 13.586Z" fill="#4B7E73"/>
<path d="M21.0676 2.94731C20.5209 2.40064 19.5742 2.77398 19.5742 3.53398V8.18731C19.5742 10.134 21.2276 11.7473 23.2409 11.7473C24.5076 11.7606 26.2676 11.7606 27.7742 11.7606C28.5342 11.7606 28.9342 10.8673 28.4009 10.334C26.4809 8.40064 23.0409 4.92064 21.0676 2.94731Z" fill="#4B7E73"/>
<path d="M18 18.334H10C9.45333 18.334 9 17.8807 9 17.334C9 16.7873 9.45333 16.334 10 16.334H18C18.5467 16.334 19 16.7873 19 17.334C19 17.8807 18.5467 18.334 18 18.334Z" fill="#4B7E73"/>
<path d="M15.3333 23.666H10C9.45333 23.666 9 23.2127 9 22.666C9 22.1193 9.45333 21.666 10 21.666H15.3333C15.88 21.666 16.3333 22.1193 16.3333 22.666C16.3333 23.2127 15.88 23.666 15.3333 23.666Z" fill="#4B7E73"/>
</svg>
