<svg width="24" height="24" viewBox="0 0 24 24" fill="none" xmlns="http://www.w3.org/2000/svg">
<path d="M20.5 16.75H18.25V14.5C18.25 14.09 17.91 13.75 17.5 13.75C17.09 13.75 16.75 14.09 16.75 14.5V16.75H14.5C14.09 16.75 13.75 17.09 13.75 17.5C13.75 17.91 14.09 18.25 14.5 18.25H16.75V20.5C16.75 20.91 17.09 21.25 17.5 21.25C17.91 21.25 18.25 20.91 18.25 20.5V18.25H20.5C20.91 18.25 21.25 17.91 21.25 17.5C21.25 17.09 20.91 16.75 20.5 16.75Z" fill="#A93439"/>
<path opacity="0.4" d="M19.7731 9.99001V9.99H19.77H15.73C14.9723 9.99 14.5694 9.85211 14.3501 9.65808C14.1466 9.47796 14 9.15669 14 8.51V3.98C14 3.33935 14.1461 3.01693 14.3509 2.83503C14.5707 2.63973 14.974 2.5 15.73 2.5H19.77C20.526 2.5 20.9293 2.63973 21.1491 2.83503C21.3539 3.01693 21.5 3.33935 21.5 3.98V8.52C21.5 9.16102 21.3537 9.48268 21.1499 9.66308C20.9312 9.85664 20.5288 9.99476 19.7731 9.99001Z" fill="#A93439" stroke="#A93439"/>
<path d="M8.27315 9.99001V9.99H8.27H4.23C3.47225 9.99 3.06936 9.85211 2.85012 9.65808C2.64661 9.47796 2.5 9.15669 2.5 8.51V3.98C2.5 3.33935 2.64613 3.01693 2.85085 2.83503C3.07065 2.63973 3.47403 2.5 4.23 2.5H8.27C9.02597 2.5 9.42935 2.63973 9.64915 2.83503C9.85387 3.01693 10 3.33935 10 3.98V8.52C10 9.16102 9.85371 9.48268 9.64988 9.66308C9.43116 9.85664 9.02884 9.99476 8.27315 9.99001Z" fill="#A93439" stroke="#A93439"/>
<path opacity="0.4" d="M10 15.73V19.77C10 20.5149 9.84713 20.9083 9.6277 21.1277C9.40827 21.3471 9.01492 21.5 8.27 21.5H4.23C3.48508 21.5 3.09173 21.3471 2.8723 21.1277C2.65287 20.9083 2.5 20.5149 2.5 19.77V15.73C2.5 14.9851 2.65287 14.5917 2.8723 14.3723C3.09173 14.1529 3.48508 14 4.23 14H8.27C9.01492 14 9.40827 14.1529 9.6277 14.3723C9.84713 14.5917 10 14.9851 10 15.73Z" fill="#A93439" stroke="#A93439"/>
</svg>
