<svg width="32" height="32" viewBox="0 0 32 32" fill="none" xmlns="http://www.w3.org/2000/svg">
<path opacity="0.4" d="M29.3327 10.4127V18.5327L27.1594 16.666C26.1194 15.7727 24.4393 15.7727 23.3993 16.666L17.8527 21.426C16.8127 22.3193 15.1327 22.3193 14.0927 21.426L13.6393 21.0527C12.6927 20.226 11.186 20.146 10.1193 20.866L3.55935 25.266L3.41268 25.3727C2.91935 24.306 2.66602 23.0394 2.66602 21.586V10.4127C2.66602 5.55935 5.55935 2.66602 10.4127 2.66602H21.586C26.4394 2.66602 29.3327 5.55935 29.3327 10.4127Z" fill="#B1484C"/>
<path d="M11.9995 13.8408C13.7521 13.8408 15.1728 12.4201 15.1728 10.6675C15.1728 8.91489 13.7521 7.49414 11.9995 7.49414C10.2469 7.49414 8.82617 8.91489 8.82617 10.6675C8.82617 12.4201 10.2469 13.8408 11.9995 13.8408Z" fill="#B1484C"/>
<path d="M29.3341 18.5328V21.5861C29.3341 26.4394 26.4407 29.3328 21.5874 29.3328H10.4141C7.01406 29.3328 4.56073 27.9061 3.41406 25.3728L3.56073 25.2661L10.1207 20.8661C11.1874 20.1461 12.6941 20.2261 13.6407 21.0528L14.0941 21.4261C15.1341 22.3194 16.8141 22.3194 17.8541 21.4261L23.4007 16.6661C24.4407 15.7728 26.1207 15.7728 27.1607 16.6661L29.3341 18.5328Z" fill="#B1484C"/>
</svg>
