<svg width="24" height="29" viewBox="0 0 24 29" fill="none" xmlns="http://www.w3.org/2000/svg">
<path opacity="0.4" d="M18.9117 19.748L18.913 19.7502C19.2233 20.2594 19.2776 20.8584 19.0721 21.4037C18.8638 21.9566 18.4356 22.3737 17.8839 22.555L17.8839 22.555L17.8812 22.5559C15.9942 23.1881 14.008 23.5 12.02 23.5C10.032 23.5 8.04662 23.1881 6.16104 22.5466L6.16003 22.5463C5.54298 22.3378 5.10191 21.9172 4.92071 21.4114L4.92073 21.4114L4.91929 21.4075C4.72725 20.8851 4.78762 20.3026 5.11862 19.7475C5.11885 19.7471 5.11908 19.7467 5.11931 19.7463L6.12784 18.0788L6.12789 18.0788L6.13189 18.0719C6.26756 17.8394 6.38153 17.5281 6.46123 17.2349C6.54084 16.9422 6.6 16.6169 6.6 16.35V13.82C6.6 10.8356 9.02669 8.4 12.02 8.4C15.0133 8.4 17.44 10.8356 17.44 13.82V16.35C17.44 16.6169 17.4992 16.9421 17.5786 17.2356C17.6584 17.5303 17.7717 17.8417 17.9052 18.0768L17.905 18.0769L17.9117 18.088L18.9117 19.748Z" fill="#91A5C4" stroke="#91A5C4"/>
<mask id="path-2-inside-1_1_20" fill="white">
<path d="M14.25 8.32C13.56 8.05 12.81 7.9 12.02 7.9C11.24 7.9 10.49 8.04 9.8 8.32C10.23 7.51 11.08 7 12.02 7C12.97 7 13.81 7.51 14.25 8.32Z"/>
</mask>
<path d="M14.25 8.32C13.56 8.05 12.81 7.9 12.02 7.9C11.24 7.9 10.49 8.04 9.8 8.32C10.23 7.51 11.08 7 12.02 7C12.97 7 13.81 7.51 14.25 8.32Z" fill="#91A5C4"/>
<path d="M14.25 8.32L13.8856 9.25124L16.436 10.2492L15.1287 7.84267L14.25 8.32ZM9.8 8.32L8.91674 7.85111L7.62675 10.2811L10.176 9.24661L9.8 8.32ZM14.6144 7.38876C13.8115 7.07456 12.9381 6.9 12.02 6.9V8.9C12.6819 8.9 13.3085 9.02544 13.8856 9.25124L14.6144 7.38876ZM12.02 6.9C11.1199 6.9 10.2413 7.06171 9.42398 7.39339L10.176 9.24661C10.7387 9.01829 11.3601 8.9 12.02 8.9V6.9ZM10.6833 8.78889C10.937 8.31096 11.444 8 12.02 8V6C10.716 6 9.52303 6.70904 8.91674 7.85111L10.6833 8.78889ZM12.02 8C12.602 8 13.1055 8.30814 13.3713 8.79733L15.1287 7.84267C14.5145 6.71186 13.338 6 12.02 6V8Z" fill="#91A5C4" mask="url(#path-2-inside-1_1_20)"/>
<path d="M10.0956 25.6143C10.146 25.6193 10.1966 25.6239 10.2474 25.6282C10.8289 25.6792 11.4233 25.71 12.02 25.71C12.6073 25.71 13.1924 25.6791 13.7645 25.628L13.7645 25.628L13.7674 25.6277C13.8104 25.6237 13.858 25.6197 13.9086 25.6156C13.4474 26.1572 12.7621 26.5 12 26.5C11.3411 26.5 10.6924 26.2319 10.2398 25.7628L10.2311 25.7538L10.222 25.7452C10.1782 25.7042 10.136 25.6604 10.0956 25.6143Z" fill="#91A5C4" stroke="#91A5C4"/>
<rect x="20" y="0.5" width="4" height="4" rx="2" fill="#D92D20"/>
</svg>
