<svg width="24" height="24" viewBox="0 0 24 24" fill="none" xmlns="http://www.w3.org/2000/svg">
<g clip-path="url(#clip0_0_4605)">
<path d="M7.06972 15.4401C7.06972 15.0416 6.79315 14.8039 6.30518 14.8039C6.10592 14.8039 5.97098 14.8235 5.90039 14.8423V16.1211C5.98397 16.14 6.08671 16.1462 6.22833 16.1462C6.74845 16.1462 7.06972 15.8835 7.06972 15.4401Z" fill="#4F4F4F"/>
<path d="M10.0917 14.8176C9.87319 14.8176 9.73197 14.8365 9.64844 14.8561V17.6882C9.73201 17.7078 9.86696 17.7078 9.98897 17.7078C10.8755 17.7141 11.4536 17.2261 11.4536 16.1922C11.4599 15.293 10.9331 14.8176 10.0917 14.8176Z" fill="#4F4F4F"/>
<path d="M15.703 -0.000732422H6.06363C4.65541 -0.000732422 3.50927 1.1462 3.50927 2.55363V11.9992H3.25978C2.69141 11.9992 2.23047 12.4597 2.23047 13.0286V19.2709C2.23047 19.8398 2.69136 20.3002 3.25978 20.3002H3.50927V21.4449C3.50927 22.8538 4.65541 23.9992 6.06363 23.9992H19.2161C20.6235 23.9992 21.7698 22.8538 21.7698 21.4449V6.04476L15.703 -0.000732422ZM4.93078 14.1551C5.23243 14.1041 5.65644 14.0657 6.25383 14.0657C6.85754 14.0657 7.28782 14.1809 7.57693 14.4124C7.8531 14.6305 8.03947 14.9906 8.03947 15.4143C8.03947 15.8379 7.89825 16.198 7.6413 16.442C7.30709 16.7566 6.81284 16.8978 6.23467 16.8978C6.10599 16.8978 5.99065 16.8915 5.90046 16.879V18.4269H4.93078V14.1551ZM19.2161 22.4349H6.06363C5.51836 22.4349 5.07434 21.9909 5.07434 21.4449V20.3002H17.3352C17.9036 20.3002 18.3645 19.8398 18.3645 19.2709V13.0286C18.3645 12.4597 17.9036 11.9992 17.3352 11.9992H5.07434V2.55363C5.07434 2.00916 5.51841 1.56514 6.06363 1.56514L15.1178 1.55568V4.90241C15.1178 5.87995 15.9109 6.67386 16.8892 6.67386L20.1677 6.66445L20.2046 21.4448C20.2046 21.9909 19.7614 22.4349 19.2161 22.4349ZM8.66473 18.4072V14.1551C9.02438 14.0979 9.49314 14.0657 9.98783 14.0657C10.81 14.0657 11.3431 14.2132 11.7608 14.5277C12.2104 14.862 12.4928 15.3947 12.4928 16.1595C12.4928 16.988 12.1911 17.5599 11.7733 17.9129C11.3175 18.2918 10.6236 18.4715 9.77598 18.4715C9.26834 18.4715 8.90869 18.4394 8.66473 18.4072ZM15.6748 15.8897V16.686H14.1203V18.4269H13.1376V14.0979H15.7838V14.9004H14.1203V15.8897H15.6748Z" fill="#4F4F4F"/>
</g>
<defs>
<clipPath id="clip0_0_4605">
<rect width="24" height="24" fill="white" transform="translate(0 -0.000732422)"/>
</clipPath>
</defs>
</svg>
