<svg width="32" height="32" viewBox="0 0 32 32" fill="none" xmlns="http://www.w3.org/2000/svg">
<path opacity="0.4" d="M21.586 2.66602H10.4127C5.55935 2.66602 2.66602 5.55935 2.66602 10.4127V21.5727C2.66602 26.4394 5.55935 29.3327 10.4127 29.3327H21.5727C26.426 29.3327 29.3193 26.4394 29.3193 21.586V10.4127C29.3327 5.55935 26.4394 2.66602 21.586 2.66602Z" fill="#D08763"/>
<path d="M12.1328 16V14.0267C12.1328 11.48 13.9328 10.4533 16.1328 11.72L17.8395 12.7067L19.5461 13.6933C21.7461 14.96 21.7461 17.04 19.5461 18.3067L17.8395 19.2933L16.1328 20.28C13.9328 21.5467 12.1328 20.5067 12.1328 17.9733V16Z" fill="#D08763"/>
</svg>
