<svg width="32" height="32" viewBox="0 0 32 32" fill="none" xmlns="http://www.w3.org/2000/svg">
<path opacity="0.4" d="M21.5863 2.66602H10.4264C5.57302 2.66602 2.67969 5.55935 2.67969 10.4127V21.5727C2.67969 26.426 5.57302 29.3193 10.4264 29.3193H21.5863C26.4397 29.3193 29.333 26.426 29.333 21.5727V10.4127C29.333 5.55935 26.4397 2.66602 21.5863 2.66602Z" fill="#35527F"/>
<path d="M8 19.8548C7.45333 19.8548 7 19.4014 7 18.8548V13.1348C7 12.5881 7.45333 12.1348 8 12.1348C8.54667 12.1348 9 12.5881 9 13.1348V18.8548C9 19.4148 8.54667 19.8548 8 19.8548Z" fill="#35527F"/>
<path d="M12 21.7603C11.4533 21.7603 11 21.3069 11 20.7603V11.2402C11 10.6936 11.4533 10.2402 12 10.2402C12.5467 10.2402 13 10.6936 13 11.2402V20.7603C13 21.3203 12.5467 21.7603 12 21.7603Z" fill="#35527F"/>
<path d="M16 23.6673C15.4533 23.6673 15 23.214 15 22.6673V9.33398C15 8.78732 15.4533 8.33398 16 8.33398C16.5467 8.33398 17 8.78732 17 9.33398V22.6673C17 23.214 16.5467 23.6673 16 23.6673Z" fill="#35527F"/>
<path d="M20 21.7603C19.4533 21.7603 19 21.3069 19 20.7603V11.2402C19 10.6936 19.4533 10.2402 20 10.2402C20.5467 10.2402 21 10.6936 21 11.2402V20.7603C21 21.3203 20.5467 21.7603 20 21.7603Z" fill="#35527F"/>
<path d="M24 19.8548C23.4533 19.8548 23 19.4014 23 18.8548V13.1348C23 12.5881 23.4533 12.1348 24 12.1348C24.5467 12.1348 25 12.5881 25 13.1348V18.8548C25 19.4148 24.5467 19.8548 24 19.8548Z" fill="#35527F"/>
</svg>
