<svg width="41" height="41" viewBox="0 0 41 41" fill="none" xmlns="http://www.w3.org/2000/svg">
<g id="Camada_1" clip-path="url(#clip0_1_2318)">
<path id="Vector" d="M40.0144 1.29153C39.8818 2.14259 39.7902 3.0033 39.6118 3.84472C39.2333 5.63364 38.3991 7.19111 37.1092 8.49543C36.0147 9.60205 34.7248 9.95887 33.2349 9.49356C32.9648 9.40918 32.8467 9.5249 32.6924 9.6792C26.4312 15.9428 20.1699 22.2041 13.9087 28.4677C13.212 29.1644 12.5176 29.866 11.8377 30.5507C11.0831 29.7841 10.3405 29.0318 9.54492 28.2266C9.61966 28.1687 9.75708 28.0819 9.8704 27.971C16.7657 21.0781 23.6586 14.1828 30.5539 7.29237C30.7275 7.11878 30.8553 6.9693 30.807 6.67758C30.4984 4.84044 31.4001 3.19618 33.177 2.5404C34.2065 2.16188 35.3034 1.95454 36.3763 1.69657C37.3744 1.45789 38.3822 1.24331 39.2598 0.676741C39.5081 0.517618 39.7106 0.288579 39.9349 0.0908813C39.9614 0.331976 39.9951 0.570659 40.012 0.811753C40.0241 0.970876 40.012 1.13241 40.012 1.29153H40.0144Z" fill="#4B586E"/>
<path id="Vector_2" d="M22.4027 9.86013C22.4027 11.5382 21.0212 12.9076 19.3384 12.8979C17.6772 12.8883 16.3199 11.5165 16.3223 9.8529C16.3223 8.17247 17.7037 6.80547 19.3866 6.81752C21.0477 6.82717 22.4051 8.19658 22.4027 9.86254V9.86013Z" fill="#4B586E"/>
<path id="Vector_3" d="M11.4083 10.4913C12.9633 10.4865 14.217 11.7233 14.2291 13.2687C14.2411 14.8021 12.9778 16.0799 11.442 16.0895C9.90144 16.0991 8.63811 14.8454 8.63087 13.3024C8.62605 11.745 9.85804 10.4961 11.4083 10.4913Z" fill="#4B586E"/>
<path id="Vector_4" d="M8.09483 23.7859C6.63862 23.7955 5.44038 22.6093 5.43556 21.1555C5.43074 19.6993 6.61933 18.5059 8.07554 18.5059C9.51488 18.5059 10.7035 19.6801 10.7155 21.117C10.7276 22.5756 9.54863 23.7787 8.09483 23.7859Z" fill="#4B586E"/>
<path id="Vector_5" d="M26.689 3.26554C16.3919 -2.8028 4.76387 5.8115 2.28784 12.0245C-0.593242 19.2525 -1.20803 35.8928 15.9796 39.1476C19.1644 39.7504 22.8942 39.0705 23.7452 37.5805C26.6384 32.5175 19.1644 30.5888 23.5041 25.5258C24.5529 24.3034 26.3973 23.3559 28.326 23.1148C32.6392 22.5748 34.5945 24.5614 37.4876 22.8737C39.995 21.4103 38.3266 16.5667 37.7287 15.1587C37.4032 14.392 37.0054 13.23 36.7643 12.5067" stroke="#4B586E" stroke-width="2" stroke-linecap="round" stroke-linejoin="round"/>
</g>
<defs>
<clipPath id="clip0_1_2318">
<rect width="40.0193" height="40" fill="white" transform="translate(0 0.0908813)"/>
</clipPath>
</defs>
</svg>
