<svg width="32" height="42" viewBox="0 0 32 42" fill="none" xmlns="http://www.w3.org/2000/svg">
<g clip-path="url(#clip0_1_2297)">
<path d="M1 10.5006C1.18047 10.017 1.54531 9.86858 2.03984 9.87014C4.47422 9.88108 6.90859 9.87483 9.34297 9.87561C10.1055 9.87561 10.3742 10.1467 10.3742 10.9147C10.375 15.7967 10.3688 20.6787 10.3773 25.5608C10.382 28.2287 12.0703 30.3694 14.625 30.9803C17.9016 31.7647 21.1883 29.2897 21.2945 25.9116C21.3516 24.0905 21.3109 22.267 21.3117 20.4444C21.3133 17.2811 21.3117 14.117 21.3117 10.9537C21.3117 10.1311 21.5648 9.87561 22.3828 9.87561C24.8039 9.87561 27.2258 9.88186 29.6469 9.87014C30.1414 9.8678 30.5055 10.0162 30.6867 10.5006V26.4381C30.6344 26.8608 30.5867 27.2834 30.5289 27.7053C30.1453 30.4936 29.0523 32.9826 27.2469 35.1287C24.8648 37.9608 21.8367 39.7092 18.1648 40.2959C17.6539 40.378 17.1383 40.4326 16.6242 40.5006H15.0617C14.6383 40.4483 14.2133 40.4006 13.7906 40.342C11.0023 39.9576 8.51406 38.8639 6.36797 37.0576C3.53672 34.6748 1.78984 31.6467 1.20312 27.9741C1.12188 27.4647 1.06719 26.9506 1 26.4381C1 21.1256 1 15.8131 1 10.5006ZM2.5625 18.6451C2.5625 18.8139 2.5625 18.9545 2.5625 19.0951C2.5625 21.1264 2.54766 23.1576 2.56953 25.1881C2.57812 25.9928 2.60938 26.8053 2.72969 27.599C3.32109 31.4764 5.27266 34.528 8.51328 36.7061C11.3125 38.5881 14.4273 39.2615 17.775 38.7795C20.6945 38.3592 23.2031 37.0834 25.2641 34.992C27.8508 32.3662 29.1117 29.1701 29.1234 25.485C29.1305 23.3365 29.125 21.1889 29.125 19.0405V18.6506H22.875C22.875 18.8287 22.875 18.9834 22.875 19.1373C22.8719 21.4155 22.9203 23.6951 22.8531 25.9717C22.7469 29.5553 19.7945 32.5022 16.225 32.6756C12.157 32.8733 8.84531 29.7209 8.81563 25.6053C8.8 23.4311 8.8125 21.2569 8.8125 19.0826C8.8125 18.9428 8.8125 18.8037 8.8125 18.6451H2.5625ZM8.78516 17.0459V11.4694H2.58359V17.0459H8.78516ZM29.107 11.4655H22.9055V17.0436H29.107V11.4655Z" fill="#4B586E" stroke="#4B586E" stroke-width="0.3"/>
<path d="M5.0633 0.5C5.70158 0.821094 5.82502 1.18047 5.51096 1.82266C5.23205 2.39375 4.94846 2.96328 4.66799 3.53437C4.6633 3.54375 4.67033 3.55938 4.67814 3.625C5.20861 3.625 5.74611 3.62266 6.28439 3.625C7.12424 3.62969 7.45783 4.16484 7.08518 4.92031C6.61955 5.86406 6.14924 6.80469 5.67346 7.74297C5.45627 8.17188 5.13518 8.36172 4.78361 8.29297C4.24221 8.1875 3.99455 7.66563 4.24768 7.11406C4.48596 6.59531 4.75314 6.08906 5.00627 5.57734C5.06252 5.46406 5.1133 5.34844 5.1883 5.18672C4.58283 5.18672 4.02736 5.19141 3.47189 5.18594C2.71018 5.17812 2.36955 4.63438 2.70549 3.94687C3.17268 2.98984 3.64221 2.03359 4.13908 1.09219C4.26018 0.864844 4.49221 0.696094 4.67268 0.5C4.80314 0.5 4.93283 0.5 5.0633 0.5Z" fill="#4B586E"/>
<path d="M26.9375 0.500244C27.5758 0.821338 27.7 1.18149 27.3852 1.8229C27.1 2.40337 26.8078 2.98071 26.4852 3.62524C27.082 3.62524 27.6203 3.6229 28.1578 3.62524C28.9977 3.62993 29.3313 4.16509 28.9586 4.92056C28.493 5.86431 28.0227 6.80493 27.5477 7.74321C27.3313 8.17056 27.0078 8.36196 26.6578 8.29321C26.1164 8.18774 25.8688 7.66587 26.1227 7.11431C26.3617 6.59556 26.6281 6.08931 26.8813 5.57759C26.9375 5.46431 26.9883 5.34868 27.0633 5.18696C26.4578 5.18696 25.9024 5.19165 25.3469 5.18618C24.5852 5.17837 24.2445 4.63462 24.5805 3.94712C25.0477 2.99009 25.5172 2.03384 26.0141 1.09243C26.1344 0.865088 26.3664 0.696338 26.5469 0.500244C26.6773 0.500244 26.807 0.500244 26.9375 0.500244Z" fill="#4B586E"/>
<path d="M5.34183 27.9894C5.72855 27.9839 5.95511 28.194 6.14964 28.6534C6.46292 29.3933 6.75433 30.148 7.14183 30.8487C7.72542 31.905 8.53011 32.7925 9.47386 33.5495C9.56527 33.623 9.65589 33.698 9.73792 33.7808C10.0629 34.1105 10.0973 34.5534 9.82699 34.8683C9.55511 35.1839 9.09808 35.2448 8.73949 34.9558C8.27464 34.5808 7.81761 34.1894 7.40355 33.7605C6.12074 32.4284 5.19808 30.8761 4.65199 29.105C4.46214 28.4894 4.76761 27.998 5.34183 27.9901V27.9894Z" fill="#4B586E"/>
<path d="M4.89655 24.881C5.30358 24.8739 5.67389 25.2349 5.68092 25.6466C5.68795 26.0544 5.32623 26.4255 4.91608 26.431C4.50748 26.4364 4.13717 26.0755 4.13092 25.6661C4.12545 25.2583 4.48561 24.888 4.89576 24.881H4.89655Z" fill="#4B586E"/>
</g>
<defs>
<clipPath id="clip0_1_2297">
<rect width="31" height="41" fill="white" transform="translate(0.5 0.5)"/>
</clipPath>
</defs>
</svg>
