<svg width="15" height="15" viewBox="0 0 15 15" fill="none" xmlns="http://www.w3.org/2000/svg">
<g clip-path="url(#clip0_15_3296)">
<rect x="0.918945" y="0.589661" width="13.86" height="13.86" rx="3.08" fill="white"/>
<path d="M13.0464 4.04311C11.1233 3.85254 9.18867 3.75436 7.25982 3.75436C6.11637 3.75436 4.97292 3.81211 3.82947 3.92761L2.65137 4.04311" stroke="#4B586E" stroke-width="1.155" stroke-linecap="round" stroke-linejoin="round"/>
<path d="M5.82764 3.45983L5.95469 2.70331C6.04709 2.15468 6.11639 1.74466 7.09236 1.74466H8.60541C9.58139 1.74466 9.65646 2.17778 9.74309 2.70908L9.87014 3.45983" stroke="#4B586E" stroke-width="1.155" stroke-linecap="round" stroke-linejoin="round"/>
<path d="M11.8048 5.86801L11.4294 11.6834C11.3659 12.5901 11.3139 13.2947 9.70272 13.2947H5.99517C4.38394 13.2947 4.33197 12.5901 4.26844 11.6834L3.89307 5.86801" stroke="#4B586E" stroke-width="1.155" stroke-linecap="round" stroke-linejoin="round"/>
<path d="M6.88477 10.1184H8.80784" stroke="#4B586E" stroke-width="1.155" stroke-linecap="round" stroke-linejoin="round"/>
<path d="M6.40527 7.80841H9.29277" stroke="#4B586E" stroke-width="1.155" stroke-linecap="round" stroke-linejoin="round"/>
</g>
<defs>
<clipPath id="clip0_15_3296">
<rect x="0.918945" y="0.589661" width="13.86" height="13.86" rx="3.08" fill="white"/>
</clipPath>
</defs>
</svg>
