<svg width="40" height="41" viewBox="0 0 40 41" fill="none" xmlns="http://www.w3.org/2000/svg">
<g id="Modo_de_isolamento" clip-path="url(#clip0_1_2337)">
<path id="Vector" d="M28.5193 40.0906C27.6239 39.8849 26.7019 39.7515 25.8369 39.4543C21.3256 37.8997 18.3536 33.1674 18.8832 28.4617C19.4471 23.4818 22.9335 19.8468 27.9478 19.0123C28.024 19.0009 28.0964 18.9895 28.1879 18.9742V8.91897C28.0812 9.01042 27.9935 9.07519 27.9173 9.14759C27.1515 9.90964 26.3894 10.6755 25.6236 11.4376C25.0596 11.9977 24.3471 12.0319 23.8594 11.5328C23.3717 11.0375 23.4136 10.3326 23.9775 9.76866C25.4673 8.27504 26.9571 6.78523 28.4508 5.29543C29.0452 4.70103 29.7043 4.69722 30.3025 5.29162C31.8076 6.78904 33.3088 8.29028 34.8063 9.79152C35.3511 10.3364 35.3816 11.0413 34.9053 11.529C34.4176 12.0281 33.6975 11.9977 33.1412 11.4414C32.3029 10.6069 31.4685 9.76485 30.5845 8.87706V18.8637C31.6133 19.1762 32.6497 19.3972 33.6098 19.801C37.6716 21.5119 40.2016 25.5888 39.9996 29.9858C39.7634 35.1259 35.6598 39.4734 30.5426 40.0144C30.4397 40.0259 30.3406 40.0602 30.2416 40.083H28.5232L28.5193 40.0906ZM29.3919 21.2642C24.8729 21.2566 21.1808 24.9296 21.1732 29.4448C21.1656 34.0133 24.8425 37.7397 29.3652 37.7473C33.9223 37.7549 37.6487 34.0438 37.6601 29.4905C37.6716 24.9639 33.9566 21.2718 29.3919 21.2642Z" fill="#4B586E"/>
<path id="Vector_2" d="M0 9.85609C0.129549 9.20835 0.213374 8.54918 0.388645 7.91667C1.72223 3.11195 6.16879 -0.111525 11.145 0.10185C16.0373 0.307603 20.2705 4.11023 21.025 8.97592C21.8899 14.5389 18.4873 19.6522 13.0349 20.9782C12.6424 21.0735 12.2461 21.1344 11.8232 21.2144V28.2939C12.1852 28.2939 12.5472 28.2939 12.9053 28.2939C13.675 28.2939 14.4408 28.2939 15.2105 28.2939C15.9649 28.2977 16.4908 28.793 16.4831 29.4751C16.4755 30.1457 15.9535 30.6296 15.2258 30.6334C14.2237 30.6372 13.2216 30.6334 12.2195 30.6334C12.0937 30.6334 11.9642 30.6334 11.8003 30.6334C11.8003 31.7955 11.8003 32.9272 11.8003 34.055C11.8003 34.5198 11.6327 34.8971 11.2364 35.1447C10.4515 35.6286 9.47228 35.0761 9.46085 34.1312C9.44561 32.9881 9.46085 31.8412 9.46085 30.6372H9.07602C8.11202 30.6372 7.14803 30.6372 6.18404 30.6372C5.3153 30.6372 4.77805 30.1952 4.77043 29.4751C4.76281 28.7549 5.30768 28.2939 6.16498 28.2939C7.24329 28.2939 8.32159 28.2939 9.43037 28.2939V21.1992C8.18823 21.043 6.98419 20.7229 5.8716 20.1361C2.54144 18.3834 0.582968 15.6553 0.0723948 11.9098C0.0571538 11.7955 0.0228615 11.685 0 11.5745C0 11.003 0 10.4276 0 9.85609ZM18.8303 10.7096C18.8303 6.1411 15.1381 2.42991 10.6115 2.43372C6.05449 2.44134 2.3433 6.15634 2.3433 10.7172C2.3433 15.24 6.06973 18.9245 10.6382 18.9169C15.1534 18.9092 18.8341 15.2247 18.8303 10.7096Z" fill="#4B586E"/>
</g>
<defs>
<clipPath id="clip0_1_2337">
<rect width="40.0076" height="40" fill="white" transform="translate(0 0.0908813)"/>
</clipPath>
</defs>
</svg>
