<svg width="71" height="71" viewBox="0 0 71 71" fill="none" xmlns="http://www.w3.org/2000/svg">
<g id="vuesax/linear/global-search">
<g id="global-search">
<g id="Group">
<path id="Vector" d="M65.1458 35.0602C65.1458 18.9602 52.0792 5.89355 35.9792 5.89355C19.8792 5.89355 6.8125 18.9602 6.8125 35.0602C6.8125 51.1602 19.8792 64.2269 35.9792 64.2269" stroke="white" stroke-width="4.375" stroke-linecap="round" stroke-linejoin="round"/>
<path id="Vector_2" d="M24.3118 8.81055H27.2285C21.541 25.8439 21.541 44.2772 27.2285 61.3105H24.3118" stroke="white" stroke-width="4.375" stroke-linecap="round" stroke-linejoin="round"/>
<path id="Vector_3" d="M44.7285 8.81055C47.5577 17.3272 48.9869 26.1939 48.9869 35.0605" stroke="white" stroke-width="4.375" stroke-linecap="round" stroke-linejoin="round"/>
<path id="Vector_4" d="M9.72852 46.7272V43.8105C18.2452 46.6397 27.1118 48.0689 35.9785 48.0689" stroke="white" stroke-width="4.375" stroke-linecap="round" stroke-linejoin="round"/>
<path id="Vector_5" d="M9.72852 26.3086C26.7618 20.6211 45.1952 20.6211 62.2285 26.3086" stroke="white" stroke-width="4.375" stroke-linecap="round" stroke-linejoin="round"/>
</g>
<g id="Group_2">
<path id="Vector_6" d="M54.0638 62.4763C59.2184 62.4763 63.3971 58.2976 63.3971 53.1429C63.3971 47.9883 59.2184 43.8096 54.0638 43.8096C48.9091 43.8096 44.7305 47.9883 44.7305 53.1429C44.7305 58.2976 48.9091 62.4763 54.0638 62.4763Z" stroke="white" stroke-width="4.375" stroke-linecap="round" stroke-linejoin="round"/>
<path id="Vector_7" d="M65.1471 64.2262L62.2305 61.3096" stroke="white" stroke-width="4.375" stroke-linecap="round" stroke-linejoin="round"/>
</g>
</g>
</g>
</svg>
