<svg width="16" height="16" viewBox="0 0 16 16" fill="none" xmlns="http://www.w3.org/2000/svg">
<path opacity="0.4" d="M13.7448 5.63366C13.0448 2.55366 10.3581 1.16699 7.99811 1.16699C7.99811 1.16699 7.99811 1.16699 7.99144 1.16699C5.63811 1.16699 2.94478 2.54699 2.24478 5.62699C1.46478 9.06699 3.57144 11.9803 5.47811 13.8137C6.18478 14.4937 7.09144 14.8337 7.99811 14.8337C8.90478 14.8337 9.81144 14.4937 10.5114 13.8137C12.4181 11.9803 14.5248 9.07366 13.7448 5.63366Z" fill="#4B586E"/>
<path d="M7.99844 8.97344C9.15824 8.97344 10.0984 8.03324 10.0984 6.87344C10.0984 5.71364 9.15824 4.77344 7.99844 4.77344C6.83864 4.77344 5.89844 5.71364 5.89844 6.87344C5.89844 8.03324 6.83864 8.97344 7.99844 8.97344Z" fill="#4B586E"/>
</svg>
