<svg width="71" height="71" viewBox="0 0 71 71" fill="none" xmlns="http://www.w3.org/2000/svg">
<g clip-path="url(#clip0_0_78)">
<path d="M49.6263 19.2426C49.6263 22.7482 52.4682 25.5901 55.9738 25.5901C59.4795 25.5901 62.3214 22.7482 62.3214 19.2426C62.3214 15.7369 59.4795 12.895 55.9738 12.895C52.4698 12.8988 49.6301 15.7385 49.6263 19.2426ZM60.0132 19.2426C60.0132 21.4734 58.2047 23.2819 55.9738 23.2819C53.743 23.2819 51.9345 21.4734 51.9345 19.2426C51.9345 17.0117 53.743 15.2032 55.9738 15.2032C58.2047 15.2032 60.0132 17.0117 60.0132 19.2426Z" fill="#FDFAFA"/>
<path d="M28.8525 9.43274C28.8525 11.9823 30.9193 14.0491 33.4689 14.0491C36.0185 14.0491 38.0853 11.9823 38.0853 9.43274C38.0853 6.88317 36.0185 4.81635 33.4689 4.81635C30.9193 4.81635 28.8525 6.88317 28.8525 9.43274ZM35.7771 9.43274C35.7771 10.7075 34.7437 11.7409 33.4689 11.7409C32.1941 11.7409 31.1607 10.7075 31.1607 9.43274C31.1607 8.15796 32.1941 7.12454 33.4689 7.12454C34.7437 7.12454 35.7771 8.15796 35.7771 9.43274Z" fill="#FDFAFA"/>
<path d="M49.1577 41.8629C50.1821 43.4944 52.1023 44.3306 53.9946 43.9691L65.5356 41.6609C67.1701 41.3551 68.5139 40.1937 69.0533 38.6206C69.5927 37.0476 69.2443 35.306 68.1413 34.0614C67.0384 32.8169 65.3512 32.2618 63.7248 32.6082L55.3356 34.2851L47.7878 22.0124C46.9506 20.6444 45.4597 19.8129 43.8558 19.8196H33.4689C33.1101 19.8235 32.753 19.8692 32.4049 19.9558L27.0071 11.1847C26.3428 10.0932 25.1561 9.42871 23.8784 9.43274H16.3075C15.3314 9.43494 14.3955 9.82183 13.7027 10.5095L9.49023 14.722C8.52948 15.646 8.14368 17.0175 8.48176 18.3069C8.81983 19.5963 9.8289 20.602 11.1194 20.9358C12.41 21.2696 13.7801 20.8792 14.701 19.9154L17.8251 16.7809H20.3734L16.3017 22.8803L10.6178 25.7332L5.63554 22.6172C4.80639 22.0994 3.80551 21.9323 2.85315 22.1527C1.9008 22.373 1.07501 22.9627 0.55751 23.792C0.0407762 24.6186 -0.125876 25.6168 0.0943161 26.5664C0.314509 27.5161 0.903453 28.3391 1.73123 28.8539L8.47001 33.0721C9.55762 33.7439 10.9153 33.8055 12.0593 33.2349L18.8257 29.8464L23.5575 32.2077C23.9127 32.9789 24.484 33.6303 25.2021 34.0831L28.5421 40.7769L25.643 42.2264L18.603 37.8282C16.441 36.4769 13.5929 37.1342 12.2416 39.2962C10.8903 41.4582 11.5476 44.3063 13.7096 45.6576L22.9424 51.4281C24.3108 52.267 26.0131 52.348 27.4549 51.6427L36.9312 46.9086L45.033 50.9583L50.111 61.1236C50.8891 62.6924 52.4916 63.6821 54.2427 63.6754H30.0066C29.3692 63.6754 28.8525 64.1921 28.8525 64.8295C28.8525 65.4668 29.3692 65.9836 30.0066 65.9836H68.0919C68.7293 65.9836 69.246 65.4668 69.246 64.8295C69.246 64.1921 68.7293 63.6754 68.0919 63.6754H54.2508C54.965 63.6729 55.669 63.5063 56.3085 63.1883C57.4036 62.6406 58.2362 61.6803 58.6232 60.5187C59.0102 59.3571 58.9198 58.0893 58.3721 56.9943L52.6016 45.4533C52.1535 44.5612 51.4299 43.8372 50.538 43.3886L43.6735 39.9575L45.917 36.5921L49.1577 41.8629ZM18.3064 27.5244L11.0356 31.1644C10.6041 31.3785 10.0932 31.3576 9.68066 31.109L2.95226 26.8954C2.64386 26.7045 2.42438 26.3984 2.34249 26.045C2.26059 25.6916 2.32305 25.3202 2.51601 25.0131C2.91778 24.3704 3.76399 24.1742 4.40758 24.5745L9.93571 28.0368C10.2773 28.2505 10.7055 28.2706 11.0656 28.0899L17.6093 24.8123C17.7885 24.7225 17.9412 24.5877 18.0525 24.421L23.4537 16.3308C23.6587 15.9898 23.692 15.5724 23.5437 15.2032C23.3679 14.766 22.9439 14.4795 22.4727 14.4796H17.3462C17.0392 14.4794 16.7447 14.6015 16.5279 14.8189L13.0726 18.287C12.5301 18.8162 11.6646 18.8162 11.1221 18.287C10.5892 17.7523 10.5892 16.8873 11.1221 16.3527L15.3346 12.1403C15.5938 11.8844 15.9433 11.7409 16.3075 11.7409H23.8784C24.3533 11.7394 24.7945 11.9863 25.0417 12.3918L30.3633 21.0476C30.3125 21.0937 30.2548 21.1284 30.2051 21.178L28.3586 23.0246L26.3828 19.8127C26.176 19.4783 25.8133 19.2722 25.4202 19.2657C25.0242 19.2457 24.6487 19.443 24.4404 19.7804L21.5552 24.1198C21.3718 24.3955 21.3157 24.7368 21.4011 25.0567C21.4866 25.3767 21.7053 25.6445 22.0018 25.7921L24.4012 26.9843C23.7464 27.6526 23.3126 28.5058 23.1582 29.4286L19.3382 27.5232C19.0132 27.3613 18.631 27.3617 18.3064 27.5244ZM24.2015 24.3079L25.366 22.5571L26.6863 24.6922L26.1173 25.26L24.2015 24.3079ZM28.1255 34.7814C29.0616 34.6964 29.9485 34.3239 30.6645 33.715L33.0685 38.516L30.6056 39.7474L28.1255 34.7814ZM34.7407 36.7075L32.4014 32.0288L35.3813 29.0524H39.8476L34.7407 36.7075ZM44.9914 33.8131L41.0283 39.7647C40.8447 40.0402 40.7883 40.3812 40.8733 40.7011C40.9583 41.021 41.1765 41.289 41.4726 41.437L49.5063 45.4533C49.9518 45.6776 50.3131 46.0393 50.5369 46.4851L56.3074 58.026C56.5815 58.5736 56.6267 59.2076 56.4332 59.7886C56.2397 60.3695 55.8233 60.8498 55.2756 61.1236C54.1342 61.6715 52.7639 61.215 52.1792 60.0919L46.9246 49.5827C46.8131 49.359 46.6321 49.1776 46.4087 49.0656L37.4483 44.5854C37.1229 44.4238 36.7407 44.4238 36.4153 44.5854L26.4289 49.5827C25.7072 49.9388 24.8533 49.9001 24.1669 49.4799L14.9341 43.7095C14.2332 43.2722 13.8187 42.4942 13.847 41.6685C13.8752 40.8429 14.3417 40.095 15.0709 39.7066C15.8 39.3182 16.681 39.3483 17.382 39.7855L24.9678 44.5277C25.3088 44.7405 25.7359 44.7607 26.0954 44.5808L35.0777 40.0891C35.2569 39.9993 35.4097 39.8645 35.5209 39.6978L42.921 28.6023C43.16 28.1961 43.1529 27.6906 42.9025 27.2913C42.6923 26.9514 42.3212 26.7444 41.9215 26.7442H34.9035C34.5974 26.7443 34.3039 26.8659 34.0875 27.0824L29.3303 31.8384C28.4172 32.7107 26.9796 32.7107 26.0665 31.8384C25.8336 31.6028 25.6541 31.3198 25.5403 31.0086L25.5334 30.9855C25.2206 30.147 25.4294 29.203 26.0665 28.5746L27.1849 27.4563L27.1987 27.4436L31.8382 22.8041C32.2694 22.3696 32.8568 22.126 33.4689 22.1278H43.8558C44.6567 22.1265 45.4004 22.5429 45.8178 23.2265L53.7868 36.1755C54.0398 36.5872 54.5225 36.7976 54.9963 36.7029L64.1703 34.8679C64.9788 34.7057 65.8125 34.9871 66.3573 35.6062C66.9021 36.2253 67.0752 37.088 66.8114 37.8694C66.5477 38.6508 65.8871 39.232 65.0785 39.3943L53.5375 41.7025C52.5893 41.8883 51.6248 41.469 51.1139 40.6488L46.9292 33.8488C46.723 33.5136 46.3602 33.3065 45.9667 33.2995C45.5757 33.2912 45.2083 33.4854 44.9949 33.8131H44.9914Z" fill="#FDFAFA"/>
<path d="M25.3902 63.6754H23.082C22.4446 63.6754 21.9279 64.1921 21.9279 64.8295C21.9279 65.4669 22.4446 65.9836 23.082 65.9836H25.3902C26.0276 65.9836 26.5443 65.4669 26.5443 64.8295C26.5443 64.1921 26.0276 63.6754 25.3902 63.6754Z" fill="#FDFAFA"/>
</g>
<defs>
<clipPath id="clip0_0_78">
<rect width="70.4" height="70.4" fill="white" transform="translate(6.10352e-05 0.199951)"/>
</clipPath>
</defs>
</svg>
