<svg width="71" height="72" viewBox="0 0 71 72" fill="none" xmlns="http://www.w3.org/2000/svg">
<g clip-path="url(#clip0_0_64)">
<path d="M27.2033 41.3202C26.394 40.8762 25.4073 40.9086 24.6288 41.4049L22.6812 42.6461L21.3126 40.7418L22.2007 40.1765C22.6812 39.8707 22.8227 39.2334 22.5169 38.7528C22.2111 38.2724 21.5738 38.1308 21.0933 38.4366L15.5116 41.9888L9.66 37.6C8.34522 36.614 6.71612 36.0709 5.07272 36.0709H4.45617C2.81951 36.0709 1.39638 37.2315 1.146 38.7706C0.991722 39.7185 1.25641 40.6777 1.87241 41.4019C2.48868 42.1267 3.38738 42.5422 4.33806 42.5422H5.07506C5.32655 42.5422 5.5757 42.6252 5.77686 42.7761L12.2 47.5944C13.1313 48.2922 14.2911 48.6765 15.4658 48.6765C16.505 48.6765 17.514 48.384 18.3842 47.8303L25.7375 43.144C25.9397 43.0152 26.1214 43.0789 26.2117 43.1285C26.302 43.178 26.4534 43.2969 26.4534 43.5369V54.7376C26.4534 55.3071 26.9151 55.7689 27.4847 55.7689C28.0542 55.7689 28.5159 55.3071 28.5159 54.7376V43.5369C28.5158 42.6137 28.0129 41.7642 27.2033 41.3202ZM17.2763 46.0907C16.7381 46.433 16.112 46.6141 15.4657 46.6141C14.734 46.6141 14.0134 46.3761 13.4371 45.9442L7.01436 41.1262C6.45858 40.7093 5.76985 40.4797 5.07506 40.4797H4.33806C3.99335 40.4797 3.66733 40.3289 3.44362 40.0657C3.21702 39.7991 3.12393 39.4568 3.18168 39.1018C3.2701 38.5587 3.82986 38.1334 4.45617 38.1334H5.07272C6.27282 38.1334 7.46247 38.5299 8.4225 39.25L14.8448 44.0668C15.1882 44.3243 15.6551 44.3422 16.0173 44.1118L19.5699 41.8508L20.9394 43.7562L17.2763 46.0907Z" fill="#4F6484"/>
<path d="M66.0622 36.0709H65.3276C63.684 36.0709 62.0549 36.614 60.7402 37.6L54.8886 41.9888L46.5482 36.6809C44.7881 35.5608 42.755 34.9686 40.6687 34.9686H38.4359V31.5415C38.5819 31.4336 38.7235 31.3186 38.8589 31.1954C39.991 30.1661 40.6404 28.6987 40.6404 27.1694V23.8628C40.6404 21.4709 38.6945 19.525 36.3025 19.525H35.2001C34.0904 19.525 33.0218 19.9613 32.2151 20.7333C30.791 21.086 29.76 22.3686 29.76 23.863V26.9801C29.76 28.8065 30.6279 30.4638 31.9644 31.4996V34.9687H29.7317C28.0338 34.9687 26.3345 35.3714 24.8172 36.1333C24.3081 36.3889 24.1029 37.0088 24.3583 37.5177C24.5394 37.8782 24.9031 38.0864 25.2807 38.0864C25.4362 38.0864 25.5942 38.051 25.7427 37.9765C26.9743 37.358 28.3535 37.0312 29.7316 37.0312H32.1381C32.5734 38.3045 33.7811 39.223 35.1999 39.223C36.6188 39.223 37.8265 38.3045 38.2618 37.0312H40.6684C42.3618 37.0312 44.0119 37.5118 45.4405 38.4209L49.0876 40.7418L47.7189 42.646L45.7713 41.4048C44.9927 40.9087 44.0063 40.8761 43.1968 41.3201C42.3872 41.7641 41.8844 42.6136 41.8844 43.5369V54.7376C41.8844 55.3072 42.3461 55.7689 42.9156 55.7689C43.4851 55.7689 43.9469 55.3072 43.9469 54.7376V43.5369C43.9469 43.2969 44.0984 43.178 44.1886 43.1285C44.2789 43.079 44.4606 43.0152 44.6628 43.144L52.0166 47.8306C52.8863 48.3839 53.8953 48.6764 54.9345 48.6764C56.109 48.6764 57.269 48.292 58.2007 47.5938L64.6234 42.7758C64.8245 42.625 65.0737 42.5419 65.3252 42.5419H65.944C67.5806 42.5419 69.0038 41.3813 69.2541 39.8423C69.4086 38.8943 69.1437 37.9351 68.5277 37.2109C67.9115 36.4866 67.0128 36.0709 66.0622 36.0709ZM31.8225 23.8628C31.8225 23.2767 32.2661 22.7806 32.8542 22.7089C33.105 22.6784 33.3357 22.5569 33.5029 22.3674C33.9465 21.8644 34.5491 21.5875 35.2001 21.5875H36.3023C37.557 21.5875 38.5776 22.6081 38.5776 23.8628V27.1694C38.5776 28.119 38.1743 29.0302 37.4713 29.6695C36.7586 30.3174 35.8338 30.6236 34.8648 30.531C33.1587 30.3684 31.8224 28.8086 31.8224 26.98V23.8628H31.8225ZM35.2001 37.1605C34.5531 37.1605 34.0269 36.6341 34.0269 35.9873V32.4798C34.2369 32.5274 34.4508 32.5636 34.6692 32.5843C34.8426 32.6008 35.0158 32.6091 35.1885 32.6091C35.5892 32.6091 35.9864 32.564 36.3734 32.4783V35.9873C36.3732 36.6341 35.847 37.1605 35.2001 37.1605ZM67.2185 39.5113C67.1301 40.0544 66.5703 40.4797 65.944 40.4797H65.3252C64.6304 40.4797 63.9417 40.7093 63.3859 41.1262L56.9636 45.9438C56.3868 46.3761 55.6661 46.6141 54.9345 46.6141C54.2881 46.6141 53.6621 46.4332 53.1244 46.0911L49.4609 43.7563L50.8304 41.851L54.383 44.1119C54.745 44.3424 55.212 44.3243 55.5554 44.0669L61.9776 39.2502C62.9377 38.5301 64.1275 38.1335 65.3276 38.1335H66.0622C66.4069 38.1335 66.7329 38.2844 66.9567 38.5476C67.1833 38.814 67.2763 39.1563 67.2185 39.5113Z" fill="#4F6484"/>
<path d="M2.06257 33.7955V32.6933C2.06257 31.4387 3.08324 30.418 4.33792 30.418H6.54232C7.79701 30.418 8.81767 31.4387 8.81767 32.6933V33.7955C8.81767 34.3651 9.2794 34.8268 9.84892 34.8268C10.4184 34.8268 10.8802 34.3651 10.8802 33.7955V32.6933C10.8802 30.3014 8.93427 28.3555 6.54232 28.3555H4.33792C1.94597 28.3554 7.24792e-05 30.3014 7.24792e-05 32.6933V33.7955C7.24792e-05 34.3651 0.461797 34.8268 1.03132 34.8268C1.60085 34.8268 2.06257 34.3651 2.06257 33.7955Z" fill="#4F6484"/>
<path d="M5.44013 27.1113C7.22433 27.1113 8.67578 25.6597 8.67578 23.8756C8.67578 22.0915 7.22419 20.64 5.44013 20.64C3.65606 20.64 2.20448 22.0915 2.20448 23.8756C2.20448 25.6597 3.65606 27.1113 5.44013 27.1113ZM5.44013 22.7025C6.08706 22.7025 6.61328 23.2288 6.61328 23.8756C6.61328 24.5224 6.08693 25.0488 5.44013 25.0488C4.79333 25.0488 4.26698 24.5224 4.26698 23.8756C4.26698 23.2288 4.79333 22.7025 5.44013 22.7025Z" fill="#4F6484"/>
<path d="M17.5646 30.5599C15.1726 30.5599 13.2267 32.5058 13.2267 34.8978V37.1022C13.2267 37.6717 13.6885 38.1334 14.258 38.1334C14.8275 38.1334 15.2892 37.6717 15.2892 37.1022V34.8978C15.2892 33.6431 16.3099 32.6224 17.5646 32.6224H19.7691C20.6541 32.6224 21.4656 33.1419 21.8367 33.9458C22.0753 34.4628 22.688 34.6888 23.2053 34.4501C23.7224 34.2114 23.9482 33.5988 23.7095 33.0815C23.0025 31.5496 21.4558 30.5598 19.7691 30.5598H17.5646V30.5599Z" fill="#4F6484"/>
<path d="M15.4311 26.08C15.4311 27.8642 16.8827 29.3157 18.6669 29.3157C20.4511 29.3157 21.9026 27.8641 21.9026 26.08C21.9026 24.2959 20.451 22.8444 18.6669 22.8444C16.8826 22.8444 15.4311 24.2958 15.4311 26.08ZM18.6668 24.9069C19.3137 24.9069 19.8399 25.4332 19.8399 26.08C19.8399 26.7268 19.3136 27.2532 18.6668 27.2532C18.0199 27.2532 17.4935 26.7268 17.4935 26.08C17.4935 25.4332 18.0199 24.9069 18.6668 24.9069Z" fill="#4F6484"/>
<path d="M13.1557 22.7025C14.9399 22.7025 16.3913 21.2509 16.3913 19.4668C16.3913 17.6826 14.9397 16.231 13.1557 16.231C11.3716 16.231 9.92001 17.6826 9.92001 19.4668C9.92001 21.2509 11.3716 22.7025 13.1557 22.7025ZM13.1557 18.2935C13.8026 18.2935 14.3288 18.8199 14.3288 19.4668C14.3288 20.1138 13.8025 20.64 13.1557 20.64C12.5089 20.64 11.9825 20.1136 11.9825 19.4668C11.9825 18.8197 12.5089 18.2935 13.1557 18.2935Z" fill="#4F6484"/>
<path d="M66.0622 28.3554H63.8578C61.4659 28.3554 59.52 30.3013 59.52 32.6932V33.7954C59.52 34.3649 59.9817 34.8267 60.5512 34.8267C61.1207 34.8267 61.5825 34.3649 61.5825 33.7954V32.6932C61.5825 31.4385 62.6031 30.4179 63.8578 30.4179H66.0622C67.3169 30.4179 68.3376 31.4385 68.3376 32.6932V33.7954C68.3376 34.3649 68.7993 34.8267 69.3688 34.8267C69.9383 34.8267 70.4001 34.3649 70.4001 33.7954V32.6932C70.4001 30.3014 68.4542 28.3554 66.0622 28.3554Z" fill="#4F6484"/>
<path d="M64.96 27.1113C66.7442 27.1113 68.1957 25.6597 68.1957 23.8756C68.1957 22.0915 66.7441 20.64 64.96 20.64C63.176 20.64 61.7244 22.0915 61.7244 23.8756C61.7244 25.6597 63.1758 27.1113 64.96 27.1113ZM64.96 22.7025C65.607 22.7025 66.1332 23.2288 66.1332 23.8756C66.1332 24.5224 65.6068 25.0488 64.96 25.0488C64.3132 25.0488 63.7869 24.5224 63.7869 23.8756C63.7869 23.2288 64.3131 22.7025 64.96 22.7025Z" fill="#4F6484"/>
<path d="M47.195 34.4502C47.7122 34.6888 48.3249 34.463 48.5636 33.946C48.9345 33.142 49.7462 32.6225 50.6311 32.6225H52.8357C54.0904 32.6225 55.111 33.6432 55.111 34.8979V37.1023C55.111 37.6718 55.5728 38.1335 56.1423 38.1335C56.7118 38.1335 57.1735 37.6718 57.1735 37.1023V34.8979C57.1735 32.5059 55.2276 30.56 52.8357 30.56H50.6311C48.9444 30.56 47.3978 31.5499 46.6908 33.0818C46.4521 33.5988 46.678 34.2115 47.195 34.4502Z" fill="#4F6484"/>
<path d="M51.7333 29.3157C53.5175 29.3157 54.9691 27.8641 54.9691 26.08C54.9691 24.2959 53.5175 22.8444 51.7333 22.8444C49.9491 22.8444 48.4977 24.2959 48.4977 26.08C48.4977 27.8641 49.9491 29.3157 51.7333 29.3157ZM51.7333 24.9069C52.3803 24.9069 52.9066 25.4332 52.9066 26.08C52.9066 26.7268 52.3803 27.2532 51.7333 27.2532C51.0864 27.2532 50.5602 26.7268 50.5602 26.08C50.5602 25.4332 51.0864 24.9069 51.7333 24.9069Z" fill="#4F6484"/>
<path d="M57.2445 22.7025C59.0287 22.7025 60.4801 21.2509 60.4801 19.4668C60.4801 17.6826 59.0285 16.231 57.2445 16.231C55.4604 16.231 54.0088 17.6826 54.0088 19.4668C54.0088 21.2509 55.4603 22.7025 57.2445 22.7025ZM57.2445 18.2935C57.8914 18.2935 58.4176 18.8199 58.4176 19.4668C58.4176 20.1138 57.8913 20.64 57.2445 20.64C56.5977 20.64 56.0713 20.1136 56.0713 19.4668C56.0713 18.8197 56.5975 18.2935 57.2445 18.2935Z" fill="#4F6484"/>
</g>
<defs>
<clipPath id="clip0_0_64">
<rect width="70.4" height="70.4" fill="white" transform="translate(6.10352e-05 0.799957)"/>
</clipPath>
</defs>
</svg>
