<svg width="71" height="71" viewBox="0 0 71 71" fill="none" xmlns="http://www.w3.org/2000/svg">
<path d="M35.1431 59.3242L34.1863 58.9171C34.4036 58.407 34.5848 57.8738 34.7251 57.3325L35.0358 56.1229H36.1319L36.2517 56.4759C36.5352 57.3124 36.8572 58.1009 37.2087 58.8189L36.2753 59.2762C36.057 58.8308 35.8502 58.3605 35.6561 57.8702C35.5152 58.3661 35.3431 58.8539 35.1431 59.3242Z" fill="#4F6484"/>
<path d="M50.1804 66.8867C49.8929 66.8867 49.6107 66.8826 49.3343 66.8739L49.3663 65.8349C49.6325 65.843 49.9036 65.8471 50.1804 65.8471C51.6377 65.8471 53.0358 65.7192 54.3363 65.4669L54.5342 66.4872C53.1688 66.7524 51.704 66.8867 50.1804 66.8867ZM22.0113 66.8867C20.2081 66.8867 18.5379 66.7199 17.0451 66.3908L17.2689 65.3756C18.6881 65.6885 20.2832 65.8471 22.0095 65.8471L22.229 65.8461L22.2361 66.8856L22.0113 66.8867ZM27.4317 66.208L27.1348 65.2116C28.7164 64.7406 30.1396 63.9475 31.3649 62.8544L32.0567 63.63C30.7168 64.8256 29.1605 65.6928 27.4317 66.208ZM44.1616 66.055C42.632 65.5669 41.2557 64.8609 40.0712 63.9569C39.8864 63.8165 39.7058 63.6709 39.5291 63.5201L40.2037 62.7293C40.3656 62.8674 40.5316 63.0009 40.7011 63.13C41.7914 63.9622 43.0619 64.6129 44.4778 65.0647L44.1616 66.055ZM59.4783 64.6662L58.9276 63.7846C60.2947 62.9303 61.4751 61.7477 62.3413 60.365L63.2225 60.9167C62.273 62.4324 60.9785 63.7287 59.4783 64.6662ZM12.1624 64.4261C11.955 64.2944 11.7518 64.1574 11.552 64.0148C10.2742 63.1036 9.19585 62.0123 8.34718 60.7713L9.205 60.1846C9.98489 61.3246 10.9775 62.3283 12.1556 63.1686C12.3401 63.3001 12.5281 63.427 12.7198 63.5485L12.1624 64.4261ZM64.9731 55.9168L63.9402 55.8001C63.9857 55.398 64.0088 54.9905 64.0088 54.5882C64.0088 53.6279 63.8793 52.6701 63.6237 51.7415L63.4073 50.955L64.4092 50.6783L64.6262 51.4661C64.9062 52.4843 65.0483 53.5347 65.0483 54.5882C65.0483 55.0293 65.0229 55.4762 64.9731 55.9168ZM6.35975 55.8694C6.22194 55.0889 6.15189 54.2784 6.15189 53.4604C6.15189 52.5097 6.23972 51.5483 6.41329 50.603L7.43557 50.7903C7.27365 51.6742 7.19142 52.5724 7.19142 53.4604C7.19142 54.218 7.25615 54.9677 7.38354 55.6887L6.35975 55.8694ZM62.0413 46.0324L61.7114 44.8505C61.3558 43.5806 61.0069 42.338 60.6617 41.1142L61.6622 40.832C62.0074 42.0563 62.3568 43.2999 62.7124 44.5706L63.0428 45.7532L62.0413 46.0324ZM8.71139 45.8924L7.70995 45.6132C8.02591 44.4793 8.41726 43.1656 8.87282 41.7086L9.18828 40.7031L10.1796 41.0163L9.86514 42.0185C9.41261 43.4656 9.02428 44.7688 8.71139 45.8924ZM59.2694 36.1996L58.769 34.4444C58.4669 33.3874 58.1637 32.3357 57.8599 31.2916L58.8578 31.0012C59.1621 32.0469 59.4659 33.1001 59.7684 34.1586L60.2694 35.9149L59.2694 36.1996ZM11.7289 36.1511L10.7397 35.8318L10.862 35.4517C11.3363 33.9812 11.832 32.4828 12.3431 30.9726L13.3278 31.306C12.8182 32.8113 12.3241 34.3051 11.8518 35.7694L11.7289 36.1511ZM14.9917 26.4777L14.0095 26.1376C14.5249 24.6488 15.0198 23.217 15.4937 21.8429L15.6787 21.3079L16.6609 21.6485L16.4763 22.1817C16.0025 23.556 15.5076 24.9884 14.9917 26.4777ZM56.4135 26.3954C56.1849 25.6328 55.9565 24.877 55.7288 24.1288C55.4555 23.2317 55.1865 22.3599 54.9218 21.5153L55.9136 21.2042C56.1793 22.0518 56.4493 22.9262 56.7232 23.8263C56.9514 24.5755 57.1803 25.3328 57.4095 26.097L56.4135 26.3954ZM18.3673 16.841L17.3908 16.4847L17.7915 15.3959C18.2643 14.116 18.9019 12.9024 19.6868 11.7883L20.5365 12.3872C19.8036 13.4275 19.2082 14.5609 18.7668 15.7558L18.3673 16.841ZM53.3498 16.6648C53.1785 16.156 53.0097 15.6614 52.8435 15.1812C52.4539 14.0871 51.9372 13.09 51.2933 12.1776L52.1425 11.5781C52.8409 12.5677 53.4016 13.6493 53.8086 14.7926L53.8259 14.8416C53.9929 15.3238 54.1627 15.8215 54.335 16.3334L53.3498 16.6648ZM23.9966 8.90191L23.3921 8.05626C24.8334 7.02561 26.4254 6.25332 28.124 5.76073L28.4133 6.75915C26.8282 7.21879 25.342 7.93979 23.9966 8.90191ZM47.7661 8.79737C46.851 8.19615 45.8414 7.68575 44.7651 7.27996C44.2788 7.097 43.7725 6.92744 43.2606 6.77643L43.555 5.77953C44.0909 5.93765 44.6214 6.1153 45.1315 6.30714C46.2794 6.73986 47.3578 7.28524 48.3366 7.92835L47.7661 8.79737ZM38.3464 5.86457C36.7377 5.72346 35.0183 5.70976 33.3346 5.86L33.2422 4.82452C34.9863 4.66869 36.7679 4.68238 38.4373 4.82909L38.3464 5.86457Z" fill="#4F6484"/>
<path d="M50.1804 61.7733C48.7407 61.7733 47.5174 61.6469 46.4408 61.387C45.1665 61.0776 44.0676 60.5749 43.1735 59.8925C42.236 59.1788 41.4785 58.252 40.9229 57.1388C40.5204 56.3363 40.1651 55.4143 39.8676 54.4002L39.8486 54.3334L39.2527 52.0493H31.8634C31.72 52.6094 31.5756 53.1802 31.4309 53.7596C31.2137 54.6271 30.9972 55.4768 30.7809 56.3117C30.1158 58.8795 28.0961 60.8403 25.5095 61.4286C24.4743 61.6616 23.3345 61.7733 22.0095 61.7733C18.7815 61.7733 16.3327 61.1451 14.5229 59.8533C12.3918 58.3331 11.2653 56.1224 11.2653 53.4604C11.2653 52.4615 11.4081 51.4554 11.6898 50.4702C11.8718 49.8306 12.0822 49.0596 12.3134 48.1823C12.6565 46.8565 13.1413 45.1906 13.7532 43.2351C14.3453 41.3398 15.0102 39.2481 15.7289 37.0201C16.4578 34.7603 17.2362 32.4374 18.0422 30.1162C18.8508 27.7846 19.6134 25.5812 20.3278 23.5098C21.0544 21.4016 21.7244 19.5139 22.3186 17.899L22.5899 17.1635C23.7855 13.9259 26.483 11.4728 29.8056 10.6005L29.8554 10.5873C31.793 10.082 33.7708 9.82619 35.7375 9.82619C38.5416 9.82619 41.0965 10.2526 43.3309 11.0931C46.8961 12.4372 48.3767 14.7784 48.9909 16.5062C49.8702 19.0472 50.8227 22.0013 51.8313 25.315C52.8327 28.6054 53.8489 32.0534 54.8517 35.5633C55.8128 38.9273 56.7734 42.3243 57.7883 45.9492C58.4933 48.4711 59.1351 50.7829 59.696 52.8215C60.6256 56.2025 58.7826 59.7701 55.5001 60.9436C53.9279 61.4997 52.1534 61.7733 50.1804 61.7733ZM30.2531 49.9702H40.8587L41.8602 53.8086C42.1251 54.71 42.4345 55.5153 42.7822 56.2084C43.1954 57.0365 43.7507 57.719 44.4341 58.239C45.0991 58.7466 45.9383 59.1255 46.9302 59.3663C47.8436 59.5869 48.9072 59.6942 50.1805 59.6942C51.9169 59.6942 53.4582 59.4605 54.7619 58.9996C57.0643 58.1765 58.3345 55.7109 57.6917 53.373C57.1313 51.3366 56.4905 49.0279 55.7862 46.5093C54.7726 42.8887 53.813 39.4948 52.8529 36.1343C51.8532 32.6358 50.8403 29.1995 49.8424 25.9203C48.8415 22.6316 47.8971 19.7024 47.0363 17.2145C46.5653 15.8897 45.4169 14.1013 42.598 13.0389C40.5991 12.2867 38.2909 11.9052 35.7376 11.9052C33.9478 11.9052 32.1467 12.1384 30.3838 12.5981L30.3356 12.611C27.6668 13.3115 25.5009 15.2822 24.5403 17.8833L24.2695 18.6177C23.6805 20.2184 23.0156 22.0927 22.2933 24.1874C21.5784 26.2604 20.8157 28.4648 20.0064 30.7979C19.2051 33.1049 18.4318 35.4131 17.7075 37.6584C16.9908 39.8801 16.3279 41.9652 15.7376 43.8554C15.1358 45.7784 14.6607 47.4108 14.325 48.7077C14.0887 49.6048 13.8748 50.389 13.689 51.0407C13.4603 51.8412 13.3443 52.6548 13.3443 53.4604C13.3443 55.4499 14.1473 57.0315 15.7307 58.1608C17.1761 59.1928 19.2297 59.6942 22.0095 59.6942C23.1789 59.6942 24.1695 59.5993 25.0377 59.4039C26.8736 58.9861 28.2989 57.6025 28.7684 55.7904C28.9831 54.961 29.1981 54.1164 29.4141 53.2551C29.6278 52.3993 29.8409 51.5615 30.0513 50.7492L30.2531 49.9702ZM40.176 41.2384H31.0515L31.4474 39.9032C32.5281 36.2608 33.6811 32.6105 34.8744 29.0536L35.9507 25.8452L36.861 29.1046C37.8549 32.6633 38.852 36.3054 39.8248 39.9293L40.176 41.2384ZM33.8399 39.1593H37.4645C36.9064 37.0899 36.3415 35.019 35.7748 32.9648C35.1116 35.0154 34.4645 37.0866 33.8399 39.1593Z" fill="#4F6484"/>
</svg>
