<svg width="71" height="71" viewBox="0 0 71 71" fill="none" xmlns="http://www.w3.org/2000/svg">
<g clip-path="url(#clip0_0_120)">
<path d="M69.8203 9.58567C69.0111 8.18319 67.7931 7.1147 66.2978 6.49582C65.7716 6.27775 65.1684 6.52785 64.9506 7.05433C64.7328 7.58054 64.9828 8.18374 65.5091 8.40154C66.5807 8.84511 67.4538 9.61097 68.034 10.6166C68.7322 11.8258 68.9176 13.2342 68.5562 14.5826C68.1949 15.9311 67.33 17.058 66.1207 17.7562C64.9117 18.4544 63.5032 18.6397 62.1549 18.2786C60.8066 17.9171 59.6795 17.0522 58.981 15.8427C58.2829 14.6343 58.0976 13.2261 58.4589 11.8775C58.8203 10.5288 59.6853 9.40157 60.8926 8.70445C61.0965 8.58716 61.3025 8.48528 61.5052 8.4014C62.0314 8.18333 62.2811 7.57999 62.063 7.05378C61.845 6.52785 61.2416 6.27816 60.7155 6.49595C60.4316 6.61365 60.1455 6.75514 59.8632 6.91711C58.1771 7.89074 56.9708 9.46289 56.4667 11.3435C56.4055 11.5718 56.356 11.8016 56.3173 12.0318C54.2435 9.54704 51.7368 7.44662 48.9108 5.84875C44.8584 3.55762 40.2562 2.3442 35.6012 2.33925C35.6 2.33925 35.5988 2.33911 35.5975 2.33911C35.5973 2.33911 35.5968 2.33911 35.5964 2.33911C31.4466 2.34337 27.2889 3.32112 23.5725 5.16649C23.0624 5.41989 22.8542 6.03877 23.1075 6.54889C23.3607 7.05873 23.9798 7.26691 24.4897 7.01391C27.6149 5.46211 31.0784 4.57442 34.5663 4.42441V7.69356C30.1442 7.91273 25.8343 9.49328 22.3299 12.1983C22.0577 12.4084 21.9081 12.7404 21.931 13.0835C21.954 13.4265 22.1465 13.7356 22.4443 13.9077L31.4067 19.0824C31.6619 19.2302 31.7498 19.5575 31.6024 19.8125L25.3444 30.6509C25.2733 30.7741 25.1585 30.8624 25.0212 30.8993C24.8839 30.9364 24.7401 30.9173 24.6168 30.846L15.6533 25.6706C15.3553 25.4987 14.9915 25.4865 14.683 25.6382C14.3743 25.7898 14.1616 26.0853 14.1156 26.426C13.5251 30.8122 14.3109 35.3358 16.3314 39.2765L13.5009 40.9108C11.6723 37.4086 10.6914 33.5004 10.6558 29.543C10.6159 25.1162 11.7712 20.7377 13.9966 16.8804C13.9977 16.8784 13.9989 16.8767 14 16.8749C14.0015 16.8721 14.0029 16.8694 14.0045 16.8666C15.6878 13.9526 17.894 11.454 20.5618 9.44061C21.0164 9.09756 21.1067 8.4509 20.7637 7.99633C20.4206 7.54177 19.7741 7.45129 19.3194 7.79435C17.67 9.03912 16.1844 10.4554 14.8735 12.0279C14.525 9.95568 13.2897 8.04803 11.332 6.9178C7.85123 4.90813 3.38461 6.10518 1.37493 9.58567C-0.634602 13.0663 0.562319 17.5332 4.04295 19.5427C5.18803 20.204 6.43926 20.5179 7.67523 20.5179C8.55591 20.5179 9.42751 20.3548 10.2478 20.0476C9.13093 23.0885 8.56416 26.3126 8.59345 29.5618C8.63538 34.2179 9.8862 38.8115 12.2107 42.8455C12.2109 42.8458 12.2112 42.8461 12.2113 42.8463C12.2114 42.8466 12.2116 42.8469 12.2117 42.847C14.5434 46.8772 17.8959 50.2572 21.9071 52.6216C24.7051 54.2709 27.7788 55.3918 30.9688 55.9452C29.3453 57.2832 28.3086 59.3086 28.3086 61.5718C28.3086 65.5909 31.5785 68.8608 35.5977 68.8608C39.6169 68.8608 42.8867 65.591 42.8867 61.5718C42.8867 59.3087 41.85 57.2832 40.2265 55.9452C43.4166 55.3918 46.4903 54.2709 49.2882 52.6216C53.2968 50.2586 56.6477 46.8814 58.9791 42.8544C58.9809 42.8514 58.9831 42.8485 58.9849 42.8455C61.309 38.8113 62.5597 34.2179 62.6017 29.5621C62.631 26.3156 62.0652 23.0943 60.9501 20.0559C61.7669 20.3622 62.6589 20.5237 63.5194 20.5221C64.7825 20.5221 66.029 20.1909 67.1521 19.5423C68.8384 18.5687 70.0447 16.9968 70.5486 15.1165C71.0525 13.2358 70.7937 11.2715 69.8203 9.58567ZM5.07432 17.7565C2.57859 16.3155 1.72033 13.1126 3.16117 10.6168C4.60215 8.12118 7.80489 7.26264 10.3008 8.70376C12.7939 10.1432 13.6527 13.3409 12.2182 15.8354C12.2168 15.8379 12.2153 15.8402 12.2138 15.8427C12.2124 15.8451 12.2112 15.8475 12.2098 15.85C10.767 18.3406 7.56799 19.1964 5.07432 17.7565ZM40.8241 61.5718C40.8241 64.4538 38.4795 66.7984 35.5975 66.7984C32.7156 66.7984 30.3709 64.4538 30.3709 61.5718C30.3709 58.6952 32.7069 56.3541 35.5816 56.3455C35.5869 56.3455 35.5922 56.3458 35.5975 56.3458C35.6029 56.3458 35.6081 56.3455 35.6135 56.3455C38.4882 56.3541 40.8241 58.6952 40.8241 61.5718ZM48.2408 50.8449C44.4294 53.0916 40.0633 54.2801 35.6136 54.283C35.6082 54.283 35.603 54.2826 35.5977 54.2826C35.5923 54.2826 35.5871 54.283 35.5817 54.283C31.132 54.2801 26.7659 53.0916 22.9546 50.8449C19.5454 48.8352 16.6511 46.0316 14.5325 42.6969L17.3629 41.0627C19.7642 44.7826 23.2886 47.7248 27.3835 49.4072C27.7014 49.5378 28.0639 49.5015 28.3496 49.31C28.6353 49.1184 28.8066 48.7973 28.8066 48.4534V44.7368C28.8066 44.1671 28.3449 43.7056 27.7754 43.7056C27.2059 43.7056 26.7442 44.1671 26.7442 44.7368V46.8463C23.3702 45.1295 20.5176 42.4413 18.6107 39.1522C16.7155 35.8547 15.8137 32.0399 16.0139 28.2604L23.5858 32.6323C24.1864 32.9789 24.8857 33.0708 25.5552 32.8915C26.2254 32.7118 26.7851 32.2818 27.1311 31.6813L33.3883 20.8442C34.1042 19.6059 33.6789 18.0149 32.4392 17.297L24.8676 12.9252C28.0416 10.8615 31.7968 9.73568 35.5992 9.72977C35.6007 9.72977 35.6022 9.7295 35.6039 9.7295C39.4035 9.73734 43.1558 10.8634 46.328 12.9258L38.756 17.2975C38.1555 17.6442 37.726 18.2039 37.5466 18.8737C37.3671 19.5433 37.4593 20.2429 37.8059 20.8432L44.0637 31.6819C44.4103 32.2825 44.9701 32.712 45.6398 32.8915C46.3097 33.0709 47.009 32.9791 47.6095 32.6321L55.1815 28.2604C55.3817 32.0413 54.4795 35.8566 52.5836 39.1529C52.5828 39.1542 52.5823 39.1556 52.5816 39.157C50.6747 42.4439 47.8233 45.1303 44.4512 46.8463V38.1025C44.4512 36.6712 43.2866 35.5065 41.8552 35.5065H29.3401C27.9086 35.5065 26.7442 36.6712 26.7442 38.1025V39.9244C26.7442 40.494 27.2059 40.9556 27.7754 40.9556C28.3449 40.9556 28.8066 40.494 28.8066 39.9244V38.1025C28.8066 37.8083 29.046 37.569 29.3401 37.569H41.8552C42.1494 37.569 42.3887 37.8083 42.3887 38.1025V48.4534C42.3887 48.7973 42.5602 49.1186 42.8457 49.31C43.1313 49.5014 43.4939 49.538 43.8118 49.4072C47.9069 47.7248 51.4311 44.7824 53.8324 41.0627L56.6628 42.6969C54.5441 46.0316 51.6499 48.8352 48.2408 50.8449ZM57.6943 40.9108L54.8633 39.2762C56.884 35.3369 57.6701 30.8137 57.0798 26.4262C57.034 26.0853 56.8212 25.7898 56.5126 25.6382C56.2041 25.4865 55.84 25.4989 55.5422 25.6706L46.5783 30.846C46.4551 30.9173 46.3114 30.9362 46.1736 30.8993C46.0361 30.8624 45.9212 30.7743 45.8499 30.6508L39.5921 19.812C39.5209 19.6888 39.5021 19.5451 39.5389 19.4074C39.5758 19.2699 39.664 19.1549 39.7874 19.0838L48.7513 13.9083C49.0491 13.7363 49.2416 13.4272 49.2646 13.0842C49.2875 12.7411 49.1379 12.4091 48.8657 12.199C45.3609 9.49396 41.0508 7.91315 36.6289 7.69343V4.42427C40.5761 4.59188 44.451 5.69668 47.8958 7.64434C51.7518 9.82437 54.9674 13.0163 57.1952 16.8749C59.4229 20.7335 60.5793 25.1142 60.5393 29.5437C60.5035 33.5006 59.5228 37.4087 57.6943 40.9108Z" fill="#4F6484"/>
</g>
<defs>
<clipPath id="clip0_0_120">
<rect width="70.4" height="70.4" fill="white" transform="translate(0.400085 0.399948)"/>
</clipPath>
</defs>
</svg>
