<svg width="65" height="64" viewBox="0 0 65 64" fill="none" xmlns="http://www.w3.org/2000/svg">
<g clip-path="url(#clip0_0_123)">
<path d="M63.3247 33.6613L63.2582 32.4806C63.1837 31.1593 61.7582 30.3035 60.557 30.8588C59.398 31.3945 58.2391 31.9304 57.0802 32.4663C54.8106 32.3536 53.124 31.7113 52.0688 30.5526C51.1473 29.541 50.9221 28.3489 50.8694 27.7343L57.5145 22.9486C57.6762 22.8321 57.7967 22.6671 57.8582 22.4773L64.3539 2.47706C64.5934 1.74007 63.7254 0.842947 62.9143 1.42682L55.2276 6.96266L49.8192 2.96568C47.2059 0.803072 41.5648 8.71278 40.5157 10.1325C39.3471 11.7139 33.6105 19.0715 36.3951 21.1293L41.9247 25.2158L39.011 34.1875C38.7368 35.0312 39.7312 35.7556 40.4505 35.2377L49.1757 28.954C49.3835 29.8034 49.8058 30.8408 50.656 31.786C52.0778 33.3664 54.2515 34.2266 57.116 34.3454L60.8223 35.5761C62.0751 35.9916 63.3987 34.9769 63.3247 33.6613ZM43.4626 24.0207L39.1003 20.7971C39.6616 20.4501 40.2046 20.0091 40.6705 19.6028C42.2294 18.243 44.0151 16.2399 45.6982 13.9622C47.3812 11.6846 48.772 9.38977 49.6143 7.50028C49.8659 6.93579 50.1285 6.28729 50.2956 5.64917L54.6574 8.87253C54.7525 9.63765 53.5881 12.8103 50.2506 17.3266C46.9132 21.8429 44.2219 23.8871 43.4626 24.0207ZM42.0238 11.2468C45.0967 7.08854 47.6215 5.0258 48.5953 4.62055C48.4937 5.67029 47.263 8.68953 44.1902 12.8478C41.1173 17.006 38.5923 19.0687 37.6186 19.474C37.7202 18.4241 38.9508 15.405 42.0238 11.2468ZM43.6801 25.8813C44.7096 25.7299 45.8557 24.8444 46.7307 24.0812C48.2898 22.7213 50.0753 20.7182 51.7583 18.4406C53.4413 16.1631 54.8321 13.8682 55.6744 11.9786C56.1714 10.8638 56.711 9.4219 56.4712 8.3779L61.686 4.6223L56.1699 21.6064L41.6792 32.0424L43.6801 25.8813ZM61.441 33.792C61.4283 33.8016 61.4217 33.7996 61.4135 33.7966L59.8171 33.2666L61.344 32.5608C61.367 32.5543 61.3811 32.5628 61.3862 32.586L61.4527 33.7666C61.4531 33.7754 61.4536 33.7825 61.441 33.792Z" fill="#F5F6F8"/>
<path d="M17.3672 29.5983C17.8635 29.5983 18.4055 29.4141 18.7294 29.0254L23.1192 23.7352L25.3364 24.5958V30.2709L23.9115 33.8714C23.4245 35.1019 24.3592 36.4771 25.6826 36.4771H26.8651C28.1885 36.4771 29.1233 35.102 28.6362 33.8714L27.2113 30.2709V25.3235L31.9131 27.1485C32.0236 27.1914 32.1384 27.212 32.2521 27.212C32.5273 27.212 32.7956 27.0907 32.9774 26.8688C33.2344 26.5553 33.2608 26.112 33.0427 25.7703L21.7318 8.04264C21.6245 7.87452 21.4665 7.74502 21.2806 7.67289L1.67699 0.0635627C1.29887 -0.0831864 0.869623 0.0296879 0.61275 0.343311C0.355751 0.656809 0.329376 1.10006 0.5475 1.4418L5.6426 9.42751L1.34825 14.6027C1.348 14.603 1.34775 14.6032 1.3475 14.6035C0.374751 15.7757 1.61449 17.6498 2.63149 18.9576C5.63435 22.8184 9.86495 26.3287 14.2124 28.5674C15.1668 29.0589 16.3722 29.5983 17.3672 29.5983ZM26.8898 34.589C26.881 34.602 26.874 34.602 26.8651 34.602H25.6826C25.659 34.5982 25.6497 34.5846 25.6549 34.5612L26.2738 32.9971L26.8928 34.5612C26.8961 34.5695 26.8987 34.5759 26.8898 34.589ZM27.2113 23.3122V20.1168L29.9213 24.3642L27.2113 23.3122ZM20.3161 9.30976L25.3364 17.1781V22.5843L23.8839 22.0204C23.7906 20.9841 22.9695 19.7896 22.2567 18.873C20.9866 17.24 19.0869 15.3446 16.9077 13.5364C14.7283 11.7279 12.5152 10.2104 10.6759 9.26326C9.59082 8.70426 8.18146 8.08452 7.12559 8.26526L3.66873 2.84792L20.3161 9.30976ZM2.93149 15.918C6.42484 16.4555 10.1364 20.0026 12.5894 22.2533C13.4827 23.0727 14.7502 21.6913 13.8572 20.8717C11.0633 18.3086 7.72933 15.4647 4.05385 14.2782L7.51708 10.1046C8.28445 10.0499 11.3889 11.3937 15.7102 14.9795C20.0319 18.5655 21.9217 21.3672 22.0125 22.1328L18.5493 26.3065C18.2343 25.7269 17.824 25.1602 17.4447 24.6723C16.7004 23.7154 15.2204 24.8667 15.9645 25.8234C16.7262 26.8027 17.0198 27.395 17.1329 27.7103C16.0802 27.541 13.1421 26.1408 9.17807 22.8516C5.1991 19.5496 3.28148 16.913 2.93149 15.918Z" fill="#F5F6F8"/>
<path d="M51.7071 37.669L29.3734 37.2069C29.173 37.2035 28.9785 37.2621 28.8154 37.3767L10.5304 50.2092C9.80439 50.7184 10.1629 51.8955 11.0495 51.9138L15.7652 52.0114L15.8415 57.7339L14.3361 61.3258C13.8227 62.5506 14.7329 63.949 16.0606 63.9756L17.251 63.9993C18.5471 64.0362 19.5297 62.6265 19.0802 61.4208L17.7171 57.7645L17.6408 52.0501L21.1568 52.1229L23.2909 59.1306C23.4011 59.4924 23.7177 59.7525 24.0938 59.7902C31.8648 60.5737 39.7708 58.1654 45.7862 53.1839C46.0773 52.9428 46.1952 52.5504 46.0851 52.1888L43.9509 45.1811L52.2261 39.3736C52.9523 38.8644 52.5938 37.6872 51.7071 37.669ZM17.319 62.1093C17.3077 62.1251 17.2975 62.1248 17.2885 62.1247L16.0984 62.101C16.0696 62.0957 16.0586 62.079 16.0655 62.0506L16.7264 60.4739L17.3235 62.0757C17.3266 62.0846 17.3301 62.0937 17.319 62.1093ZM39.3632 46.1158C38.3719 46.8134 39.4508 48.3465 40.4422 47.6493L42.3368 46.3162L44.1077 52.1312C41.405 54.2699 38.3629 55.8629 35.0569 56.8697C31.7505 57.8766 28.3372 58.2492 24.9009 57.9804L23.1301 52.1655L33.3866 52.3904C33.5871 52.394 33.783 52.335 33.9466 52.2199L36.3671 50.5167C37.3585 49.819 36.2795 48.2859 35.2881 48.9832L33.1388 50.4957L13.952 50.0985L16.4815 48.3233L31.5384 45.7152C32.7328 45.5083 32.4129 43.6607 31.2183 43.8678L20.0813 45.7969L29.6413 39.0878L48.8045 39.4845L39.3632 46.1158Z" fill="#F5F6F8"/>
<path d="M42.1499 62.1247C40.9434 62.1247 40.9414 63.9997 42.1499 63.9997C43.3564 63.9997 43.3584 62.1247 42.1499 62.1247Z" fill="#F5F6F8"/>
<path d="M53.5699 48.8123C52.3634 48.8123 52.3614 50.6873 53.5699 50.6873C54.7764 50.6873 54.7784 48.8123 53.5699 48.8123Z" fill="#F5F6F8"/>
<path d="M63.4943 56.9891C62.2878 56.9891 62.2858 58.8641 63.4943 58.8641C64.7007 58.8641 64.7027 56.9891 63.4943 56.9891Z" fill="#F5F6F8"/>
<path d="M16.782 36.4771C17.9885 36.4771 17.9905 34.6021 16.782 34.6021C15.5755 34.6021 15.5735 36.4771 16.782 36.4771Z" fill="#F5F6F8"/>
<path d="M1.30582 25.1249C0.0993174 25.1249 0.0973174 26.9999 1.30582 26.9999C2.51232 26.9999 2.51432 25.1249 1.30582 25.1249Z" fill="#F5F6F8"/>
<path d="M4.02518 57.4372C2.81868 57.4372 2.81668 59.3122 4.02518 59.3122C5.23168 59.3122 5.23368 57.4372 4.02518 57.4372Z" fill="#F5F6F8"/>
<path d="M5.90016 41.9373C4.69366 41.9373 4.69166 43.8123 5.90016 43.8123C7.10666 43.8123 7.10866 41.9373 5.90016 41.9373Z" fill="#F5F6F8"/>
<path d="M59.1498 39.6873C57.9433 39.6873 57.9413 41.5623 59.1498 41.5623C60.3563 41.5623 60.3583 39.6873 59.1498 39.6873Z" fill="#F5F6F8"/>
<path d="M34.775 31.9374C35.9815 31.9374 35.9835 30.0624 34.775 30.0624C33.5686 30.0624 33.5666 31.9374 34.775 31.9374Z" fill="#F5F6F8"/>
<path d="M30.775 12.9849C31.9815 12.9849 31.9835 11.1099 30.775 11.1099C29.5686 11.1099 29.5666 12.9849 30.775 12.9849Z" fill="#F5F6F8"/>
<path d="M22.6501 1.87508C23.8566 1.87508 23.8586 7.62939e-05 22.6501 7.62939e-05C21.4437 7.62939e-05 21.4417 1.87508 22.6501 1.87508Z" fill="#F5F6F8"/>
<path d="M38.65 5.93755C39.8565 5.93755 39.8585 4.06255 38.65 4.06255C37.4436 4.06255 37.4416 5.93755 38.65 5.93755Z" fill="#F5F6F8"/>
</g>
<defs>
<clipPath id="clip0_0_123">
<rect width="64" height="64" fill="white" transform="translate(0.400085 -6.10352e-05)"/>
</clipPath>
</defs>
</svg>
