<svg width="16" height="17" viewBox="0 0 16 17" fill="none" xmlns="http://www.w3.org/2000/svg">
<path opacity="0.4" d="M7.9987 15.1663C11.6806 15.1663 14.6654 12.1816 14.6654 8.49967C14.6654 4.81778 11.6806 1.83301 7.9987 1.83301C4.3168 1.83301 1.33203 4.81778 1.33203 8.49967C1.33203 12.1816 4.3168 15.1663 7.9987 15.1663Z" fill="#4B586E"/>
<path d="M10.4751 11.1202C10.3884 11.1202 10.3017 11.1002 10.2217 11.0468L8.15505 9.8135C7.64172 9.50684 7.26172 8.8335 7.26172 8.24017V5.50684C7.26172 5.2335 7.48839 5.00684 7.76172 5.00684C8.03505 5.00684 8.26172 5.2335 8.26172 5.50684V8.24017C8.26172 8.48017 8.46172 8.8335 8.66839 8.9535L10.7351 10.1868C10.9751 10.3268 11.0484 10.6335 10.9084 10.8735C10.8084 11.0335 10.6417 11.1202 10.4751 11.1202Z" fill="#4B586E"/>
</svg>
