<svg width="58" height="58" viewBox="0 0 58 58" fill="none" xmlns="http://www.w3.org/2000/svg">
<path d="M49.9001 46.2999V7.59995C49.8987 6.4069 49.4241 5.26313 48.5805 4.41952C47.7369 3.57591 46.5931 3.10135 45.4001 3.09995H9.4001C8.20705 3.10135 7.06328 3.57591 6.21967 4.41952C5.37606 5.26313 4.9015 6.4069 4.9001 7.59995V12.0999H12.1001V14.8456C10.1468 15.0225 8.29021 15.7761 6.76616 17.0105C5.2421 18.245 4.11939 19.9046 3.54065 21.7785C2.96191 23.6525 2.95327 25.6562 3.51583 27.535C4.07838 29.4139 5.18674 31.0831 6.7001 32.3307V44.4226L12.1001 39.0226V50.7999C12.1015 51.993 12.5761 53.1368 13.4197 53.9804C14.2633 54.824 15.4071 55.2985 16.6001 55.2999H49.0001C50.1931 55.2985 51.3369 54.824 52.1805 53.9804C53.0241 53.1368 53.4987 51.993 53.5001 50.7999V46.2999H49.9001ZM6.7001 10.2999V7.59995C6.7001 6.88386 6.98456 6.19711 7.49091 5.69076C7.99726 5.18441 8.68401 4.89995 9.4001 4.89995C10.1162 4.89995 10.8029 5.18441 11.3093 5.69076C11.8156 6.19711 12.1001 6.88386 12.1001 7.59995V10.2999H6.7001ZM4.9001 24.6999C4.9001 23.0979 5.37515 21.5319 6.26519 20.1998C7.15523 18.8678 8.42028 17.8296 9.90036 17.2165C11.3804 16.6035 13.0091 16.443 14.5803 16.7556C16.1516 17.0681 17.5949 17.8396 18.7277 18.9724C19.8605 20.1052 20.6319 21.5485 20.9445 23.1197C21.257 24.691 21.0966 26.3196 20.4835 27.7997C19.8705 29.2798 18.8323 30.5448 17.5002 31.4349C16.1682 32.3249 14.6021 32.7999 13.0001 32.7999C10.8526 32.7976 8.79369 31.9434 7.27516 30.4249C5.75663 28.9064 4.90248 26.8475 4.9001 24.6999ZM8.5001 33.5071C9.8914 34.2252 11.4344 34.6 13.0001 34.6C14.5658 34.6 16.1088 34.2252 17.5001 33.5071V40.0771L13.0001 35.5771L8.5001 40.0771V33.5071ZM19.3001 50.7999C19.3001 51.516 19.0156 52.2028 18.5093 52.7091C18.0029 53.2155 17.3162 53.4999 16.6001 53.4999C15.884 53.4999 15.1973 53.2155 14.6909 52.7091C14.1846 52.2028 13.9001 51.516 13.9001 50.7999V39.0226L19.3001 44.4226V32.3307C20.8134 31.0831 21.9218 29.4139 22.4844 27.535C23.0469 25.6562 23.0383 23.6525 22.4595 21.7785C21.8808 19.9046 20.7581 18.245 19.234 17.0105C17.71 15.7761 15.8534 15.0225 13.9001 14.8456V7.59995C13.9013 6.62579 13.5847 5.67783 12.9983 4.89995H45.4001C46.1159 4.90073 46.8022 5.18545 47.3084 5.69163C47.8146 6.1978 48.0993 6.8841 48.1001 7.59995V46.2999H19.3001V50.7999ZM51.7001 50.7999C51.6993 51.5158 51.4146 52.2021 50.9084 52.7083C50.4022 53.2144 49.7159 53.4992 49.0001 53.4999H20.1983C20.7847 52.7221 21.1013 51.7741 21.1001 50.7999V48.0999H51.7001V50.7999Z" fill="#F5F6F8"/>
<path d="M18.4001 8.49995H31.0001V10.3H18.4001V8.49995Z" fill="#F5F6F8"/>
<path d="M26.5001 16.5999H32.8001V18.3999H26.5001V16.5999Z" fill="#F5F6F8"/>
<path d="M26.5001 22H39.1001V23.8H26.5001V22Z" fill="#F5F6F8"/>
<path d="M26.5001 27.3999H39.1001V29.1999H26.5001V27.3999Z" fill="#F5F6F8"/>
<path d="M26.5001 32.8H39.1001V34.6H26.5001V32.8Z" fill="#F5F6F8"/>
<path d="M31.9001 40.8999H44.5001V42.6999H31.9001V40.8999Z" fill="#F5F6F8"/>
<path d="M41.8001 7.59995C41.0881 7.59995 40.392 7.81108 39.8 8.20665C39.208 8.60223 38.7466 9.16447 38.4741 9.82228C38.2016 10.4801 38.1303 11.2039 38.2692 11.9023C38.4082 12.6006 38.751 13.2421 39.2545 13.7455C39.758 14.249 40.3994 14.5919 41.0977 14.7308C41.7961 14.8697 42.5199 14.7984 43.1777 14.5259C43.8356 14.2534 44.3978 13.792 44.7934 13.2C45.1889 12.608 45.4001 11.912 45.4001 11.1999C45.3991 10.2455 45.0196 9.33032 44.3446 8.65539C43.6697 7.98046 42.7546 7.60087 41.8001 7.59995ZM41.8001 12.9999C41.4441 12.9999 41.0961 12.8944 40.8 12.6966C40.504 12.4988 40.2733 12.2177 40.1371 11.8888C40.0009 11.5599 39.9652 11.1979 40.0347 10.8488C40.1041 10.4996 40.2755 10.1789 40.5273 9.92715C40.779 9.67542 41.0997 9.50398 41.4489 9.43453C41.7981 9.36508 42.16 9.40072 42.4889 9.53696C42.8178 9.6732 43.0989 9.90391 43.2967 10.1999C43.4945 10.4959 43.6001 10.8439 43.6001 11.1999C43.5994 11.6771 43.4096 12.1346 43.0722 12.472C42.7347 12.8095 42.2773 12.9993 41.8001 12.9999Z" fill="#F5F6F8"/>
<path d="M13.0001 30.1C14.0681 30.1 15.1121 29.7833 16.0001 29.1899C16.8882 28.5965 17.5803 27.7532 17.989 26.7665C18.3977 25.7797 18.5047 24.694 18.2963 23.6465C18.0879 22.599 17.5736 21.6368 16.8184 20.8816C16.0632 20.1264 15.1011 19.6121 14.0536 19.4037C13.0061 19.1954 11.9203 19.3023 10.9336 19.711C9.94686 20.1197 9.10349 20.8119 8.51013 21.6999C7.91677 22.5879 7.60007 23.6319 7.60007 24.7C7.60164 26.1316 8.17107 27.5042 9.18343 28.5166C10.1958 29.529 11.5684 30.0984 13.0001 30.1ZM13.0001 21.1C13.7121 21.1 14.4081 21.3111 15.0001 21.7067C15.5921 22.1022 16.0536 22.6645 16.326 23.3223C16.5985 23.9801 16.6698 24.704 16.5309 25.4023C16.392 26.1006 16.0491 26.7421 15.5457 27.2455C15.0422 27.749 14.4007 28.0919 13.7024 28.2308C13.0041 28.3697 12.2802 28.2984 11.6224 28.0259C10.9646 27.7535 10.4023 27.292 10.0068 26.7C9.6112 26.108 9.40007 25.412 9.40007 24.7C9.401 23.7455 9.78058 22.8303 10.4555 22.1554C11.1304 21.4805 12.0456 21.1009 13.0001 21.1Z" fill="#F5F6F8"/>
</svg>
