<svg width="71" height="71" viewBox="0 0 71 71" fill="none" xmlns="http://www.w3.org/2000/svg">
<g clip-path="url(#clip0_0_95)">
<path d="M46.8642 33.825C47.6236 33.825 48.2392 33.2093 48.2392 32.45C48.2392 31.6906 47.6236 31.075 46.8642 31.075C46.1048 31.075 45.4892 31.6906 45.4892 32.45C45.4892 33.2093 46.1048 33.825 46.8642 33.825Z" fill="#FDFAFA"/>
<path d="M47.1002 38.3416C46.3495 38.23 45.6498 38.7491 45.5386 39.5003C45.1628 42.0378 43.0178 44.1424 39.8008 45.1302C36.3624 46.1861 31.5896 45.8321 28.678 42.6615C28.1643 42.1022 27.2945 42.0653 26.7353 42.5788C26.176 43.0925 26.139 43.9623 26.6525 44.5215C28.338 46.357 30.6272 47.608 33.2727 48.1391C34.2069 48.3267 35.176 48.4198 36.1514 48.4198C37.6582 48.4198 39.1797 48.1977 40.6081 47.7591C44.8637 46.4524 47.7239 43.5157 48.2589 39.9031C48.3701 39.152 47.8513 38.4528 47.1002 38.3416Z" fill="#FDFAFA"/>
<path d="M66.2112 26.1815C63.712 23.2842 60.2626 21.4057 56.1107 20.6512C60.0858 17.9686 63.5145 15.2989 65.9593 12.9694C69.6868 9.4176 70.9366 6.9217 69.893 5.11509C68.7317 3.10291 65.3793 3.1168 59.3422 5.15923C54.2414 6.88485 47.887 9.88194 41.4498 13.5986C40.3378 14.2404 39.2363 14.8977 38.1586 15.56C37.3593 13.3027 37.8864 10.7241 39.65 8.48824C40.971 6.81349 41.2659 4.68636 40.4199 2.93668C39.533 1.10284 37.5866 0.00490041 35.2099 -4.95911e-05H35.1452C26.7569 -4.95911e-05 18.5522 3.30971 12.0425 9.31956C5.52471 15.3368 1.53446 23.3025 0.806815 31.749C-0.068648 41.9212 3.18295 51.5922 9.96239 58.9802C16.6221 66.2377 26.0635 70.4 35.8657 70.4C41.143 70.4 46.0971 69.4344 50.5902 67.5299C54.6987 65.7885 58.3471 63.3019 61.4343 60.139C64.2966 57.2063 66.5534 53.8302 68.1419 50.1044C69.6536 46.5591 70.4794 42.8021 70.5306 39.2396C70.605 34.0588 69.1113 29.5435 66.2112 26.1815ZM38.3193 18.6983C39.7746 17.7805 41.2902 16.866 42.8246 15.9802C48.7764 12.5438 54.7032 9.71336 59.5134 8.01015C64.8085 6.13534 66.9765 6.25771 67.4819 6.49971C67.4382 6.81968 67.0408 8.24321 63.5661 11.4431C60.6646 14.1152 56.4275 17.2574 51.6355 20.2911C50.1206 21.2504 48.5441 22.2039 46.9498 23.1246C44.7518 24.3931 42.5555 25.5794 40.3999 26.6655C39.9698 25.4102 39.4186 24.1921 38.7477 23.03C38.0975 21.9037 37.3433 20.8463 36.5003 19.868C37.0969 19.477 37.704 19.0859 38.3193 18.6983ZM37.9087 27.8852C34.0261 29.7265 30.4635 31.1302 27.6185 31.9445C27.4704 31.2332 27.21 30.5457 26.8405 29.9052C26.4903 29.2982 26.051 28.7555 25.5432 28.2874C27.6731 26.2319 30.6709 23.8504 34.2008 21.4141C35.0203 22.33 35.7468 23.3318 36.3662 24.4047C37.0069 25.5143 37.5225 26.6814 37.9087 27.8852ZM67.7809 39.2001C67.5848 52.8825 55.3271 67.65 35.8657 67.65C26.8317 67.65 18.1289 63.8123 11.9887 57.121C5.73619 50.3074 2.73828 41.3804 3.54678 31.9849C4.93539 15.8647 19.1104 2.74995 35.1452 2.74995H35.207C36.5224 2.7527 37.5201 3.25705 37.944 4.13389C38.3339 4.93991 38.1645 5.93101 37.4907 6.78516C35.0126 9.92704 34.3911 13.7912 35.7912 17.0493C35.0541 17.5242 34.3296 18.0012 33.6296 18.4743C33.6263 18.4765 33.623 18.4787 33.6198 18.4809C29.2475 21.4313 25.5553 24.3659 23.0987 26.8356C21.2356 26.1988 19.1885 26.3844 17.4486 27.3887C14.5919 29.0389 10.8409 36.7285 10.118 38.2533C9.92444 38.6614 9.94383 39.1386 10.1696 39.5298C10.3955 39.921 10.7991 40.1764 11.2493 40.2129C12.0092 40.2745 14.1673 40.4302 16.5693 40.4302C19.484 40.4302 22.7576 40.2008 24.3237 39.2962C26.0202 38.3169 27.1961 36.6807 27.6034 34.7997C30.9753 33.9146 35.3809 32.1831 40.1524 29.8584C42.8259 28.5572 45.5753 27.093 48.3248 25.5062C49.7194 24.7007 51.0983 23.8704 52.4383 23.0329C52.4464 23.0333 52.4543 23.0345 52.4624 23.0348C63.9229 23.3634 67.8899 31.6008 67.7809 39.2001ZM25.0046 33.6008C24.9166 34.9837 24.1483 36.2223 22.9487 36.9147C21.6484 37.6659 17.1813 37.7671 13.5135 37.5993C15.2013 34.34 17.5221 30.5222 18.8239 29.7703C20.0528 29.0609 21.5387 29.0298 22.7993 29.6874C23.4921 30.0482 24.0658 30.5987 24.4585 31.2794C24.867 31.9875 25.0558 32.7903 25.0046 33.6008Z" fill="#FDFAFA"/>
<path d="M24.8643 8.50295C21.8316 8.50295 19.3643 10.9703 19.3643 14.003C19.3643 17.0357 21.8316 19.503 24.8643 19.503C27.897 19.503 30.3643 17.0357 30.3643 14.003C30.3643 10.9703 27.897 8.50295 24.8643 8.50295ZM24.8643 16.753C23.348 16.753 22.1143 15.5193 22.1143 14.003C22.1143 12.4866 23.348 11.253 24.8643 11.253C26.3807 11.253 27.6143 12.4866 27.6143 14.003C27.6143 15.5193 26.3807 16.753 24.8643 16.753Z" fill="#FDFAFA"/>
<path d="M17.9893 45.4506C14.9566 45.4506 12.4893 47.9179 12.4893 50.9506C12.4893 53.9833 14.9566 56.4506 17.9893 56.4506C21.022 56.4506 23.4893 53.9833 23.4893 50.9506C23.4893 47.9179 21.022 45.4506 17.9893 45.4506ZM17.9893 53.7006C16.473 53.7006 15.2393 52.4669 15.2393 50.9506C15.2393 49.4342 16.473 48.2006 17.9893 48.2006C19.5057 48.2006 20.7393 49.4342 20.7393 50.9506C20.7393 52.4669 19.5057 53.7006 17.9893 53.7006Z" fill="#FDFAFA"/>
<path d="M31.7393 53.7006C28.7066 53.7006 26.2393 56.1679 26.2393 59.2006C26.2393 62.2333 28.7066 64.7006 31.7393 64.7006C34.772 64.7006 37.2393 62.2333 37.2393 59.2006C37.2393 56.1679 34.772 53.7006 31.7393 53.7006ZM31.7393 61.9506C30.223 61.9506 28.9893 60.7169 28.9893 59.2006C28.9893 57.6842 30.223 56.4506 31.7393 56.4506C33.2557 56.4506 34.4893 57.6842 34.4893 59.2006C34.4893 60.7169 33.2557 61.9506 31.7393 61.9506Z" fill="#FDFAFA"/>
<path d="M48.2393 50.9506C45.2066 50.9506 42.7393 53.4179 42.7393 56.4506C42.7393 59.4833 45.2066 61.9506 48.2393 61.9506C51.272 61.9506 53.7393 59.4833 53.7393 56.4506C53.7393 53.4179 51.272 50.9506 48.2393 50.9506ZM48.2393 59.2006C46.723 59.2006 45.4893 57.9669 45.4893 56.4506C45.4893 54.9342 46.723 53.7006 48.2393 53.7006C49.7557 53.7006 50.9893 54.9342 50.9893 56.4506C50.9893 57.9669 49.7557 59.2006 48.2393 59.2006Z" fill="#FDFAFA"/>
<path d="M59.2393 37.2006C56.2066 37.2006 53.7393 39.6679 53.7393 42.7006C53.7393 45.7333 56.2066 48.2006 59.2393 48.2006C62.272 48.2006 64.7393 45.7333 64.7393 42.7006C64.7393 39.6679 62.272 37.2006 59.2393 37.2006ZM59.2393 45.4506C57.723 45.4506 56.4893 44.2169 56.4893 42.7006C56.4893 41.1842 57.723 39.9506 59.2393 39.9506C60.7557 39.9506 61.9893 41.1842 61.9893 42.7006C61.9893 44.2169 60.7557 45.4506 59.2393 45.4506Z" fill="#FDFAFA"/>
</g>
<defs>
<clipPath id="clip0_0_95">
<rect width="70.4" height="70.4" fill="white" transform="translate(0.400085 -4.57764e-05)"/>
</clipPath>
</defs>
</svg>
