<svg width="39" height="39" viewBox="0 0 39 39" fill="none" xmlns="http://www.w3.org/2000/svg">
<rect x="0.400391" y="0.400391" width="38.4" height="38.4" rx="19.2" fill="#E3A008"/>
<path d="M15.9348 13.7396C15.0644 13.7396 14.6292 13.3172 14.6292 12.4724C14.6292 11.6276 15.0388 11.2052 15.858 11.2052C16.7284 11.2052 17.1636 11.6276 17.1636 12.4724C17.1636 13.3172 16.754 13.7396 15.9348 13.7396ZM10.7124 28.6004C9.96999 28.6004 9.59879 28.2292 9.59879 27.4868C9.59879 27.026 9.75239 26.3988 10.0596 25.6052C10.7252 23.9668 11.3524 22.4564 11.9412 21.074C12.53 19.6916 13.0804 18.4372 13.5924 17.3108C13.6692 17.1828 13.7076 17.042 13.7076 16.8884C13.7076 16.53 13.5412 16.146 13.2084 15.7364L15.3204 15.698C16.0372 15.698 16.3956 15.8772 16.3956 16.2356C16.3956 16.338 16.37 16.4532 16.3188 16.5812C16.2676 16.6836 16.2036 16.8372 16.1268 17.042L12.594 25.2212C12.2356 26.066 12.0564 26.7828 12.0564 27.3716C12.0564 27.986 12.2484 28.3956 12.6324 28.6004H10.7124ZM15.5844 28.8692C16.0964 27.6148 16.7364 26.066 17.5044 24.2228C18.2724 22.3796 19.2068 20.2548 20.3076 17.8484C20.538 17.3364 20.7556 16.914 20.9604 16.5812C21.1652 16.2484 21.3572 15.9924 21.5364 15.8132C21.8948 15.4548 22.3556 15.2756 22.9188 15.2756C22.97 15.2756 23.0596 15.2756 23.1876 15.2756C23.3156 15.2756 23.4948 15.3012 23.7252 15.3524C24.0836 15.378 24.3524 15.378 24.5316 15.3524C23.5844 15.9156 22.1636 18.3988 20.2692 22.802C20.5764 22.3668 20.986 21.8932 21.498 21.3812C22.0356 20.8436 22.6628 20.2548 23.3796 19.6148C23.8404 19.1796 24.3524 18.77 24.9156 18.386C25.4788 17.9764 26.0932 17.5924 26.7588 17.234C28.2692 16.3892 29.3828 15.9668 30.0996 15.9668C30.2788 15.9668 30.4068 15.9796 30.4836 16.0052C30.074 16.722 29.69 17.4132 29.3316 18.0788C28.9988 18.7444 28.6788 19.3716 28.3716 19.9604C26.8868 22.8276 26.0548 24.8116 25.8756 25.9124C25.85 26.0916 25.8244 26.258 25.7988 26.4116C25.7988 26.5652 25.7988 26.706 25.7988 26.834C25.7988 27.4996 26.042 27.8324 26.5284 27.8324C27.322 27.8324 28.2692 27.026 29.37 25.4132L29.9076 25.7972C28.602 27.7684 27.2836 28.754 25.9524 28.754C24.3396 28.754 23.5332 27.922 23.5332 26.258C23.5332 24.9012 24.3652 22.8916 26.0292 20.2292C26.2852 19.8196 26.4132 19.474 26.4132 19.1924C26.4132 18.8852 26.2724 18.7316 25.9908 18.7316C25.7092 18.7316 25.338 18.8852 24.8772 19.1924C24.442 19.474 23.9172 19.8964 23.3028 20.4596C22.33 21.3556 21.4212 22.4308 20.5764 23.6852C19.7316 24.914 18.9636 26.322 18.2724 27.9092C18.1188 28.2932 17.722 28.5236 17.082 28.6004C16.2628 28.6772 15.7636 28.7668 15.5844 28.8692Z" fill="white"/>
</svg>
