<svg width="40" height="40" viewBox="0 0 40 40" fill="none" xmlns="http://www.w3.org/2000/svg">
<g id="Language">
<g id="Group">
<path id="Vector" d="M39.9344 30.6055L37.9686 24.9792C39.2993 22.6525 39.9999 20.0164 39.9999 17.3191C39.9999 8.80108 33.0699 1.87109 24.5519 1.87109C19.8875 1.87109 15.5705 3.91289 12.6352 7.48944C5.45561 8.81569 0 15.1224 0 22.68C0 25.3773 0.700702 28.0135 2.03132 30.3402L0.0656249 35.9664C-0.0729686 36.3631 0.0114844 36.8038 0.286953 37.1211C0.562421 37.4385 0.986795 37.5838 1.39914 37.5025L7.976 36.2024C10.2551 37.4635 12.8284 38.1279 15.448 38.1279C20.2263 38.1279 24.5045 35.947 27.3403 32.5286C28.9574 32.2184 30.5912 31.6302 32.0232 30.8413L38.6008 32.1415C39.013 32.2235 39.4374 32.0776 39.713 31.7601C39.9885 31.4428 40.073 31.0022 39.9344 30.6055ZM15.448 35.7842C13.0961 35.7842 10.789 35.1534 8.77592 33.9599C8.59381 33.8518 8.38717 33.796 8.17827 33.796C8.10248 33.796 8.02631 33.8033 7.951 33.8182L2.95359 34.8061L4.42444 30.5965C4.5414 30.2618 4.50054 29.8921 4.31319 29.591C3.02484 27.5199 2.34375 25.13 2.34375 22.68C2.34375 15.4543 8.22233 9.57577 15.448 9.57577C22.6737 9.57577 28.5523 15.4543 28.5523 22.68C28.5523 29.9057 22.6737 35.7842 15.448 35.7842ZM35.5755 25.2357L37.0463 29.4453L32.0489 28.4574C31.766 28.4011 31.4722 28.4518 31.224 28.5989C30.62 28.9571 29.9664 29.2724 29.2882 29.5364C30.3165 27.4692 30.896 25.1412 30.896 22.68C30.896 14.3994 24.3468 7.6203 16.1561 7.2489C18.4814 5.29765 21.4239 4.21484 24.5519 4.21484C31.7777 4.21476 37.6562 10.0934 37.6562 17.3191C37.6562 19.7692 36.9752 22.159 35.6867 24.2301C35.4994 24.5312 35.4585 24.901 35.5755 25.2357Z" fill="#4B586E"/>
<path id="Vector_2" d="M6.49414 19.8232C5.84695 19.8232 5.32227 20.3479 5.32227 20.9951V24.3654C5.32227 25.0125 5.84695 25.5372 6.49414 25.5372C7.14133 25.5372 7.66602 25.0125 7.66602 24.3654V20.9951C7.66602 20.3479 7.14141 19.8232 6.49414 19.8232Z" fill="#4B586E"/>
<path id="Vector_3" d="M10.9727 17.3613C10.3255 17.3613 9.80078 17.886 9.80078 18.5332V26.827C9.80078 27.4742 10.3255 27.9989 10.9727 27.9989C11.6198 27.9989 12.1445 27.4742 12.1445 26.827V18.5332C12.1445 17.886 11.6198 17.3613 10.9727 17.3613Z" fill="#4B586E"/>
<path id="Vector_4" d="M15.4473 19.8232C14.8001 19.8232 14.2754 20.3479 14.2754 20.9951V24.3654C14.2754 25.0125 14.8001 25.5372 15.4473 25.5372C16.0945 25.5372 16.6191 25.0125 16.6191 24.3654V20.9951C16.6191 20.3479 16.0945 19.8232 15.4473 19.8232Z" fill="#4B586E"/>
<path id="Vector_5" d="M19.9238 18.5244C19.2766 18.5244 18.752 19.0491 18.752 19.6963V25.6639C18.752 26.3111 19.2766 26.8358 19.9238 26.8358C20.571 26.8358 21.0957 26.3111 21.0957 25.6639V19.6963C21.0957 19.049 20.571 18.5244 19.9238 18.5244Z" fill="#4B586E"/>
<path id="Vector_6" d="M24.4004 20.7568C23.7532 20.7568 23.2285 21.2815 23.2285 21.9287V23.4321C23.2285 24.0793 23.7532 24.6039 24.4004 24.6039C25.0476 24.6039 25.5723 24.0793 25.5723 23.4321V21.9287C25.5723 21.2815 25.0477 20.7568 24.4004 20.7568Z" fill="#4B586E"/>
</g>
</g>
</svg>
