<svg width="17" height="16" viewBox="0 0 17 16" fill="none" xmlns="http://www.w3.org/2000/svg">
<path d="M13.7868 14.0867C13.6535 14.0867 13.5268 14.0333 13.4335 13.94L9.18016 9.68667C8.98682 9.49334 8.98682 9.17334 9.18016 8.98001L14.3335 3.82668C14.4602 3.70001 14.6535 3.65334 14.8268 3.70001C15.0002 3.75334 15.1335 3.89335 15.1735 4.06668C15.3001 4.63335 15.3668 5.26668 15.3668 6.00001V10C15.3668 11.8467 14.9802 13.0933 14.1402 13.94C14.0468 14.0333 13.9068 14.0533 13.7868 14.0867ZM10.2402 9.33334L13.7468 12.84C14.1668 12.1933 14.3668 11.2733 14.3668 10V6.00001C14.3668 5.72668 14.3602 5.47335 14.3402 5.23335L10.2402 9.33334Z" fill="#1B3865"/>
<path d="M4.38035 14.9867C4.34035 14.9867 4.30703 14.98 4.26703 14.9733C2.06036 14.4667 1.03369 12.8867 1.03369 10V6C1.03369 2.38 2.58036 0.833328 6.20036 0.833328H10.2004C13.087 0.833328 14.667 1.86 15.1737 4.06667C15.2137 4.23333 15.1604 4.41333 15.0404 4.53333L4.73368 14.84C4.64035 14.9333 4.51368 14.9867 4.38035 14.9867ZM6.20036 1.83333C3.12702 1.83333 2.03369 2.92666 2.03369 6V10C2.03369 12.3133 2.6737 13.4733 4.22703 13.9333L14.127 4.03333C13.6737 2.48 12.507 1.83999 10.1937 1.83999H6.20036V1.83333Z" fill="#1B3865"/>
<path d="M10.2 15.1667H6.19996C5.46662 15.1667 4.83996 15.1067 4.26663 14.9733C4.08663 14.9333 3.94661 14.8 3.89995 14.6267C3.84661 14.4533 3.89995 14.2667 4.02662 14.1333L9.17996 8.98001C9.37329 8.78667 9.69329 8.78667 9.88662 8.98001L14.14 13.2333C14.2333 13.3267 14.2866 13.4533 14.2866 13.5867C14.2866 13.72 14.2333 13.8467 14.14 13.94C13.2933 14.78 12.0466 15.1667 10.2 15.1667ZM5.43329 14.14C5.67329 14.16 5.92662 14.1667 6.19996 14.1667H10.2C11.48 14.1667 12.3933 13.9667 13.04 13.5467L9.53329 10.04L5.43329 14.14Z" fill="#1B3865"/>
<path d="M6.27999 8.87332C5.85999 8.87332 5.43999 8.71999 5.10665 8.40666C4.04665 7.39999 3.62 6.29333 3.87334 5.21333C4.12667 4.10666 5.09333 3.35999 6.27999 3.35999C7.46666 3.35999 8.43334 4.10666 8.68667 5.21333C8.93334 6.29999 8.50666 7.39999 7.44666 8.40666C7.11999 8.71332 6.69999 8.87332 6.27999 8.87332ZM4.84666 5.43332C4.63333 6.33999 5.24666 7.15333 5.79999 7.67999C6.07333 7.93999 6.49333 7.93999 6.75999 7.67999C7.30666 7.15999 7.91999 6.34665 7.71332 5.43332C7.53332 4.63999 6.82666 4.35332 6.27999 4.35332C5.73333 4.35332 5.03333 4.63999 4.84666 5.43332Z" fill="#1B3865"/>
<path d="M6.29997 6.32667C5.9333 6.32667 5.6333 6.02667 5.6333 5.66C5.6333 5.29333 5.92663 4.99333 6.29997 4.99333H6.30664C6.67331 4.99333 6.97331 5.29333 6.97331 5.66C6.97331 6.02667 6.66663 6.32667 6.29997 6.32667Z" fill="#1B3865"/>
</svg>
