<svg width="37" height="40" viewBox="0 0 37 40" fill="none" xmlns="http://www.w3.org/2000/svg">
<g clip-path="url(#clip0_1_2306)">
<path d="M19.1691 0C19.6637 0.307145 20.1519 0.623989 20.6563 0.918201C25.6935 3.84739 30.7306 6.77658 35.7743 9.69284C36.1073 9.88682 36.2204 10.1164 36.2237 10.4882C36.2301 16.5211 36.2431 22.5541 36.2722 28.5871C36.2722 29.03 36.0685 29.2208 35.7322 29.4115C29.7251 32.8742 23.7245 36.3401 17.7239 39.8092C17.6269 39.8641 17.5396 39.9353 17.4458 39.9999H17.0999C16.3466 39.5408 15.5997 39.0688 14.8335 38.6259C10.0711 35.8551 5.30552 33.0843 0.536695 30.3265C0.174587 30.1163 0.0484965 29.8706 0.0484965 29.4665C0.0420303 23.4497 0.0258648 17.4296 0 11.4128C0 11.0281 0.13579 10.8147 0.4591 10.6304C3.45942 8.91043 6.45327 7.17749 9.44712 5.45101C9.56028 5.38635 9.67991 5.27642 9.7866 5.28289C9.95149 5.29582 10.1843 5.35078 10.2522 5.46717C10.3201 5.58357 10.2522 5.81635 10.1746 5.95861C10.1131 6.06853 9.94825 6.12349 9.8254 6.19462C7.12899 7.74974 4.42935 9.3081 1.73294 10.8632C1.58745 10.9473 1.4452 11.0378 1.26091 11.151C3.02295 12.1759 4.73326 13.1684 6.44681 14.1642C9.93209 16.1914 13.4206 18.2153 16.9027 20.2489C17.1225 20.3782 17.2842 20.4041 17.5202 20.2683C23.2331 16.9608 28.9492 13.6599 34.6685 10.3589C34.7429 10.3168 34.814 10.2683 34.924 10.2004C34.7914 10.1164 34.6912 10.0452 34.5845 9.98382C29.4988 7.02553 24.4099 4.07371 19.3275 1.10572C19.0688 0.953765 18.8845 0.956998 18.6291 1.10572C16.9576 2.08535 15.2764 3.04881 13.5984 4.01551C13.4853 4.08017 13.3689 4.19657 13.2589 4.1901C13.0811 4.1804 12.8225 4.1416 12.7546 4.02198C12.6867 3.90559 12.774 3.65664 12.8613 3.50145C12.9227 3.39152 13.0941 3.34626 13.2169 3.2719C14.9822 2.25347 16.7475 1.23504 18.5127 0.216618C18.6227 0.151956 18.7197 0.0711282 18.8231 0C18.9395 0 19.0527 0 19.1691 0ZM17.7045 38.8489C17.9663 38.7002 18.1506 38.5968 18.3349 38.4901C23.9023 35.2731 29.4665 32.0562 35.0404 28.8522C35.341 28.6808 35.451 28.4966 35.4477 28.1506C35.4186 22.5476 35.4025 16.9479 35.3831 11.345C35.3831 11.2253 35.3701 11.1025 35.3637 10.944C35.1923 11.0346 35.0662 11.096 34.9434 11.1671C29.3145 14.4164 23.6857 17.6689 18.0504 20.9117C17.7562 21.0798 17.6333 21.2544 17.6333 21.61C17.6657 27.213 17.6851 32.8127 17.7045 38.4157C17.7045 38.5289 17.7045 38.642 17.7045 38.8489ZM0.850306 11.8752C0.840606 12.053 0.830907 12.1371 0.83414 12.2211C0.853539 17.8952 0.876171 23.5693 0.882637 29.2434C0.882637 29.5344 1.02813 29.6378 1.23504 29.7575C6.31101 32.7028 11.387 35.6546 16.463 38.6032C16.5761 38.6711 16.6957 38.7261 16.8477 38.8069C16.8542 38.6485 16.8639 38.5644 16.8606 38.4771C16.8477 32.816 16.8283 27.1581 16.8251 21.4969C16.8251 21.1994 16.699 21.0701 16.4662 20.9376C11.4613 18.0375 6.45974 15.1309 1.45813 12.2276C1.27708 12.1209 1.09279 12.0142 0.850306 11.8752Z" fill="#4B586E" stroke="#4B586E" stroke-width="0.5"/>
<path d="M18.9828 2.88379C19.1251 2.95168 19.2576 3.00018 19.3805 3.07131C23.202 5.28922 27.0268 7.51036 30.8483 9.7315C31.3527 10.0257 31.3527 10.3555 30.8418 10.6497C26.4319 13.1974 22.0155 15.7418 17.6055 18.296C17.3339 18.4544 17.1173 18.4415 16.8522 18.2863C13.0339 16.0587 9.20916 13.8408 5.38764 11.6196C4.85094 11.3093 4.85418 10.9924 5.38764 10.682C9.78789 8.14081 14.1881 5.59959 18.5884 3.06161C18.708 2.99048 18.8438 2.94522 18.9828 2.88379ZM29.956 10.2003C29.8299 10.1162 29.762 10.0645 29.6909 10.0225C26.2153 8.00179 22.7397 5.98757 19.2706 3.96041C19.0313 3.82139 18.8697 3.85695 18.6498 3.98304C14.8121 6.20418 10.9712 8.41886 7.13028 10.6368C6.84577 10.8017 6.56772 10.9665 6.26381 11.1444C6.34464 11.2058 6.3899 11.2446 6.4384 11.2737C9.94954 13.3138 13.4639 15.3506 16.9718 17.3972C17.2046 17.533 17.3598 17.4748 17.557 17.3616C19.2576 16.3755 20.9615 15.3927 22.6653 14.4098C25.0772 13.0196 27.4859 11.6261 29.956 10.2003Z" fill="#4B586E"/>
<path d="M11.1806 5.42824C11.0222 5.29568 10.8573 5.21809 10.8121 5.09846C10.7668 4.9756 10.7894 4.73312 10.8703 4.67492C11.2065 4.43891 11.5718 4.23199 11.9469 4.06387C12.0374 4.02184 12.2637 4.13176 12.3349 4.23846C12.4028 4.34191 12.4125 4.6038 12.3413 4.65876C11.9824 4.93357 11.5912 5.16312 11.1774 5.42824H11.1806Z" fill="#4B586E"/>
<path d="M33.7502 20.98C33.7502 23.033 33.7406 25.0893 33.7599 27.1423C33.7599 27.527 33.6242 27.7404 33.3008 27.928C28.9459 30.4304 24.5973 32.9457 20.2456 35.4546C19.6054 35.8232 19.3532 35.6809 19.35 34.947C19.3403 30.8377 19.3371 26.7285 19.3145 22.6224C19.3145 22.2409 19.447 22.0243 19.7703 21.84C24.1253 19.3376 28.4738 16.8223 32.8256 14.3101C33.4657 13.9416 33.7244 14.087 33.7244 14.821C33.7244 16.874 33.7244 18.9302 33.7244 20.9833H33.7502V20.98ZM20.21 34.4879C20.3393 34.4233 20.4428 34.3812 20.5366 34.3263C24.565 32.0017 28.5902 29.6738 32.6251 27.3557C32.887 27.207 32.9323 27.0324 32.929 26.7673C32.9096 23.0751 32.8967 19.3829 32.8805 15.6907C32.8805 15.5646 32.8708 15.4417 32.8611 15.2671C32.7157 15.3447 32.6025 15.3965 32.4958 15.4579C28.4932 17.7696 24.4906 20.0844 20.4848 22.3864C20.2294 22.5351 20.1324 22.6936 20.1357 22.991C20.1615 26.6961 20.1745 30.4045 20.1939 34.1096C20.1939 34.2196 20.2036 34.3295 20.2133 34.4847L20.21 34.4879Z" fill="#4B586E"/>
<path d="M15.1959 28.8037C15.1959 30.8438 15.1959 32.8839 15.1959 34.924C15.1959 35.6353 14.9373 35.7937 14.3359 35.4445C10.537 33.2395 6.74135 31.0313 2.94246 28.8296C2.65795 28.6647 2.54802 28.4578 2.54802 28.1345C2.54479 23.9832 2.53186 19.8319 2.52539 15.6806C2.52539 15.0889 2.8002 14.9337 3.3175 15.2344C7.12933 17.4458 10.9379 19.6605 14.753 21.8655C15.0569 22.0401 15.1571 22.2599 15.1571 22.5962C15.1474 24.6654 15.1507 26.7345 15.1507 28.8005C15.1668 28.8005 15.183 28.8005 15.2024 28.8005L15.1959 28.8037ZM14.3294 34.4746C14.3424 34.3388 14.3488 34.2806 14.3488 34.2256C14.3424 30.4494 14.3359 26.6731 14.3133 22.8969C14.3133 22.7417 14.1743 22.5218 14.0385 22.441C10.6211 20.4397 7.19722 18.4546 3.77013 16.4662C3.65374 16.3983 3.53412 16.3401 3.3757 16.2561C3.366 16.4436 3.35306 16.5567 3.35306 16.6731C3.36276 20.3783 3.37893 24.0834 3.37893 27.7885C3.37893 28.0601 3.48562 28.1927 3.70547 28.3188C6.40188 29.8771 9.09182 31.4419 11.785 33.0068C12.6127 33.4885 13.4436 33.967 14.3262 34.4811L14.3294 34.4746Z" fill="#4B586E"/>
<path d="M20.1469 9.32764C20.994 9.29208 21.7731 9.36967 22.4618 9.82877C23.3897 10.4463 23.3929 11.4874 22.4747 12.1307C22.4036 12.1792 22.3292 12.2245 22.2549 12.2665C21.4725 12.7192 20.6868 13.1621 19.9109 13.6277C19.6458 13.7861 19.4259 13.7861 19.1543 13.6277C17.25 12.5122 15.336 11.4065 13.4285 10.2976C12.908 9.99366 12.9015 9.68328 13.4091 9.38584C14.2142 8.91381 15.0127 8.43531 15.8339 7.99237C16.8394 7.44598 17.8934 7.42658 18.9506 7.82425C19.6199 8.07643 20.1016 8.51613 20.1437 9.33088L20.1469 9.32764ZM14.2724 9.81907C15.0192 10.2555 15.6561 10.6338 16.306 10.9992C16.3965 11.0509 16.5646 11.0638 16.6519 11.0153C17.4279 10.5821 18.2006 10.1456 18.9539 9.67682C19.4097 9.39554 19.3903 9.02373 18.9312 8.74245C18.4366 8.43854 17.887 8.36418 17.3179 8.40944C16.154 8.49997 15.349 9.33411 14.2724 9.82231V9.81907ZM17.3244 11.594C18.0486 12.0144 18.7211 12.412 19.4065 12.7903C19.4906 12.8356 19.6555 12.8 19.7525 12.745C20.4637 12.3474 21.1783 11.9497 21.8669 11.5165C22.0609 11.3936 22.3034 11.1285 22.2872 10.9474C22.271 10.7567 22.0092 10.5207 21.7958 10.4204C21.0198 10.0486 20.2019 10.0389 19.4291 10.4075C18.7211 10.7437 18.0583 11.1737 17.3244 11.594Z" fill="#4B586E"/>
<path d="M28.1893 25.4249C27.1547 26.0198 26.1557 26.5823 25.1729 27.174C25.0338 27.2581 24.9271 27.4456 24.8722 27.6105C24.5974 28.409 24.3484 29.2173 24.0865 30.0224C24.0477 30.1452 24.0251 30.3036 23.941 30.3715C23.8214 30.4653 23.6242 30.5591 23.5013 30.5203C23.3785 30.4847 23.2686 30.2972 23.2233 30.1549C23.191 30.0515 23.2589 29.906 23.3009 29.7831C24.1738 27.0673 25.0468 24.3515 25.9197 21.6389C25.9294 21.6131 25.9359 21.5807 25.952 21.5613C26.0846 21.4126 26.2107 21.1637 26.3594 21.1475C26.5114 21.1313 26.7441 21.3124 26.8379 21.4676C27.7141 22.9322 28.5676 24.4097 29.4276 25.884C29.544 26.0812 29.6572 26.2817 29.7736 26.4789C29.9158 26.7214 29.932 26.9638 29.6733 27.1158C29.4212 27.2645 29.2078 27.1578 29.0623 26.9056C28.781 26.4239 28.4965 25.9422 28.1926 25.4249H28.1893ZM25.3539 26.1006C26.2301 25.593 26.9899 25.1501 27.769 24.6974C27.3455 23.97 26.9478 23.291 26.5081 22.5377C26.1202 23.7372 25.758 24.8591 25.3539 26.1006Z" fill="#4B586E"/>
<path d="M7.15588 24.1708C7.19468 26.4534 8.71424 28.4385 10.8804 28.9914C11.1455 29.0593 11.3557 29.1725 11.3072 29.4796C11.2555 29.8094 10.9968 29.874 10.7155 29.8191C9.86522 29.6542 9.11838 29.2533 8.47499 28.6875C6.89077 27.294 6.16009 25.5449 6.40904 23.4305C6.58363 21.9497 7.70551 21.2675 9.10868 21.7622C9.89432 22.0402 10.5571 22.509 11.1423 23.0975C11.346 23.3011 11.4624 23.5372 11.2264 23.7732C10.9936 24.006 10.7867 23.8637 10.5539 23.6956C9.96222 23.2753 9.38026 22.8129 8.72394 22.5252C7.98033 22.1987 7.4404 22.5608 7.26581 23.3593C7.20761 23.6245 7.19145 23.896 7.15588 24.1676V24.1708Z" fill="#4B586E"/>
</g>
<defs>
<clipPath id="clip0_1_2306">
<rect width="36.2689" height="39.9999" fill="white"/>
</clipPath>
</defs>
</svg>
