<svg width="41" height="41" viewBox="0 0 41 41" fill="none" xmlns="http://www.w3.org/2000/svg">
<g id="Modo_de_isolamento" clip-path="url(#clip0_1_2327)">
<path id="Vector" d="M20.8937 0.0908203C21.5751 0.324193 22.1165 0.716259 22.3561 1.42882C22.6642 2.34364 22.2597 3.30825 21.3915 3.78433C21.2733 3.84967 21.1052 3.98347 21.1052 4.08616C21.0866 5.37126 21.0928 6.65637 21.0928 7.98504C24.6992 8.24019 27.6428 9.75244 29.9423 12.5031C29.9734 12.4782 30.0107 12.4627 30.0076 12.4502C29.9174 11.7283 30.2628 11.2242 30.77 10.7575C31.495 10.0854 32.1827 9.37283 32.8672 8.66026C32.9792 8.54513 33.057 8.35221 33.0633 8.1904C33.0882 7.68321 33.057 7.17601 33.0788 6.66882C33.0913 6.38877 33.0197 6.2363 32.749 6.1025C31.9306 5.69799 31.5417 4.78316 31.7626 3.89635C31.968 3.06554 32.7552 2.44944 33.6202 2.43699C34.5133 2.42455 35.285 3.00331 35.5308 3.87146C35.7859 4.76761 35.3783 5.69487 34.5133 6.12739C34.3048 6.23319 34.2363 6.34832 34.2395 6.56924C34.2519 7.12934 34.2301 7.68943 34.2488 8.24641C34.2643 8.73494 34.0901 9.12078 33.7416 9.45995C32.9575 10.2223 32.1858 10.9971 31.4265 11.7812C31.299 11.9119 31.2647 12.1328 31.1901 12.3164C31.1807 12.3382 31.1901 12.3693 31.1901 12.3942C31.1185 13.558 31.2305 14.6657 31.775 15.7486C32.2822 16.7598 32.4689 17.8956 32.5529 19.0313C32.5623 19.1714 32.5903 19.3114 32.6152 19.5043C32.9046 19.5043 33.1846 19.5043 33.4678 19.5043C34.4324 19.5043 35.3939 19.5136 36.3585 19.495C36.4954 19.495 36.6945 19.4047 36.7505 19.2958C37.1706 18.5024 37.8116 18.0698 38.7078 18.1445C39.6008 18.2192 40.1827 18.7326 40.4409 19.6008C40.4503 19.635 40.4845 19.663 40.5063 19.6941V20.4751C40.2542 21.1784 39.8528 21.7416 39.0905 21.9594C38.1819 22.2177 37.2764 21.8162 36.8066 20.973C36.735 20.8423 36.5576 20.6929 36.4269 20.6898C35.2165 20.6681 34.0061 20.6774 32.7957 20.6805C32.7459 20.6805 32.6961 20.6961 32.6276 20.7054C32.5498 21.2499 32.5281 21.8038 32.3818 22.3203C32.0862 23.3534 31.7128 24.3647 31.3861 25.3884C31.3021 25.6529 31.2181 25.9298 31.2025 26.2068C31.1745 26.7389 31.1714 27.2741 31.2025 27.8061C31.2149 28.0146 31.3083 28.2604 31.4483 28.4098C32.2044 29.2002 32.9792 29.9718 33.7634 30.7342C34.1025 31.0671 34.2643 31.4436 34.2488 31.9166C34.2332 32.4767 34.2519 33.0368 34.2426 33.5969C34.2395 33.8147 34.2924 33.9361 34.5071 34.045C35.3628 34.4713 35.7766 35.3799 35.5463 36.2605C35.3192 37.1317 34.5506 37.7354 33.6638 37.7385C32.7801 37.7416 31.9773 37.1255 31.7626 36.2791C31.5323 35.3612 31.9368 34.465 32.8143 34.0325C33.0352 33.9236 33.0788 33.7992 33.0757 33.5844C33.0664 33.0648 33.0913 32.5421 33.0633 32.0224C33.0539 31.8388 32.9668 31.6179 32.8392 31.4872C32.1733 30.7902 31.4981 30.1056 30.798 29.4398C30.297 28.9637 29.8614 28.4845 29.9672 27.6879C29.9018 27.7501 29.8334 27.8093 29.768 27.8715C29.0773 28.5218 28.402 29.1877 27.6895 29.8132C27.2538 30.1959 26.8742 30.1772 26.6408 29.8536C26.4106 29.5331 26.5164 29.2375 26.98 28.8859C29.2888 27.1527 30.7202 24.8657 31.2616 22.0372C32.3382 16.4145 28.6541 10.7637 23.0718 9.45373C16.7272 7.96637 10.5786 12.1702 9.66065 18.6206C8.79873 24.6852 13.3324 30.4044 19.4281 30.9582C21.1052 31.1107 22.7202 30.8991 24.304 30.3421C24.528 30.2643 24.8672 30.2674 25.0601 30.3826C25.4553 30.6253 25.3246 31.2383 24.8299 31.3752C23.831 31.6521 22.8166 31.8731 21.8054 32.1064C21.5907 32.1562 21.3666 32.1562 21.1208 32.1811C21.1084 32.29 21.0866 32.3896 21.0866 32.4892C21.0866 33.6342 21.0866 34.7793 21.0804 35.9275C21.0804 36.1422 21.1301 36.2698 21.3448 36.3787C22.2099 36.8143 22.6113 37.6949 22.3872 38.5911C22.1632 39.481 21.3853 40.0847 20.4767 40.0784C19.5899 40.0691 18.8275 39.4623 18.6066 38.588C18.3826 37.6949 18.7933 36.8268 19.6459 36.3631C19.7548 36.304 19.8979 36.1764 19.8979 36.08C19.9135 34.7949 19.9104 33.5098 19.9104 32.1842C16.3009 31.9291 13.3542 30.4168 11.0547 27.6599C11.0204 27.6972 10.9893 27.7159 10.9924 27.7315C11.0764 28.416 10.7746 28.9139 10.283 29.3682C9.55486 30.0372 8.86719 30.7529 8.18574 31.4654C8.05194 31.6055 7.95548 31.8357 7.94303 32.0317C7.9088 32.5358 7.94925 33.0461 7.92436 33.5533C7.91191 33.8147 8.00215 33.9361 8.23552 34.0512C9.06322 34.465 9.4584 35.3519 9.24681 36.248C9.04766 37.0944 8.24797 37.726 7.36738 37.7323C6.47745 37.7385 5.70576 37.1473 5.46617 36.2791C5.22346 35.3954 5.63109 34.4713 6.47434 34.0481C6.69526 33.9361 6.77306 33.8178 6.76372 33.5751C6.74505 33.0679 6.78239 32.5576 6.75127 32.0535C6.71393 31.4592 6.92864 31.0111 7.35804 30.6035C8.1235 29.8785 8.86096 29.1255 9.59531 28.3662C9.71355 28.2418 9.74467 28.0333 9.81312 27.8622C9.81623 27.8497 9.81312 27.8373 9.81312 27.8248C9.87847 26.6362 9.78201 25.5004 9.2188 24.3927C8.7116 23.397 8.53424 22.2705 8.45023 21.1472C8.44089 21.0041 8.416 20.8641 8.39111 20.6712C8.11106 20.6712 7.84346 20.6712 7.57275 20.6712C6.59569 20.6712 5.61864 20.6774 4.64159 20.6681C4.42377 20.6681 4.29931 20.7241 4.19351 20.9357C3.75788 21.7976 2.87107 22.1959 1.97491 21.9687C1.10366 21.754 0.5 20.9886 0.5 20.0986C0.5 19.19 1.10366 18.4183 1.99981 18.1974C2.88974 17.9765 3.76099 18.3935 4.2184 19.2492C4.27441 19.3549 4.4051 19.4981 4.50156 19.4981C5.78978 19.5136 7.07488 19.5105 8.34132 19.5105C8.49068 18.6828 8.5778 17.8769 8.78939 17.1052C9.00721 16.3087 9.35571 15.5463 9.63265 14.7622C9.71666 14.5226 9.79756 14.2705 9.8069 14.0216C9.82557 13.3588 9.98737 12.6183 9.75089 12.0519C9.50818 11.4732 8.86096 11.0624 8.38799 10.5801C8.0146 10.2005 7.6412 9.81468 7.25225 9.45062C6.90686 9.12701 6.74505 8.74739 6.7575 8.27131C6.77306 7.69877 6.75127 7.12623 6.76683 6.55368C6.77306 6.33898 6.70149 6.23941 6.50857 6.14295C5.62486 5.69799 5.21413 4.76449 5.48173 3.8559C5.74622 2.95041 6.59258 2.36854 7.52918 2.44633C8.44711 2.52412 9.17213 3.24291 9.29659 4.19507C9.39927 4.97297 8.96676 5.76333 8.2013 6.13984C7.9897 6.24252 7.92436 6.36076 7.93058 6.5848C7.94925 7.20713 7.78434 7.89791 7.99904 8.43933C8.21063 8.96209 8.80495 9.33549 9.23125 9.768C9.55174 10.0916 9.8598 10.4277 10.199 10.7326C10.7248 11.2056 11.148 11.7128 10.9955 12.5218C13.3417 9.78356 16.2729 8.25264 19.8606 8.00371C19.8793 7.92903 19.9073 7.86679 19.9104 7.80767C19.9135 6.59725 19.9197 5.38682 19.9073 4.1764C19.9073 4.06438 19.8139 3.90257 19.7175 3.84967C18.924 3.43272 18.4884 2.79483 18.563 1.89557C18.6408 0.983859 19.176 0.405095 20.0535 0.149941C20.0753 0.143718 20.0909 0.115713 20.1095 0.100155C20.3709 0.100155 20.6292 0.100155 20.8905 0.100155L20.8937 0.0908203ZM20.5171 2.82284C20.9341 2.8135 21.2764 2.46189 21.2795 2.04804C21.2795 1.61863 20.9154 1.25768 20.486 1.26702C20.0535 1.27635 19.705 1.64975 19.7237 2.07915C19.7423 2.493 20.1033 2.83217 20.5171 2.82284ZM2.45099 20.8703C2.86484 20.8703 3.21957 20.528 3.23202 20.1111C3.24446 19.6817 2.88662 19.3114 2.45411 19.3114C2.02159 19.3114 1.66375 19.6786 1.6762 20.108C1.68553 20.5249 2.03715 20.8672 2.45411 20.8672L2.45099 20.8703ZM39.3301 20.0737C39.3208 19.6568 38.9691 19.3145 38.5522 19.3145C38.1197 19.3145 37.7618 19.6786 37.7712 20.1111C37.7805 20.528 38.1321 20.8703 38.5491 20.8703C38.9785 20.8703 39.3394 20.5031 39.3301 20.0737ZM21.2795 38.1368C21.2795 37.7229 20.9341 37.3713 20.5171 37.362C20.0877 37.3526 19.7206 37.7105 19.7237 38.143C19.7237 38.56 20.0691 38.9085 20.486 38.9178C20.9154 38.9271 21.2826 38.5662 21.2826 38.1368H21.2795ZM6.58013 35.8062C6.58636 36.2324 6.9193 36.5716 7.34248 36.5747C7.77189 36.5778 8.13595 36.2107 8.12973 35.7813C8.1235 35.3612 7.78123 35.0251 7.35804 35.0189C6.90997 35.0158 6.57391 35.355 6.58013 35.803V35.8062ZM6.58013 4.39732C6.58013 4.83606 6.90686 5.15034 7.35182 5.15034C7.78434 5.15034 8.12973 4.81428 8.12973 4.3911C8.12973 3.96169 7.75633 3.59763 7.32693 3.61008C6.90063 3.62253 6.57702 3.96481 6.58013 4.39732ZM34.4199 4.38488C34.4199 3.95236 34.0839 3.61319 33.6576 3.61008C33.2282 3.60386 32.8579 3.97725 32.8672 4.40666C32.8766 4.82984 33.2282 5.16278 33.6576 5.15656C34.0994 5.15034 34.4199 4.82673 34.4168 4.38799L34.4199 4.38488ZM34.4199 35.803C34.4262 35.3612 34.115 35.0407 33.6669 35.0314C33.2251 35.0189 32.8828 35.3363 32.8703 35.7657C32.8579 36.1982 33.222 36.5716 33.6514 36.5716C34.0776 36.5716 34.4137 36.2356 34.4199 35.803Z" fill="#4B586E" stroke="#4B586E" stroke-width="0.4"/>
<path id="Vector_2" d="M20.5007 26.0759C19.5952 27.1494 18.4625 27.5975 17.1152 27.4264C15.855 27.2677 14.9153 26.6205 14.3552 25.4505C14.2805 25.2949 14.1249 25.1455 13.9693 25.0678C12.454 24.3241 11.4303 23.1852 11.2653 21.4676C11.2062 20.8453 11.4209 20.1949 11.5049 19.5571C11.5236 19.4139 11.5734 19.2397 11.5143 19.1245C10.6181 17.2949 11.7756 15.0856 14.0907 14.6905C14.2338 14.6656 14.4112 14.5753 14.4828 14.4602C15.7865 12.3598 18.6741 12.086 20.3357 13.9157C20.3793 13.9623 20.4229 14.0121 20.482 14.0775C20.5349 14.037 20.5878 14.0059 20.6251 13.9592C22.2058 12.0767 25.3766 12.3723 26.5248 14.4758C26.5839 14.5815 26.7582 14.6687 26.8889 14.6873C28.4198 14.9269 29.5835 16.0036 29.7391 17.4723C29.792 17.9888 29.5866 18.5333 29.5026 19.0654C29.4808 19.1961 29.4248 19.3517 29.4684 19.4606C30.3988 21.6854 29.2132 24.0845 27.0133 25.074C26.8764 25.1362 26.727 25.2607 26.6679 25.3945C25.6193 27.6722 22.5077 28.1887 20.7683 26.3684C20.6874 26.2844 20.6096 26.1942 20.4976 26.0728L20.5007 26.0759ZM14.1747 23.8418C14.573 23.375 14.9028 22.9301 15.2949 22.5442C15.5718 22.2704 15.9421 22.3295 16.1537 22.6002C16.356 22.8585 16.3124 23.1697 16.0386 23.431C15.9079 23.5555 15.7648 23.6737 15.6559 23.8169C15.2731 24.3116 15.2607 24.7255 15.5936 25.2513C16.135 26.1102 17.249 26.4929 18.3132 26.1911C19.3618 25.8955 19.9126 25.1549 19.9126 24.0316C19.9126 22.8087 19.9126 21.5827 19.9126 20.3599C19.9126 20.2416 19.9095 20.1265 19.9188 20.0082C19.9499 19.6442 20.1895 19.4015 20.5069 19.4046C20.8243 19.4108 21.0545 19.6535 21.0794 20.0238C21.0888 20.1389 21.0825 20.2572 21.0825 20.3754C21.0825 21.6387 21.0888 22.9021 21.0825 24.1654C21.0794 24.8375 21.3377 25.3758 21.8636 25.7865C22.6664 26.412 23.9266 26.4804 24.7574 25.8923C25.7282 25.2047 26.0394 24.3365 24.9721 23.4404C24.913 23.3906 24.8538 23.3346 24.8103 23.2723C24.6174 22.9861 24.7232 22.594 25.0343 22.4384C25.305 22.3015 25.5633 22.3669 25.7469 22.5753C26.1109 22.983 26.447 23.4155 26.8142 23.8636C27.5205 23.4902 28.0931 22.9176 28.4136 22.1024C28.8803 20.9199 28.5193 19.2272 27.1907 18.8258C26.864 18.7262 26.7551 18.3777 26.8733 18.0884C26.9978 17.7803 27.3058 17.6372 27.6481 17.7679C27.9499 17.883 28.23 18.0479 28.5193 18.1879C28.8865 17.2171 27.9001 15.96 26.7675 15.904C26.5341 16.2867 26.3412 16.6726 26.0829 17.0055C25.8869 17.2638 25.582 17.2824 25.3144 17.0833C25.0499 16.8842 25.0125 16.6103 25.1681 16.3178C25.2428 16.1809 25.3735 16.0658 25.4139 15.9227C25.4824 15.6831 25.5944 15.3937 25.5197 15.1883C25.1806 14.2548 24.0075 13.7165 22.8811 13.9281C21.8138 14.1273 21.1043 14.9301 21.0794 15.9724C21.0732 16.2712 21.0794 16.5699 21.0794 16.8717C21.0794 17.5656 20.9207 17.827 20.5038 17.8332C20.0775 17.8394 19.9095 17.5718 19.9063 16.8904C19.9063 16.5637 19.953 16.2307 19.8939 15.9164C19.8192 15.5306 19.7352 15.1043 19.5143 14.7963C18.7053 13.6667 16.8663 13.5703 15.8892 14.5629C15.2887 15.1759 15.2607 15.4839 15.743 16.2027C15.9764 16.5512 15.9452 16.8966 15.659 17.0989C15.3851 17.2918 15.0366 17.2327 14.8126 16.9028C14.5948 16.5854 14.4268 16.2338 14.2307 15.8915C13.0141 16.0378 12.0495 17.2949 12.4851 18.1817C12.762 18.0417 13.0327 17.883 13.3221 17.771C13.6955 17.6278 14.0378 17.799 14.1405 18.1413C14.2276 18.4369 14.0751 18.7231 13.7111 18.8694C13.0545 19.1308 12.6531 19.6099 12.4758 20.279C12.093 21.7196 12.8678 23.2786 14.1685 23.8387L14.1747 23.8418Z" fill="#4B586E"/>
<path id="Vector_3" d="M16.543 18.0826C16.6208 17.703 16.6612 17.4199 16.7421 17.1491C16.851 16.7913 17.128 16.6419 17.4578 16.726C17.7565 16.8037 17.9432 17.0807 17.8561 17.4167C17.7347 17.8897 17.7721 18.3284 17.9619 18.7796C18.0895 19.0815 17.9525 19.346 17.6538 19.486C17.3489 19.6291 17.0564 19.5389 16.9257 19.2495C16.7483 18.8543 16.6519 18.4249 16.543 18.0826Z" fill="#4B586E"/>
<path id="Vector_4" d="M24.4529 18.0854C24.3502 18.4215 24.2568 18.8229 24.1012 19.1994C23.9674 19.5199 23.6438 19.6164 23.3576 19.495C23.0526 19.3643 22.9157 19.0531 23.0589 18.7202C23.2362 18.3095 23.2642 17.905 23.1522 17.4693C23.0557 17.0959 23.2175 16.8159 23.5256 16.7288C23.8648 16.6323 24.1541 16.791 24.2631 17.1706C24.3408 17.4413 24.3782 17.7245 24.4498 18.0854H24.4529Z" fill="#4B586E"/>
<path id="Vector_5" d="M18.1856 23.0357C18.0798 23.378 17.9803 23.8043 17.8185 24.2088C17.6846 24.5386 17.3424 24.6507 17.0437 24.5231C16.7543 24.3955 16.6142 24.0626 16.7636 23.7358C16.9565 23.3158 17.0001 22.905 16.8974 22.4538C16.8165 22.096 17.0125 21.8128 17.333 21.7444C17.6286 21.679 17.9118 21.8471 18.0114 22.18C18.0861 22.4258 18.1172 22.6841 18.1856 23.0388V23.0357Z" fill="#4B586E"/>
<path id="Vector_6" d="M22.8086 23.0611C22.8864 22.6815 22.9206 22.3983 23.0108 22.1307C23.1135 21.8196 23.3656 21.6764 23.6861 21.7542C24.0035 21.832 24.1902 22.0747 24.1155 22.3921C23.9941 22.8993 24.0688 23.3567 24.2679 23.8266C24.3924 24.1191 24.2555 24.3773 23.9817 24.508C23.6954 24.6449 23.3811 24.5983 23.2442 24.2964C23.0544 23.8795 22.9393 23.4283 22.8148 23.0611H22.8086Z" fill="#4B586E"/>
</g>
<defs>
<clipPath id="clip0_1_2327">
<rect width="40.0063" height="40.0001" fill="white" transform="translate(0.5 0.0908203)"/>
</clipPath>
</defs>
</svg>
