<svg width="70" height="71" viewBox="0 0 70 71" fill="none" xmlns="http://www.w3.org/2000/svg">
<g id="vuesax/linear/translate">
<g id="translate">
<path id="Vector" d="M55.5888 54.5146L49.3471 42.0605L43.1055 54.5146" stroke="white" stroke-width="4.375" stroke-linecap="round" stroke-linejoin="round"/>
<path id="Vector_2" d="M44.2461 52.2979H54.5128" stroke="white" stroke-width="4.375" stroke-linecap="round" stroke-linejoin="round"/>
<path id="Vector_3" d="M49.3499 64.226C41.1832 64.226 34.5332 57.6051 34.5332 49.4093C34.5332 41.2426 41.154 34.5928 49.3499 34.5928C57.5165 34.5928 64.1665 41.2135 64.1665 49.4093C64.1665 57.6051 57.5457 64.226 49.3499 64.226Z" stroke="white" stroke-width="4.375" stroke-linecap="round" stroke-linejoin="round"/>
<path id="Vector_4" d="M14.6423 5.89258H26.0757C32.1132 5.89258 35.0298 8.8093 34.884 14.701V26.1343C35.0298 32.1718 32.1132 35.0885 26.0757 34.9426H14.6423C8.75066 35.0593 5.83398 32.1426 5.83398 26.1051V14.6718C5.83398 8.80927 8.75066 5.89258 14.6423 5.89258Z" stroke="white" stroke-width="4.375" stroke-linecap="round" stroke-linejoin="round"/>
<g id="Group">
<path id="Vector_5" d="M26.2772 17.1211H14.4355" stroke="white" stroke-width="4.375" stroke-linecap="round" stroke-linejoin="round"/>
<path id="Vector_6" d="M20.3242 15.1387V17.122" stroke="white" stroke-width="4.375" stroke-linecap="round" stroke-linejoin="round"/>
<path id="Vector_7" d="M23.3021 17.0928C23.3021 22.1969 19.3062 26.3386 14.4062 26.3386" stroke="white" stroke-width="4.375" stroke-linecap="round" stroke-linejoin="round"/>
<path id="Vector_8" d="M26.2786 26.3384C24.1495 26.3384 22.2245 25.2009 20.8828 23.3926" stroke="white" stroke-width="4.375" stroke-linecap="round" stroke-linejoin="round"/>
</g>
<g id="Group_2">
<path id="Vector_9" d="M5.83203 43.8105C5.83203 55.098 14.9612 64.2272 26.2487 64.2272L23.1862 59.123" stroke="white" stroke-width="4.375" stroke-linecap="round" stroke-linejoin="round"/>
<path id="Vector_10" d="M64.1647 26.3102C64.1647 15.0227 55.0355 5.89355 43.748 5.89355L46.8106 10.9977" stroke="white" stroke-width="4.375" stroke-linecap="round" stroke-linejoin="round"/>
</g>
</g>
</g>
</svg>
