<svg width="32" height="32" viewBox="0 0 32 32" fill="none" xmlns="http://www.w3.org/2000/svg">
<path opacity="0.4" d="M21.588 2.66699H10.4146C5.5613 2.66699 2.66797 5.56033 2.66797 10.4137V21.5737C2.66797 26.4403 5.5613 29.3337 10.4146 29.3337H21.5746C26.428 29.3337 29.3213 26.4403 29.3213 21.587V10.4137C29.3346 5.56033 26.4413 2.66699 21.588 2.66699Z" fill="#D08763"/>
<path d="M12.1328 16V14.0267C12.1328 11.48 13.9328 10.4533 16.1328 11.72L17.8395 12.7067L19.5461 13.6933C21.7461 14.96 21.7461 17.04 19.5461 18.3067L17.8395 19.2933L16.1328 20.28C13.9328 21.5467 12.1328 20.5067 12.1328 17.9733V16Z" fill="#D08763"/>
</svg>
