<svg width="36" height="36" viewBox="0 0 36 36" fill="none" xmlns="http://www.w3.org/2000/svg">
<g id="vuesax/bulk/voice-square">
<g id="voice-square">
<path id="Vector" opacity="0.4" d="M24.2856 3H11.7306C6.27062 3 3.01562 6.255 3.01562 11.715V24.27C3.01562 29.73 6.27062 32.985 11.7306 32.985H24.2856C29.7456 32.985 33.0006 29.73 33.0006 24.27V11.715C33.0006 6.255 29.7456 3 24.2856 3Z" fill="#35527F"/>
<g id="Group">
<g id="Group_2">
<path id="Vector_2" d="M9 22.3354C8.385 22.3354 7.875 21.8254 7.875 21.2104V14.7754C7.875 14.1604 8.385 13.6504 9 13.6504C9.615 13.6504 10.125 14.1604 10.125 14.7754V21.2104C10.125 21.8404 9.615 22.3354 9 22.3354Z" fill="#35527F"/>
</g>
<g id="Group_3">
<path id="Vector_3" d="M13.5 24.4796C12.885 24.4796 12.375 23.9696 12.375 23.3546V12.6445C12.375 12.0295 12.885 11.5195 13.5 11.5195C14.115 11.5195 14.625 12.0295 14.625 12.6445V23.3546C14.625 23.9846 14.115 24.4796 13.5 24.4796Z" fill="#35527F"/>
</g>
<g id="Group_4">
<path id="Vector_4" d="M18 26.625C17.385 26.625 16.875 26.115 16.875 25.5V10.5C16.875 9.885 17.385 9.375 18 9.375C18.615 9.375 19.125 9.885 19.125 10.5V25.5C19.125 26.115 18.615 26.625 18 26.625Z" fill="#35527F"/>
</g>
<g id="Group_5">
<path id="Vector_5" d="M22.5 24.4796C21.885 24.4796 21.375 23.9696 21.375 23.3546V12.6445C21.375 12.0295 21.885 11.5195 22.5 11.5195C23.115 11.5195 23.625 12.0295 23.625 12.6445V23.3546C23.625 23.9846 23.115 24.4796 22.5 24.4796Z" fill="#35527F"/>
</g>
<g id="Group_6">
<path id="Vector_6" d="M27 22.3354C26.385 22.3354 25.875 21.8254 25.875 21.2104V14.7754C25.875 14.1604 26.385 13.6504 27 13.6504C27.615 13.6504 28.125 14.1604 28.125 14.7754V21.2104C28.125 21.8404 27.615 22.3354 27 22.3354Z" fill="#35527F"/>
</g>
</g>
</g>
</g>
</svg>
