<svg width="16" height="17" viewBox="0 0 16 17" fill="none" xmlns="http://www.w3.org/2000/svg">
<g id="vuesax/bulk/clock">
<g id="clock">
<path id="Vector" opacity="0.4" d="M8.00065 15.2845C11.6825 15.2845 14.6673 12.2997 14.6673 8.61784C14.6673 4.93594 11.6825 1.95117 8.00065 1.95117C4.31875 1.95117 1.33398 4.93594 1.33398 8.61784C1.33398 12.2997 4.31875 15.2845 8.00065 15.2845Z" fill="white"/>
<path id="Vector_2" d="M10.4731 11.2383C10.3864 11.2383 10.2998 11.2183 10.2198 11.165L8.1531 9.93167C7.63977 9.625 7.25977 8.95167 7.25977 8.35833V5.625C7.25977 5.35167 7.48643 5.125 7.75977 5.125C8.0331 5.125 8.25977 5.35167 8.25977 5.625V8.35833C8.25977 8.59833 8.45977 8.95167 8.66643 9.07167L10.7331 10.305C10.9731 10.445 11.0464 10.7517 10.9064 10.9917C10.8064 11.1517 10.6398 11.2383 10.4731 11.2383Z" fill="white"/>
</g>
</g>
</svg>
