<svg width="62" height="49" viewBox="0 0 62 49" fill="none" xmlns="http://www.w3.org/2000/svg">
<path d="M60.5798 16.9156C60.0831 15.9971 58.4797 14.5558 57.1316 13.4961C56.1667 12.7471 54.4781 11.4895 52.8037 10.7406C53.3571 5.56892 49.4123 3.35045 46.3331 2.10697C42.7572 0.693937 39.5077 0.45372 35.946 0.298286C24.4663 -0.182147 8.98505 3.32219 1.53531 10.995L0.300781 12.2526L3.80571 13.2417C1.57788 16.958 0.85419 21.0841 0.641341 24.0373C0.357541 28.0221 0.91095 31.3851 1.59207 32.9677L2.38671 34.8329L3.46515 33.109C3.70638 32.7134 4.16045 32.1482 4.61453 31.5406C5.25308 32.7558 12.7028 42.4492 20.1242 45.5155L21.8128 46.2079L21.5999 44.4133C21.4297 43.0144 21.3161 42.0253 21.2168 41.1633C22.7351 42.0536 24.7501 43.0992 26.5097 43.9046C30.1565 45.5862 35.5629 47.6492 40.6855 47.9601L42.8991 48.1014L41.2672 45.8122C42.97 46.1655 44.8431 46.4481 46.6452 46.6035L49.242 46.8438L47.5534 44.8655C46.8439 44.0318 46.3473 43.3394 45.879 42.6188C47.227 43.0286 48.4474 43.3536 48.5325 43.3818L50.959 44.0318L49.7245 41.8557C46.8439 36.7405 46.1202 34.9601 45.4391 32.5014C47.0426 31.5123 49.9799 30.9047 52.1084 31.159C52.6618 31.7384 53.5416 32.8123 53.7402 33.2079L54.393 34.4514L55.4146 33.4905C61.119 28.0786 61.6724 18.8797 60.5798 16.9156Z" fill="#C6B784"/>
<path d="M59.6574 17.4243C58.9763 16.195 54.5348 12.408 51.6401 11.4189C52.5624 6.58631 49.3697 4.46676 45.9641 3.11024C42.6153 1.78198 39.5218 1.5135 35.9176 1.35807C25.1758 0.920029 9.73708 4.09937 2.31573 11.7439L5.49428 12.6624C0.55617 19.6145 1.35081 29.7177 2.59953 32.5721C3.1955 31.6112 4.79897 29.6754 5.45171 28.8699C5.38076 29.2797 5.6078 31.1308 5.6078 31.1308C5.77808 31.5971 13.1427 41.5025 20.564 44.5688C20.2519 41.9688 20.11 40.7253 20.039 39.1145C20.337 39.5525 31.3342 46.3633 40.7564 46.9427L38.7556 44.1166C40.728 44.7101 43.7363 45.3036 46.7445 45.572C45.1978 43.7492 44.6728 42.5905 43.2112 40.5275C44.7863 41.3188 48.8163 42.3786 48.8163 42.3786C45.6661 36.7688 45.0275 35.0732 44.2471 32.0775C46.0208 30.5656 49.9799 29.7319 52.6334 30.1699C53.13 30.6221 54.3929 32.1058 54.7051 32.7275C60.225 27.4428 60.3811 18.7526 59.6574 17.4243Z" fill="#12284C"/>
<path d="M38.2872 13.6235C37.223 12.7615 34.9242 11.9844 33.7606 11.9844C33.3349 13.0724 33.491 14.1746 34.087 15.0224C34.683 15.8702 36.3006 16.2518 37.2797 15.955C36.2439 15.5735 35.3215 14.1887 35.6195 13.1855C36.8824 13.355 37.4358 13.5105 38.2872 13.6235Z" fill="white"/>
<path d="M57.1045 19.0352C56.8207 18.5689 56.4943 18.145 56.1396 17.7634C54.6638 16.1526 52.734 15.2624 50.7616 14.4145C50.5203 15.1069 50.1372 16.1102 49.4703 17.0711C49.4561 17.0852 49.3284 17.1276 49.1013 17.1982C48.1364 17.495 47.1431 17.6928 46.1924 17.8765H46.1782C46.0221 17.9048 45.8376 17.933 45.6815 17.9613C46.164 17.4526 46.6181 16.9015 47.0154 16.3222C46.0221 16.4352 45.043 16.8308 44.1207 17.2689C40.1616 19.1058 36.004 22.2428 32.9531 25.3232C33.8187 22.7939 35.8479 20.0667 37.423 18.3145C33.6626 17.5091 30.2429 15.1069 28.313 11.7863C29.5759 11.3341 30.8814 10.995 32.2153 10.7689C31.4064 10.1754 30.5834 9.59609 29.7746 9.00261C32.3997 9.29935 35.0107 9.695 37.5081 10.5146C40.2468 11.4189 42.8152 12.8461 45.043 14.6689C45.6957 13.6374 46.6039 12.0265 46.235 10.4015C46.9728 10.7689 47.6256 11.32 48.0938 11.9841C48.6473 8.93196 46.5897 6.74175 43.2267 5.72436C40.6299 4.94719 24.4392 2.09286 8.88694 11.0374L10.9729 11.532C8.22001 14.6548 5.72257 18.145 5.29688 23.2319C6.33274 21.8471 7.9504 19.4591 8.98627 18.0602C8.6599 20.3493 8.47543 26.7645 8.74504 27.6265C9.01465 28.5025 14.3217 35.2992 16.8191 37.6025C15.4427 32.4167 15.8826 27.4569 15.9394 26.9482C19.1747 34.1688 24.354 37.8145 30.853 40.2449C28.7387 37.9982 27.9299 36.8253 26.0142 33.1232C28.8806 35.1438 36.9263 39.4818 39.4805 39.8351C37.6075 37.4188 36.0324 34.5645 34.9255 31.3851C37.2953 33.4482 39.069 34.7764 40.3319 35.3982C38.8136 32.8547 37.7068 30.0427 37.1108 27.146C38.7852 27.8384 41.3394 28.4884 42.5598 28.658C45.27 26.8634 48.2216 26.9199 50.2791 27.0895C48.7892 25.846 47.2283 24.8286 45.3126 24.4189C42.7868 23.8678 40.1758 23.9102 37.5791 23.9667C41.7793 21.6634 49.2432 22.6384 49.5696 22.7373C49.9244 22.8645 53.1739 25.0265 54.9192 27.6547C57.3457 22.6384 57.3741 19.4591 57.1045 19.0352Z" fill="white"/>
<path d="M35.0684 15.7431C35.7779 16.054 36.6577 16.1529 37.2962 15.9551C36.2746 15.5736 35.338 14.1888 35.636 13.1855C35.2387 13.0725 34.7988 13.0301 34.3873 12.9453C33.9616 13.9627 34.3305 15.0507 35.0684 15.7431Z" fill="#C6B784"/>
<path d="M55.4159 19.8412C53.9401 18.1597 51.9393 17.2271 50.0662 16.0967C49.896 16.4217 49.6973 16.7608 49.4703 17.0858C49.4561 17.0999 49.3284 17.1423 49.1013 17.213C48.1364 17.5097 47.1431 17.7075 46.1924 17.8912H46.1782C46.0221 17.9195 45.8376 17.9478 45.6815 17.976C46.164 17.4673 46.6181 16.9162 47.0154 16.3369C46.0221 16.4499 45.043 16.8456 44.1206 17.2836C40.2326 19.0923 36.2594 21.763 32.9531 25.3379C34.3863 26.101 38.7426 28.4184 42.5597 28.6727C45.27 26.8782 48.2215 26.9347 50.2791 27.1042C48.7891 25.8608 47.2282 24.8434 45.3126 24.4336C42.7868 23.8825 40.1758 23.9249 37.5791 23.9814C41.7793 21.6782 49.2432 22.6532 49.5696 22.7521C49.9243 22.8651 53.1597 25.1119 54.9192 27.6695C55.2314 25.0836 55.5861 22.3847 55.4159 19.8412Z" fill="#C6B784"/>
</svg>
