<svg width="24" height="25" viewBox="0 0 24 25" fill="none" xmlns="http://www.w3.org/2000/svg">
<path opacity="0.4" d="M20.5 11.1783H17.61C15.24 11.1783 13.31 9.24828 13.31 6.87828V3.98828C13.31 3.43828 12.86 2.98828 12.31 2.98828H8.07C4.99 2.98828 2.5 4.98828 2.5 8.55828V17.4183C2.5 20.9883 4.99 22.9883 8.07 22.9883H15.93C19.01 22.9883 21.5 20.9883 21.5 17.4183V12.1783C21.5 11.6283 21.05 11.1783 20.5 11.1783Z" fill="#4B7E73"/>
<path d="M15.7997 3.19876C15.3897 2.78876 14.6797 3.06876 14.6797 3.63876V7.12876C14.6797 8.58876 15.9197 9.79876 17.4297 9.79876C18.3797 9.80876 19.6997 9.80876 20.8297 9.80876C21.3997 9.80876 21.6997 9.13876 21.2997 8.73876C19.8597 7.28876 17.2797 4.67876 15.7997 3.19876Z" fill="#4B7E73"/>
<path d="M13.5 14.7383H7.5C7.09 14.7383 6.75 14.3983 6.75 13.9883C6.75 13.5783 7.09 13.2383 7.5 13.2383H13.5C13.91 13.2383 14.25 13.5783 14.25 13.9883C14.25 14.3983 13.91 14.7383 13.5 14.7383Z" fill="#4B7E73"/>
<path d="M11.5 18.7383H7.5C7.09 18.7383 6.75 18.3983 6.75 17.9883C6.75 17.5783 7.09 17.2383 7.5 17.2383H11.5C11.91 17.2383 12.25 17.5783 12.25 17.9883C12.25 18.3983 11.91 18.7383 11.5 18.7383Z" fill="#4B7E73"/>
</svg>
