<svg width="16" height="17" viewBox="0 0 16 17" fill="none" xmlns="http://www.w3.org/2000/svg">
<g id="vuesax/bulk/location">
<g id="location">
<path id="Vector" opacity="0.4" d="M13.7467 6.25182C13.0467 3.17182 10.3601 1.78516 8.00006 1.78516C8.00006 1.78516 8.00006 1.78516 7.9934 1.78516C5.64006 1.78516 2.94673 3.16516 2.24673 6.24516C1.46673 9.68516 3.5734 12.5985 5.48006 14.4318C6.18673 15.1118 7.0934 15.4518 8.00006 15.4518C8.90673 15.4518 9.8134 15.1118 10.5134 14.4318C12.4201 12.5985 14.5267 9.69182 13.7467 6.25182Z" fill="white"/>
<path id="Vector_2" d="M8.00039 9.5916C9.16019 9.5916 10.1004 8.6514 10.1004 7.4916C10.1004 6.3318 9.16019 5.3916 8.00039 5.3916C6.84059 5.3916 5.90039 6.3318 5.90039 7.4916C5.90039 8.6514 6.84059 9.5916 8.00039 9.5916Z" fill="white"/>
</g>
</g>
</svg>
