<svg width="25" height="25" viewBox="0 0 25 25" fill="none" xmlns="http://www.w3.org/2000/svg">
<g id="more">
<path id="Vector" d="M14.666 5.625C14.666 4.525 13.766 3.625 12.666 3.625C11.566 3.625 10.666 4.525 10.666 5.625C10.666 6.725 11.566 7.625 12.666 7.625C13.766 7.625 14.666 6.725 14.666 5.625ZM14.666 19.625C14.666 18.525 13.766 17.625 12.666 17.625C11.566 17.625 10.666 18.525 10.666 19.625C10.666 20.725 11.566 21.625 12.666 21.625C13.766 21.625 14.666 20.725 14.666 19.625Z" stroke="#4C525F" stroke-opacity="0.6" stroke-width="1.5"/>
<path id="Vector_2" opacity="0.4" d="M14.666 12.625C14.666 11.525 13.766 10.625 12.666 10.625C11.566 10.625 10.666 11.525 10.666 12.625C10.666 13.725 11.566 14.625 12.666 14.625C13.766 14.625 14.666 13.725 14.666 12.625Z" stroke="#4C525F" stroke-opacity="0.6" stroke-width="1.5"/>
</g>
</svg>
