<svg width="205" height="505" viewBox="0 0 205 505" fill="none" xmlns="http://www.w3.org/2000/svg">
<path d="M205 504.451C203.344 439.184 205 309.917 204.606 305.877H190.253C190.017 284.808 189.78 237.204 189.78 237.204C189.78 237.204 190.726 174.313 168.172 123.54C145.618 72.768 104.295 63.1839 104.295 63.1839C104.847 63.1839 101.377 55.0255 107.607 55.0255C105.872 54.6294 97.5131 55.2631 97.5131 54.867C97.5131 42.5106 97.3553 12.57 97.3553 12.57V1.71853C97.5131 1.32249 97.6708 0.926419 97.9074 0.451172H49.5658C49.8813 1.08484 50.1178 1.63932 50.4333 2.27298V13.1245C50.4333 13.1245 50.1967 42.9858 50.1967 55.4215C50.1967 55.8967 41.7586 55.1839 40.1025 55.5799C46.3325 55.5799 42.7838 63.7383 43.4147 63.7383C43.4147 63.7383 4.85189 71.4215 -21.4875 123.54C-47.9058 175.738 -43.5685 284.966 -43.9628 306.115L-57.2114 306.273C-57.6846 310.313 -56.1862 439.105 -58 504.451H-29.9256V447.976C-29.9256 447.976 -27.0078 431.421 -9.42189 431.421C8.16402 431.421 12.5013 447.976 12.5013 447.976V504.451H44.9919V430.867H104.532V504.451H134.183V447.976C134.183 447.976 137.022 431.421 154.687 431.421C172.273 431.421 176.61 447.976 176.61 447.976V504.451H205ZM-23.9322 263.342C-23.9322 263.342 -22.2761 252.728 -12.182 252.728C-2.08784 252.728 0.356838 263.342 0.356838 263.342V300.649H-23.9322V263.342ZM4.77301 396.887H-30.2411V349.837C-30.2411 349.837 -27.7964 336.61 -13.2861 336.61C1.22428 336.61 4.77301 349.837 4.77301 349.837V396.887ZM0.908859 176.451C0.514557 178.669 0.120239 181.52 -0.274063 184.134H-13.5226C-12.9706 181.6 -12.4974 178.59 -11.9454 175.501C-10.3682 166.392 -8.47557 160.689 -8.47557 160.689H5.00961C5.08847 160.689 1.85519 170.748 0.908859 176.451ZM118.017 161.243C118.017 161.243 119.436 166.233 120.619 175.263C121.014 178.431 121.329 181.52 121.566 184.134H106.661C106.03 180.016 105.163 175.263 104.453 172.57C102.954 166.867 102.481 161.243 102.481 161.243H118.017ZM66.2842 161.243H81.5832L81.1889 184.134H66.1266L66.2842 161.243ZM60.0543 263.105C60.0543 263.105 63.3664 252.332 73.3817 252.332C83.4759 252.332 87.4189 263.105 87.4189 263.105V300.57H60.0543V263.105ZM26.9328 175.818C28.1158 166.788 29.5352 161.798 29.5352 161.798H45.1496C45.1496 161.798 44.5976 167.421 43.0993 173.124C42.3895 175.818 41.6798 180.253 41.0489 184.214H26.1442C26.3019 181.679 26.5385 178.827 26.9328 175.818ZM18.1005 263.105C18.1005 263.105 19.7565 252.491 29.8507 252.491C39.9448 252.491 42.3895 263.105 42.3895 263.105V300.57H18.1005V263.105ZM62.4201 396.887H27.406V349.362C27.406 349.362 29.7718 336.134 44.2822 336.134C58.7925 336.134 62.3412 349.362 62.3412 349.362L62.4201 396.887ZM120.067 396.887H85.0531V349.362C85.0531 349.362 87.4189 336.134 101.929 336.134C116.44 336.134 119.988 349.362 119.988 349.362L120.067 396.887ZM129.452 300.57H105.163V263.105C105.163 263.105 106.819 252.491 116.913 252.491C126.928 252.491 129.452 263.105 129.452 263.105V300.57ZM171.405 263.105V300.57H147.116V263.105C147.116 263.105 148.772 252.491 158.867 252.491C168.961 252.491 171.405 263.105 171.405 263.105ZM156.106 161.402C156.106 161.402 157.999 167.025 159.576 176.214C160.049 179.144 160.602 181.837 160.996 184.214H147.826C147.511 181.837 147.195 179.223 146.801 177.164C145.776 171.382 142.621 161.481 142.621 161.481H156.106V161.402ZM142.779 396.887V349.362C142.779 349.362 145.145 336.134 159.655 336.134C174.166 336.134 177.714 349.362 177.714 349.362V396.887H142.779Z" fill="#F9FAFB"/>
</svg>
