<svg width="37" height="40" viewBox="0 0 37 40" fill="none" xmlns="http://www.w3.org/2000/svg">
<g filter="url(#filter0_bd_1107_22767)">
<path opacity="0.5" d="M18.5463 32.2117C26.4958 32.2117 32.9402 25.7673 32.9402 17.8178C32.9402 9.86821 26.4958 3.42383 18.5463 3.42383C10.5967 3.42383 4.15234 9.86821 4.15234 17.8178C4.15234 25.7673 10.5967 32.2117 18.5463 32.2117Z" fill="white"/>
<path d="M22.8655 15.2703L18.6912 12.8665C17.6549 12.2619 16.4026 12.2619 15.3662 12.8665C14.3299 13.471 13.7109 14.5362 13.7109 15.7453V20.5673C13.7109 21.7619 14.3299 22.8415 15.3662 23.446C15.8844 23.7483 16.4602 23.8923 17.0215 23.8923C17.5973 23.8923 18.1587 23.7483 18.6768 23.446L22.8511 21.0423C23.8875 20.4377 24.5064 19.3726 24.5064 18.1635C24.5352 16.9544 23.9162 15.8748 22.8655 15.2703Z" fill="white"/>
</g>
<defs>
<filter id="filter0_bd_1107_22767" x="-72.0888" y="-72.8642" width="181.365" height="181.364" filterUnits="userSpaceOnUse" color-interpolation-filters="sRGB">
<feFlood flood-opacity="0" result="BackgroundImageFix"/>
<feGaussianBlur in="BackgroundImageFix" stdDeviation="36.7045"/>
<feComposite in2="SourceAlpha" operator="in" result="effect1_backgroundBlur_1107_22767"/>
<feColorMatrix in="SourceAlpha" type="matrix" values="0 0 0 0 0 0 0 0 0 0 0 0 0 0 0 0 0 0 127 0" result="hardAlpha"/>
<feOffset dy="3.45455"/>
<feGaussianBlur stdDeviation="1.72727"/>
<feComposite in2="hardAlpha" operator="out"/>
<feColorMatrix type="matrix" values="0 0 0 0 0 0 0 0 0 0 0 0 0 0 0 0 0 0 0.25 0"/>
<feBlend mode="normal" in2="effect1_backgroundBlur_1107_22767" result="effect2_dropShadow_1107_22767"/>
<feBlend mode="normal" in="SourceGraphic" in2="effect2_dropShadow_1107_22767" result="shape"/>
</filter>
</defs>
</svg>
