<svg width="36" height="36" viewBox="0 0 36 36" fill="none" xmlns="http://www.w3.org/2000/svg">
<g id="vuesax/bulk/video-square">
<g id="video-square">
<path id="Vector" opacity="0.4" d="M24.285 3H11.715C6.255 3 3 6.255 3 11.715V24.27C3 29.745 6.255 33 11.715 33H24.27C29.73 33 32.985 29.745 32.985 24.285V11.715C33 6.255 29.745 3 24.285 3Z" fill="#D08763"/>
<path id="Vector_2" d="M13.6504 17.9993V15.7793C13.6504 12.9143 15.6754 11.7593 18.1504 13.1843L20.0704 14.2943L21.9904 15.4043C24.4654 16.8293 24.4654 19.1693 21.9904 20.5943L20.0704 21.7043L18.1504 22.8143C15.6754 24.2393 13.6504 23.0693 13.6504 20.2193V17.9993Z" fill="#D08763"/>
</g>
</g>
</svg>
