<svg width="146" height="150" viewBox="0 0 146 150" fill="none" xmlns="http://www.w3.org/2000/svg">
<path opacity="0.05" d="M71 133.339C71 157.382 58.2477 179.499 36.94 195.766C15.6279 212.037 -14.0327 222.245 -47 222.245C-79.9673 222.245 -109.628 212.037 -130.94 195.766C-152.248 179.499 -165 157.382 -165 133.339C-165 109.297 -152.248 87.1798 -130.94 70.9122C-109.628 54.6413 -79.9673 44.4337 -47 44.4337C-14.0327 44.4337 15.6279 54.6413 36.94 70.9122C58.2477 87.1798 71 109.297 71 133.339Z" stroke="url(#paint0_linear_1_1787)" stroke-width="10"/>
<path opacity="0.1" d="M108 135.611C108 166.147 91.8796 194.133 65.1438 214.645C38.403 235.161 1.24568 247.993 -40 247.993C-81.2457 247.993 -118.403 235.161 -145.144 214.645C-171.88 194.133 -188 166.147 -188 135.611C-188 105.075 -171.88 77.0877 -145.144 56.5759C-118.403 36.0603 -81.2457 23.2285 -40 23.2285C1.24568 23.2285 38.403 36.0603 65.1438 56.5759C91.8796 77.0877 108 105.075 108 135.611Z" stroke="url(#paint1_linear_1_1787)" stroke-width="10"/>
<path opacity="0.15" d="M141 135.612C141 171.169 122.247 203.7 91.2588 227.5C60.2653 251.304 17.2337 266.169 -30.5 266.169C-78.2337 266.169 -121.265 251.304 -152.259 227.5C-183.247 203.7 -202 171.169 -202 135.612C-202 100.055 -183.247 67.5238 -152.259 43.7239C-121.265 19.92 -78.2337 5.05469 -30.5 5.05469C17.2337 5.05469 60.2653 19.92 91.2588 43.7239C122.247 67.5238 141 100.055 141 135.612Z" stroke="url(#paint2_linear_1_1787)" stroke-width="10"/>
<defs>
<linearGradient id="paint0_linear_1_1787" x1="-47" y1="39.4337" x2="-47" y2="227.245" gradientUnits="userSpaceOnUse">
<stop stop-color="#6480AB"/>
<stop offset="1" stop-color="#6480AB" stop-opacity="0"/>
</linearGradient>
<linearGradient id="paint1_linear_1_1787" x1="-40" y1="18.2285" x2="-40" y2="252.993" gradientUnits="userSpaceOnUse">
<stop stop-color="#6480AB"/>
<stop offset="1" stop-color="#6480AB" stop-opacity="0"/>
</linearGradient>
<linearGradient id="paint2_linear_1_1787" x1="-30.5" y1="0.0546875" x2="-30.5" y2="271.169" gradientUnits="userSpaceOnUse">
<stop stop-color="#6480AB"/>
<stop offset="1" stop-color="#6480AB" stop-opacity="0"/>
</linearGradient>
</defs>
</svg>
