<svg width="29" height="33" viewBox="0 0 29 33" fill="none" xmlns="http://www.w3.org/2000/svg">
<g clip-path="url(#clip0_1_182)">
<path fill-rule="evenodd" clip-rule="evenodd" d="M10.0488 23.1841C10.6651 23.5145 11.4116 23.0688 11.4116 22.3706V16.1731C11.4116 15.4082 10.7904 14.7881 10.024 14.7881H7.70842C6.94209 14.7881 6.32086 15.4082 6.32086 16.1731V20.6332C6.32086 20.9731 6.50809 21.2857 6.80819 21.4465L10.0488 23.1841Z" fill="#E73369"/>
<path d="M17.0968 24.0741C17.3919 23.9118 17.5752 23.602 17.5752 23.2656V9.74802C17.5752 8.98309 16.954 8.363 16.1876 8.363H13.875C13.1087 8.363 12.4875 8.98309 12.4875 9.74802V24.2943C12.4875 24.4041 12.5473 24.5053 12.6437 24.5583C13.7559 25.1706 15.1051 25.1706 16.2174 24.5583L17.0968 24.0741Z" fill="#F2B926"/>
<path d="M23.5003 20.6532C23.6437 20.5019 23.7112 20.2968 23.7112 20.0884V12.5185C23.7112 11.7535 23.09 11.1334 22.3237 11.1334H20.0417C19.2753 11.1334 18.6542 11.7535 18.6542 12.5185V22.0222C18.6542 22.7327 19.4246 23.177 20.0413 22.822L22.661 21.3141C22.9758 21.1329 23.2573 20.9094 23.5003 20.6532Z" fill="#59BC49"/>
<path fill-rule="evenodd" clip-rule="evenodd" d="M11.7051 29.7705L4.30483 25.4848C2.40318 24.3835 1.23273 22.3549 1.23273 20.1604V11.5721C1.23273 9.37753 2.40318 7.34898 4.30483 6.24767L11.7051 1.96189C13.619 0.853533 15.981 0.853534 17.8948 1.96189L25.2951 6.24767C27.1967 7.34896 28.3672 9.37753 28.3672 11.5721V20.1604C28.3672 22.3549 27.1967 24.3835 25.2951 25.4848L17.8948 29.7705C15.981 30.879 13.619 30.879 11.7051 29.7705ZM16.6568 4.09166L24.0571 8.37742C25.1982 9.0382 25.9004 10.2553 25.9004 11.5721V20.1604C25.9004 21.4771 25.1982 22.6943 24.0571 23.3551L16.6568 27.6408C15.5086 28.3058 14.0914 28.3058 12.9431 27.6408L5.54276 23.3551C4.40177 22.6943 3.6995 21.4771 3.6995 20.1604V11.5721C3.6995 10.2553 4.40177 9.0382 5.54276 8.37742L12.9431 4.09166C14.0914 3.42664 15.5086 3.42664 16.6568 4.09166Z" fill="#0C3F8B"/>
</g>
<defs>
<clipPath id="clip0_1_182">
<rect width="27.8974" height="32" fill="white" transform="translate(0.564087 0.5)"/>
</clipPath>
</defs>
</svg>
