<svg width="221" height="131" viewBox="0 0 221 131" fill="none" xmlns="http://www.w3.org/2000/svg">
<rect x="0.867188" y="0.5" width="219" height="130" rx="7.5" fill="white"/>
<rect x="0.867188" y="0.5" width="219" height="130" rx="7.5" stroke="#E5E7EB"/>
<rect opacity="0.34" x="0.367188" width="220" height="131" fill="#F5F6F7"/>
<path d="M98.7539 53.8984V50.0273C98.7539 43.6207 100.689 38.4141 110.367 38.4141C120.045 38.4141 121.98 43.6207 121.98 50.0273V53.8984" stroke="#4B586E" stroke-width="2.90332" stroke-linecap="round" stroke-linejoin="round"/>
<path d="M110.367 70.3506C113.04 70.3506 115.206 68.1842 115.206 65.5117C115.206 62.8393 113.04 60.6729 110.367 60.6729C107.695 60.6729 105.528 62.8393 105.528 65.5117C105.528 68.1842 107.695 70.3506 110.367 70.3506Z" stroke="#4B586E" stroke-width="2.90332" stroke-linecap="round" stroke-linejoin="round"/>
<path d="M120.045 77.125H100.689C92.9473 77.125 91.0117 75.1895 91.0117 67.4473V63.5762C91.0117 55.834 92.9473 53.8984 100.689 53.8984H120.045C127.787 53.8984 129.723 55.834 129.723 63.5762V67.4473C129.723 75.1895 127.787 77.125 120.045 77.125Z" stroke="#4B586E" stroke-width="2.90332" stroke-linecap="round" stroke-linejoin="round"/>
<path d="M57.8714 99.9102V89.7283H61.6896C62.4718 89.7283 63.1281 89.8642 63.6584 90.136C64.192 90.4078 64.5947 90.7889 64.8665 91.2795C65.1416 91.7667 65.2791 92.3351 65.2791 92.9847C65.2791 93.6377 65.1399 94.2044 64.8615 94.685C64.5864 95.1623 64.1804 95.5318 63.6435 95.7937C63.1065 96.0522 62.447 96.1815 61.6648 96.1815H58.9453V94.6502H61.4162C61.8736 94.6502 62.2481 94.5872 62.5398 94.4613C62.8314 94.332 63.0469 94.1448 63.1861 93.8995C63.3286 93.6509 63.3999 93.346 63.3999 92.9847C63.3999 92.6235 63.3286 92.3152 63.1861 92.06C63.0436 91.8015 62.8265 91.6059 62.5348 91.4734C62.2431 91.3375 61.867 91.2695 61.4062 91.2695H59.7159V99.9102H57.8714ZM63.1314 95.2965L65.652 99.9102H63.5938L61.1179 95.2965H63.1314ZM70.1687 100.059C69.4031 100.059 68.7418 99.9002 68.185 99.582C67.6315 99.2605 67.2056 98.8065 66.9073 98.2198C66.609 97.6299 66.4599 96.9355 66.4599 96.1367C66.4599 95.3512 66.609 94.6618 66.9073 94.0685C67.2089 93.4719 67.6299 93.0079 68.1701 92.6765C68.7103 92.3417 69.3451 92.1744 70.0742 92.1744C70.5449 92.1744 70.989 92.2506 71.4066 92.4031C71.8275 92.5522 72.1987 92.7842 72.5202 93.0991C72.8451 93.4139 73.1003 93.815 73.2859 94.3022C73.4715 94.7861 73.5643 95.3628 73.5643 96.0323V96.5842H67.305V95.3711H71.8391C71.8358 95.0264 71.7612 94.7198 71.6154 94.4513C71.4696 94.1796 71.2657 93.9658 71.0039 93.81C70.7454 93.6542 70.4438 93.5763 70.0991 93.5763C69.7312 93.5763 69.408 93.6658 69.1296 93.8448C68.8512 94.0205 68.6341 94.2525 68.4783 94.5408C68.3259 94.8259 68.248 95.1391 68.2447 95.4805V96.5394C68.2447 96.9835 68.3259 97.3647 68.4883 97.6829C68.6507 97.9978 68.8777 98.2397 69.1694 98.4087C69.4611 98.5745 69.8024 98.6573 70.1935 98.6573C70.4554 98.6573 70.6924 98.6209 70.9045 98.5479C71.1166 98.4717 71.3005 98.3607 71.4563 98.2148C71.6121 98.069 71.7298 97.8884 71.8093 97.6729L73.4897 97.8619C73.3836 98.306 73.1815 98.6938 72.8832 99.0252C72.5882 99.3533 72.2103 99.6085 71.7496 99.7908C71.2889 99.9698 70.762 100.059 70.1687 100.059ZM80.1827 102.774V98.707H80.1081C80.0153 98.8926 79.8811 99.0898 79.7054 99.2987C79.5298 99.5041 79.2978 99.6798 79.0094 99.8256C78.7211 99.9715 78.3581 100.044 77.9206 100.044C77.3207 100.044 76.7838 99.8903 76.3098 99.582C75.8359 99.2738 75.4614 98.8263 75.1863 98.2397C74.9112 97.6531 74.7736 96.9405 74.7736 96.1019C74.7736 95.2534 74.9128 94.5375 75.1912 93.9542C75.473 93.3675 75.8525 92.9251 76.3297 92.6268C76.807 92.3252 77.339 92.1744 77.9256 92.1744C78.373 92.1744 78.7409 92.2506 79.0293 92.4031C79.3176 92.5522 79.5463 92.7328 79.7154 92.945C79.8844 93.1538 80.0153 93.351 80.1081 93.5366H80.2175V92.2738H81.9874V102.774H80.1827ZM78.4228 98.5678C78.8039 98.5678 79.1287 98.4651 79.3972 98.2596C79.6657 98.0508 79.8695 97.7608 80.0087 97.3896C80.1479 97.0183 80.2175 96.5858 80.2175 96.092C80.2175 95.5981 80.1479 95.1689 80.0087 94.8043C79.8728 94.4397 79.6706 94.1564 79.4022 93.9542C79.137 93.752 78.8105 93.6509 78.4228 93.6509C78.0217 93.6509 77.687 93.7553 77.4185 93.9641C77.15 94.1729 76.9479 94.4613 76.812 94.8292C76.6761 95.1971 76.6081 95.618 76.6081 96.092C76.6081 96.5692 76.6761 96.9951 76.812 97.3697C76.9512 97.7409 77.155 98.0342 77.4235 98.2496C77.6953 98.4618 78.0284 98.5678 78.4228 98.5678ZM88.704 96.6985V92.2738H90.5037V99.9102H88.7587V98.5529H88.6792C88.5068 98.9805 88.2234 99.3301 87.829 99.6019C87.4379 99.8737 86.9557 100.01 86.3823 100.01C85.8818 100.01 85.4393 99.8986 85.0549 99.6765C84.6737 99.4511 84.3754 99.1246 84.16 98.6971C83.9445 98.2662 83.8368 97.7459 83.8368 97.136V92.2738H85.6365V96.8576C85.6365 97.3415 85.7691 97.726 86.0343 98.011C86.2994 98.296 86.6474 98.4386 87.0783 98.4386C87.3435 98.4386 87.6003 98.3739 87.8489 98.2447C88.0975 98.1154 88.3013 97.9232 88.4604 97.668C88.6228 97.4094 88.704 97.0863 88.704 96.6985ZM95.7351 100.059C94.9695 100.059 94.3082 99.9002 93.7514 99.582C93.1979 99.2605 92.772 98.8065 92.4737 98.2198C92.1754 97.6299 92.0263 96.9355 92.0263 96.1367C92.0263 95.3512 92.1754 94.6618 92.4737 94.0685C92.7753 93.4719 93.1963 93.0079 93.7365 92.6765C94.2768 92.3417 94.9115 92.1744 95.6406 92.1744C96.1113 92.1744 96.5554 92.2506 96.973 92.4031C97.3939 92.5522 97.7652 92.7842 98.0866 93.0991C98.4115 93.4139 98.6667 93.815 98.8523 94.3022C99.0379 94.7861 99.1307 95.3628 99.1307 96.0323V96.5842H92.8714V95.3711H97.4055C97.4022 95.0264 97.3277 94.7198 97.1818 94.4513C97.036 94.1796 96.8321 93.9658 96.5703 93.81C96.3118 93.6542 96.0102 93.5763 95.6655 93.5763C95.2976 93.5763 94.9744 93.6658 94.696 93.8448C94.4176 94.0205 94.2005 94.2525 94.0447 94.5408C93.8923 94.8259 93.8144 95.1391 93.8111 95.4805V96.5394C93.8111 96.9835 93.8923 97.3647 94.0547 97.6829C94.2171 97.9978 94.4441 98.2397 94.7358 98.4087C95.0275 98.5745 95.3688 98.6573 95.7599 98.6573C96.0218 98.6573 96.2588 98.6209 96.4709 98.5479C96.683 98.4717 96.867 98.3607 97.0227 98.2148C97.1785 98.069 97.2962 97.8884 97.3757 97.6729L99.0561 97.8619C98.95 98.306 98.7479 98.6938 98.4496 99.0252C98.1546 99.3533 97.7768 99.6085 97.3161 99.7908C96.8554 99.9698 96.3284 100.059 95.7351 100.059ZM106.689 94.2923L105.048 94.4712C105.002 94.3055 104.921 94.1497 104.805 94.0039C104.692 93.8581 104.539 93.7404 104.347 93.6509C104.155 93.5614 103.92 93.5167 103.641 93.5167C103.267 93.5167 102.952 93.5979 102.697 93.7603C102.445 93.9227 102.32 94.1332 102.324 94.3917C102.32 94.6138 102.402 94.7944 102.567 94.9336C102.736 95.0728 103.015 95.1871 103.403 95.2766L104.705 95.555C105.428 95.7108 105.965 95.9577 106.316 96.2958C106.671 96.6339 106.849 97.0763 106.853 97.6232C106.849 98.1038 106.709 98.5281 106.43 98.896C106.155 99.2605 105.772 99.5456 105.282 99.7511C104.791 99.9566 104.228 100.059 103.591 100.059C102.657 100.059 101.904 99.8638 101.334 99.4727C100.764 99.0782 100.425 98.5297 100.315 97.8271L102.07 97.658C102.15 98.0027 102.319 98.2629 102.577 98.4386C102.836 98.6142 103.172 98.7021 103.586 98.7021C104.014 98.7021 104.357 98.6142 104.616 98.4386C104.877 98.2629 105.008 98.0458 105.008 97.7873C105.008 97.5685 104.924 97.3879 104.755 97.2454C104.589 97.1029 104.331 96.9935 103.979 96.9173L102.677 96.6438C101.944 96.4914 101.402 96.2345 101.051 95.8732C100.7 95.5086 100.526 95.0479 100.529 94.4911C100.526 94.0205 100.653 93.6128 100.912 93.2681C101.174 92.9201 101.537 92.6516 102.001 92.4627C102.468 92.2705 103.006 92.1744 103.616 92.1744C104.511 92.1744 105.215 92.3649 105.729 92.7461C106.246 93.1272 106.566 93.6426 106.689 94.2923ZM112.15 92.2738V93.6658H107.76V92.2738H112.15ZM108.844 90.4442H110.644V97.6133C110.644 97.8552 110.68 98.0408 110.753 98.1701C110.829 98.296 110.929 98.3822 111.051 98.4286C111.174 98.475 111.31 98.4982 111.459 98.4982C111.572 98.4982 111.674 98.4899 111.767 98.4734C111.863 98.4568 111.936 98.4419 111.986 98.4286L112.289 99.8356C112.193 99.8687 112.056 99.9052 111.877 99.945C111.701 99.9847 111.485 100.008 111.23 100.015C110.78 100.028 110.374 99.9599 110.012 99.8107C109.651 99.6583 109.364 99.4229 109.152 99.1048C108.943 98.7866 108.841 98.3888 108.844 97.9116V90.4442ZM118.515 99.9102H116.546L120.131 89.7283H122.408L125.997 99.9102H124.028L121.309 91.8164H121.229L118.515 99.9102ZM118.58 95.918H123.949V97.3995H118.58V95.918ZM130.357 100.059C129.595 100.059 128.94 99.8919 128.393 99.5572C127.85 99.2224 127.431 98.7601 127.136 98.1701C126.844 97.5768 126.698 96.8941 126.698 96.1218C126.698 95.3462 126.847 94.6618 127.146 94.0685C127.444 93.4719 127.865 93.0079 128.408 92.6765C128.955 92.3417 129.602 92.1744 130.347 92.1744C130.967 92.1744 131.516 92.2887 131.993 92.5174C132.473 92.7428 132.856 93.0626 133.141 93.4769C133.426 93.8879 133.589 94.3685 133.629 94.9187H131.908C131.839 94.5508 131.673 94.2442 131.411 93.9989C131.153 93.7504 130.806 93.6261 130.372 93.6261C130.004 93.6261 129.681 93.7255 129.403 93.9244C129.124 94.1199 128.907 94.4016 128.751 94.7695C128.599 95.1374 128.523 95.5782 128.523 96.092C128.523 96.6123 128.599 97.0598 128.751 97.4343C128.904 97.8055 129.118 98.0922 129.393 98.2944C129.671 98.4933 129.998 98.5927 130.372 98.5927C130.637 98.5927 130.874 98.543 131.083 98.4435C131.295 98.3408 131.473 98.1933 131.615 98.0011C131.758 97.8088 131.855 97.5752 131.908 97.3001H133.629C133.585 97.8403 133.426 98.3192 133.151 98.7369C132.876 99.1512 132.502 99.476 132.028 99.7113C131.554 99.9433 130.997 100.059 130.357 100.059ZM138.437 100.059C137.675 100.059 137.02 99.8919 136.474 99.5572C135.93 99.2224 135.511 98.7601 135.216 98.1701C134.924 97.5768 134.778 96.8941 134.778 96.1218C134.778 95.3462 134.927 94.6618 135.226 94.0685C135.524 93.4719 135.945 93.0079 136.488 92.6765C137.035 92.3417 137.682 92.1744 138.427 92.1744C139.047 92.1744 139.596 92.2887 140.073 92.5174C140.554 92.7428 140.936 93.0626 141.221 93.4769C141.506 93.8879 141.669 94.3685 141.709 94.9187H139.988C139.919 94.5508 139.753 94.2442 139.491 93.9989C139.233 93.7504 138.886 93.6261 138.452 93.6261C138.084 93.6261 137.761 93.7255 137.483 93.9244C137.204 94.1199 136.987 94.4016 136.831 94.7695C136.679 95.1374 136.603 95.5782 136.603 96.092C136.603 96.6123 136.679 97.0598 136.831 97.4343C136.984 97.8055 137.198 98.0922 137.473 98.2944C137.751 98.4933 138.078 98.5927 138.452 98.5927C138.717 98.5927 138.954 98.543 139.163 98.4435C139.375 98.3408 139.553 98.1933 139.695 98.0011C139.838 97.8088 139.935 97.5752 139.988 97.3001H141.709C141.666 97.8403 141.506 98.3192 141.231 98.7369C140.956 99.1512 140.582 99.476 140.108 99.7113C139.634 99.9433 139.077 100.059 138.437 100.059ZM146.567 100.059C145.801 100.059 145.14 99.9002 144.583 99.582C144.03 99.2605 143.604 98.8065 143.306 98.2198C143.007 97.6299 142.858 96.9355 142.858 96.1367C142.858 95.3512 143.007 94.6618 143.306 94.0685C143.607 93.4719 144.028 93.0079 144.569 92.6765C145.109 92.3417 145.743 92.1744 146.473 92.1744C146.943 92.1744 147.387 92.2506 147.805 92.4031C148.226 92.5522 148.597 92.7842 148.919 93.0991C149.243 93.4139 149.499 93.815 149.684 94.3022C149.87 94.7861 149.963 95.3628 149.963 96.0323V96.5842H143.703V95.3711H148.238C148.234 95.0264 148.16 94.7198 148.014 94.4513C147.868 94.1796 147.664 93.9658 147.402 93.81C147.144 93.6542 146.842 93.5763 146.498 93.5763C146.13 93.5763 145.806 93.6658 145.528 93.8448C145.25 94.0205 145.033 94.2525 144.877 94.5408C144.724 94.8259 144.646 95.1391 144.643 95.4805V96.5394C144.643 96.9835 144.724 97.3647 144.887 97.6829C145.049 97.9978 145.276 98.2397 145.568 98.4087C145.859 98.5745 146.201 98.6573 146.592 98.6573C146.854 98.6573 147.091 98.6209 147.303 98.5479C147.515 98.4717 147.699 98.3607 147.855 98.2148C148.011 98.069 148.128 97.8884 148.208 97.6729L149.888 97.8619C149.782 98.306 149.58 98.6938 149.282 99.0252C148.987 99.3533 148.609 99.6085 148.148 99.7908C147.687 99.9698 147.16 100.059 146.567 100.059ZM157.521 94.2923L155.88 94.4712C155.834 94.3055 155.753 94.1497 155.637 94.0039C155.524 93.8581 155.371 93.7404 155.179 93.6509C154.987 93.5614 154.752 93.5167 154.473 93.5167C154.099 93.5167 153.784 93.5979 153.529 93.7603C153.277 93.9227 153.152 94.1332 153.156 94.3917C153.152 94.6138 153.234 94.7944 153.399 94.9336C153.568 95.0728 153.847 95.1871 154.235 95.2766L155.537 95.555C156.26 95.7108 156.797 95.9577 157.148 96.2958C157.503 96.6339 157.682 97.0763 157.685 97.6232C157.682 98.1038 157.541 98.5281 157.262 98.896C156.987 99.2605 156.604 99.5456 156.114 99.7511C155.623 99.9566 155.06 100.059 154.423 100.059C153.489 100.059 152.736 99.8638 152.166 99.4727C151.596 99.0782 151.257 98.5297 151.147 97.8271L152.902 97.658C152.982 98.0027 153.151 98.2629 153.409 98.4386C153.668 98.6142 154.004 98.7021 154.419 98.7021C154.846 98.7021 155.189 98.6142 155.448 98.4386C155.709 98.2629 155.84 98.0458 155.84 97.7873C155.84 97.5685 155.756 97.3879 155.587 97.2454C155.421 97.1029 155.163 96.9935 154.811 96.9173L153.509 96.6438C152.776 96.4914 152.234 96.2345 151.883 95.8732C151.532 95.5086 151.358 95.0479 151.361 94.4911C151.358 94.0205 151.485 93.6128 151.744 93.2681C152.006 92.9201 152.369 92.6516 152.833 92.4627C153.3 92.2705 153.838 92.1744 154.448 92.1744C155.343 92.1744 156.048 92.3649 156.561 92.7461C157.078 93.1272 157.398 93.6426 157.521 94.2923ZM165.204 94.2923L163.564 94.4712C163.517 94.3055 163.436 94.1497 163.32 94.0039C163.207 93.8581 163.055 93.7404 162.863 93.6509C162.671 93.5614 162.435 93.5167 162.157 93.5167C161.782 93.5167 161.467 93.5979 161.212 93.7603C160.96 93.9227 160.836 94.1332 160.839 94.3917C160.836 94.6138 160.917 94.7944 161.083 94.9336C161.252 95.0728 161.53 95.1871 161.918 95.2766L163.221 95.555C163.943 95.7108 164.48 95.9577 164.831 96.2958C165.186 96.6339 165.365 97.0763 165.368 97.6232C165.365 98.1038 165.224 98.5281 164.946 98.896C164.671 99.2605 164.288 99.5456 163.797 99.7511C163.307 99.9566 162.743 100.059 162.107 100.059C161.172 100.059 160.42 99.8638 159.85 99.4727C159.28 99.0782 158.94 98.5297 158.831 97.8271L160.586 97.658C160.665 98.0027 160.834 98.2629 161.093 98.4386C161.351 98.6142 161.688 98.7021 162.102 98.7021C162.53 98.7021 162.873 98.6142 163.131 98.4386C163.393 98.2629 163.524 98.0458 163.524 97.7873C163.524 97.5685 163.439 97.3879 163.27 97.2454C163.105 97.1029 162.846 96.9935 162.495 96.9173L161.192 96.6438C160.46 96.4914 159.918 96.2345 159.567 95.8732C159.215 95.5086 159.041 95.0479 159.045 94.4911C159.041 94.0205 159.169 93.6128 159.427 93.2681C159.689 92.9201 160.052 92.6516 160.516 92.4627C160.983 92.2705 161.522 92.1744 162.132 92.1744C163.027 92.1744 163.731 92.3649 164.245 92.7461C164.762 93.1272 165.082 93.6426 165.204 94.2923Z" fill="#4B586E"/>
</svg>
