<svg width="17" height="17" viewBox="0 0 17 17" fill="none" xmlns="http://www.w3.org/2000/svg">
<g id="vuesax/linear/edit">
<g id="edit">
<path id="Vector" d="M7.69844 1.40039H6.29844C2.79844 1.40039 1.39844 2.80039 1.39844 6.30039V10.5004C1.39844 14.0004 2.79844 15.4004 6.29844 15.4004H10.4984C13.9984 15.4004 15.3984 14.0004 15.3984 10.5004V9.10039" stroke="#4B586E" stroke-width="1.05" stroke-linecap="round" stroke-linejoin="round"/>
<path id="Vector_2" d="M11.2312 2.11252L5.71524 7.62852C5.50524 7.83852 5.29524 8.25152 5.25324 8.55252L4.95224 10.6595C4.84024 11.4225 5.37924 11.9545 6.14224 11.8495L8.24924 11.5485C8.54324 11.5065 8.95624 11.2965 9.17324 11.0865L14.6892 5.57052C15.6412 4.61852 16.0892 3.51252 14.6892 2.11252C13.2892 0.712517 12.1832 1.16052 11.2312 2.11252Z" stroke="#4B586E" stroke-width="1.05" stroke-miterlimit="10" stroke-linecap="round" stroke-linejoin="round"/>
<path id="Vector_3" d="M10.4375 2.90625C10.9065 4.57925 12.2155 5.88825 13.8955 6.36425" stroke="#4B586E" stroke-width="1.05" stroke-miterlimit="10" stroke-linecap="round" stroke-linejoin="round"/>
</g>
</g>
</svg>
