<svg width="77" height="77" viewBox="0 0 77 77" fill="none" xmlns="http://www.w3.org/2000/svg">
<rect width="76.7999" height="76.8" rx="38.4" fill="#E3A008"/>
<path d="M31.5692 26.1788C29.8284 26.1788 28.958 25.334 28.958 23.6444C28.958 21.9548 29.7772 21.11 31.4156 21.11C33.1564 21.11 34.0268 21.9548 34.0268 23.6444C34.0268 25.334 33.2076 26.1788 31.5692 26.1788ZM21.1244 55.9004C19.6396 55.9004 18.8972 55.158 18.8972 53.6732C18.8972 52.7516 19.2044 51.4972 19.8188 49.91C21.15 46.6332 22.4044 43.6124 23.582 40.8476C24.7596 38.0828 25.8604 35.574 26.8844 33.3212C27.038 33.0652 27.1148 32.7836 27.1148 32.4764C27.1148 31.7596 26.782 30.9916 26.1164 30.1724L30.3404 30.0956C31.774 30.0956 32.4908 30.454 32.4908 31.1708C32.4908 31.3756 32.4396 31.606 32.3372 31.862C32.2348 32.0668 32.1068 32.374 31.9532 32.7836L24.8876 49.142C24.1708 50.8316 23.8124 52.2652 23.8124 53.4428C23.8124 54.6716 24.1964 55.4908 24.9644 55.9004H21.1244ZM30.8684 56.438C31.8924 53.9292 33.1724 50.8316 34.7084 47.1452C36.2444 43.4588 38.1132 39.2092 40.3148 34.3964C40.7756 33.3724 41.2108 32.5276 41.6204 31.862C42.03 31.1964 42.414 30.6844 42.7724 30.326C43.4892 29.6092 44.4108 29.2508 45.5372 29.2508C45.6396 29.2508 45.8188 29.2508 46.0748 29.2508C46.3308 29.2508 46.6892 29.302 47.15 29.4044C47.8668 29.4556 48.4044 29.4556 48.7628 29.4044C46.8684 30.5308 44.0268 35.4972 40.238 44.3036C40.8524 43.4332 41.6716 42.486 42.6956 41.462C43.7708 40.3868 45.0252 39.2092 46.4588 37.9292C47.3804 37.0588 48.4044 36.2396 49.5308 35.4716C50.6572 34.6524 51.886 33.8844 53.2172 33.1676C56.238 31.478 58.4652 30.6332 59.8988 30.6332C60.2572 30.6332 60.5132 30.6588 60.6668 30.71C59.8476 32.1436 59.0796 33.526 58.3628 34.8572C57.6972 36.1884 57.0572 37.4428 56.4428 38.6204C53.4732 44.3548 51.8092 48.3228 51.4508 50.5244C51.3996 50.8828 51.3484 51.2156 51.2972 51.5228C51.2972 51.83 51.2972 52.1116 51.2972 52.3676C51.2972 53.6988 51.7836 54.3644 52.7564 54.3644C54.3436 54.3644 56.238 52.7516 58.4396 49.526L59.5148 50.294C56.9036 54.2364 54.2668 56.2076 51.6044 56.2076C48.3788 56.2076 46.766 54.5436 46.766 51.2156C46.766 48.502 48.43 44.4828 51.758 39.158C52.27 38.3388 52.526 37.6476 52.526 37.0844C52.526 36.47 52.2444 36.1628 51.6812 36.1628C51.118 36.1628 50.3756 36.47 49.454 37.0844C48.5836 37.6476 47.534 38.4924 46.3052 39.6188C44.3596 41.4108 42.542 43.5612 40.8524 46.07C39.1628 48.5276 37.6268 51.3436 36.2444 54.518C35.9372 55.286 35.1436 55.7468 33.8636 55.9004C32.2252 56.054 31.2268 56.2332 30.8684 56.438Z" fill="white"/>
</svg>
