<svg width="1920" height="793" viewBox="0 0 1920 793" fill="none" xmlns="http://www.w3.org/2000/svg">
<path opacity="0.8" d="M2072.36 1124.7C2072.36 1745.2 1573.39 2248.2 957.896 2248.2C342.397 2248.2 -156.57 1745.2 -156.57 1124.7C-156.57 504.204 342.397 1.2002 957.896 1.2002C1573.39 1.2002 2072.36 504.204 2072.36 1124.7Z" stroke="#A93439"/>
<path opacity="0.7" d="M1938.25 1124.7C1938.25 1671.13 1499.32 2114.08 957.896 2114.08C416.467 2114.08 -22.4551 1671.13 -22.4551 1124.7C-22.4551 578.274 416.467 135.315 957.896 135.315C1499.32 135.315 1938.25 578.274 1938.25 1124.7Z" stroke="#E8EBF0"/>
<path opacity="0.3" d="M1788.15 1125.05C1788.15 1588 1416.43 1963.29 957.897 1963.29C499.366 1963.29 127.645 1588 127.645 1125.05C127.645 662.094 499.366 286.804 957.897 286.804C1416.43 286.804 1788.15 662.094 1788.15 1125.05Z" stroke="#BBC5D4"/>
<ellipse cx="958.244" cy="1092.7" rx="686.561" ry="664.671" fill="#1F2A37"/>
<g filter="url(#filter0_f_1_2643)">
<circle cx="956.159" cy="1153.54" r="464.888" fill="url(#paint0_linear_1_2643)"/>
</g>
<defs>
<filter id="filter0_f_1_2643" x="354.271" y="551.651" width="1203.78" height="1203.78" filterUnits="userSpaceOnUse" color-interpolation-filters="sRGB">
<feFlood flood-opacity="0" result="BackgroundImageFix"/>
<feBlend mode="normal" in="SourceGraphic" in2="BackgroundImageFix" result="shape"/>
<feGaussianBlur stdDeviation="68.5" result="effect1_foregroundBlur_1_2643"/>
</filter>
<linearGradient id="paint0_linear_1_2643" x1="904.534" y1="916.864" x2="907.662" y2="571.271" gradientUnits="userSpaceOnUse">
<stop stop-color="#070E19"/>
<stop offset="0.954617" stop-color="#060C16" stop-opacity="0.3"/>
</linearGradient>
</defs>
</svg>
