<svg width="68" height="75" viewBox="0 0 68 75" fill="none" xmlns="http://www.w3.org/2000/svg">
<path d="M46.1824 74.1366C46.0249 67.9566 46.1824 55.7166 46.1449 55.3341H44.7799C44.7574 53.3391 44.7349 48.8316 44.7349 48.8316C44.7349 48.8316 44.8249 42.8766 42.6799 38.0691C40.5349 33.2616 36.6049 32.3541 36.6049 32.3541C36.6574 32.3541 36.3274 31.5816 36.9199 31.5816C36.7549 31.5441 35.9599 31.6041 35.9599 31.5666C35.9599 30.3966 35.9449 27.5616 35.9449 27.5616V26.5341C35.9599 26.4966 35.9749 26.4591 35.9974 26.4141H31.3999C31.4299 26.4741 31.4524 26.5266 31.4824 26.5866V27.6141C31.4824 27.6141 31.4599 30.4416 31.4599 31.6191C31.4599 31.6641 30.6574 31.5966 30.4999 31.6341C31.0924 31.6341 30.7549 32.4066 30.8149 32.4066C30.8149 32.4066 27.1474 33.1341 24.6424 38.0691C22.1299 43.0116 22.5424 53.3541 22.5049 55.3566L21.2449 55.3716C21.1999 55.7541 21.3424 67.9491 21.1699 74.1366H23.8399V68.7891C23.8399 68.7891 24.1174 67.2216 25.7899 67.2216C27.4624 67.2216 27.8749 68.7891 27.8749 68.7891V74.1366H30.9649V67.1691H36.6274V74.1366H39.4474V68.7891C39.4474 68.7891 39.7174 67.2216 41.3974 67.2216C43.0699 67.2216 43.4824 68.7891 43.4824 68.7891V74.1366H46.1824ZM24.4099 51.3066C24.4099 51.3066 24.5674 50.3016 25.5274 50.3016C26.4874 50.3016 26.7199 51.3066 26.7199 51.3066V54.8391H24.4099V51.3066ZM27.1399 63.9516H23.8099V59.4966C23.8099 59.4966 24.0424 58.2441 25.4224 58.2441C26.8024 58.2441 27.1399 59.4966 27.1399 59.4966V63.9516ZM26.7724 43.0791C26.7349 43.2891 26.6974 43.5591 26.6599 43.8066H25.3999C25.4524 43.5666 25.4974 43.2816 25.5499 42.9891C25.6999 42.1266 25.8799 41.5866 25.8799 41.5866H27.1624C27.1699 41.5866 26.8624 42.5391 26.7724 43.0791ZM37.9099 41.6391C37.9099 41.6391 38.0449 42.1116 38.1574 42.9666C38.1949 43.2666 38.2249 43.5591 38.2474 43.8066H36.8299C36.7699 43.4166 36.6874 42.9666 36.6199 42.7116C36.4774 42.1716 36.4324 41.6391 36.4324 41.6391H37.9099ZM32.9899 41.6391H34.4449L34.4074 43.8066H32.9749L32.9899 41.6391ZM32.3974 51.2841C32.3974 51.2841 32.7124 50.2641 33.6649 50.2641C34.6249 50.2641 34.9999 51.2841 34.9999 51.2841V54.8316H32.3974V51.2841ZM29.2474 43.0191C29.3599 42.1641 29.4949 41.6916 29.4949 41.6916H30.9799C30.9799 41.6916 30.9274 42.2241 30.7849 42.7641C30.7174 43.0191 30.6499 43.4391 30.5899 43.8141H29.1724C29.1874 43.5741 29.2099 43.3041 29.2474 43.0191ZM28.4074 51.2841C28.4074 51.2841 28.5649 50.2791 29.5249 50.2791C30.4849 50.2791 30.7174 51.2841 30.7174 51.2841V54.8316H28.4074V51.2841ZM32.6224 63.9516H29.2924V59.4516C29.2924 59.4516 29.5174 58.1991 30.8974 58.1991C32.2774 58.1991 32.6149 59.4516 32.6149 59.4516L32.6224 63.9516ZM38.1049 63.9516H34.7749V59.4516C34.7749 59.4516 34.9999 58.1991 36.3799 58.1991C37.7599 58.1991 38.0974 59.4516 38.0974 59.4516L38.1049 63.9516ZM38.9974 54.8316H36.6874V51.2841C36.6874 51.2841 36.8449 50.2791 37.8049 50.2791C38.7574 50.2791 38.9974 51.2841 38.9974 51.2841V54.8316ZM42.9874 51.2841V54.8316H40.6774V51.2841C40.6774 51.2841 40.8349 50.2791 41.7949 50.2791C42.7549 50.2791 42.9874 51.2841 42.9874 51.2841ZM41.5324 41.6541C41.5324 41.6541 41.7124 42.1866 41.8624 43.0566C41.9074 43.3341 41.9599 43.5891 41.9974 43.8141H40.7449C40.7149 43.5891 40.6849 43.3416 40.6474 43.1466C40.5499 42.5991 40.2499 41.6616 40.2499 41.6616H41.5324V41.6541ZM40.2649 63.9516V59.4516C40.2649 59.4516 40.4899 58.1991 41.8699 58.1991C43.2499 58.1991 43.5874 59.4516 43.5874 59.4516V63.9516H40.2649Z" fill="white"/>
<path d="M47.8036 7.10895C47.8111 6.85395 47.811 6.59895 47.811 6.34395C47.7885 5.32395 47.6835 4.30395 47.5485 3.29145C47.436 2.44395 47.3536 1.55145 47.1061 0.726447C47.0911 0.673947 46.9785 0.253947 46.8885 0.268947C44.736 0.471447 42.0885 1.57395 40.2135 2.56395C35.661 4.97145 33.3135 10.0414 33.7485 15.0514C33.8685 16.3789 34.0785 17.7064 34.416 19.0039C34.581 19.6189 35.0835 22.3864 35.091 22.3864C38.976 21.4339 43.626 17.9464 45.7785 14.3689C46.8735 12.5464 47.5186 10.3789 47.7286 8.21895C47.7661 7.85145 47.7886 7.47645 47.8036 7.10895Z" fill="#009D4E"/>
<path d="M30.6811 54.8308V51.2833C30.6811 51.2833 30.4486 50.2783 29.4886 50.2783C28.5286 50.2783 28.3711 51.2833 28.3711 51.2833V54.8308H30.6811Z" fill="#A93439"/>
<path d="M38.9604 54.8308V51.2833C38.9604 51.2833 38.7279 50.2783 37.7679 50.2783C36.8079 50.2783 36.6504 51.2833 36.6504 51.2833V54.8308H38.9604Z" fill="#A93439"/>
<path d="M42.9584 54.8308V51.2833C42.9584 51.2833 42.7259 50.2783 41.7659 50.2783C40.8059 50.2783 40.6484 51.2833 40.6484 51.2833V54.8308H42.9584Z" fill="#A93439"/>
<path d="M34.9716 54.8312V51.2837C34.9716 51.2837 34.5966 50.2637 33.6441 50.2637C32.6841 50.2637 32.3691 51.2837 32.3691 51.2837V54.8312H34.9716Z" fill="#A93439"/>
<path d="M26.6909 54.8314V51.2989C26.6909 51.2989 26.4584 50.2939 25.4984 50.2939C24.5384 50.2939 24.3809 51.2989 24.3809 51.2989V54.8314H26.6909Z" fill="#A93439"/>
<path d="M27.1057 63.9516V59.4966C27.1057 59.4966 26.7682 58.2441 25.3882 58.2441C24.0082 58.2441 23.7832 59.4966 23.7832 59.4966V63.9516H27.1057Z" fill="#A93439"/>
<path d="M32.594 63.9517V59.4517C32.594 59.4517 32.2565 58.1992 30.8765 58.1992C29.4965 58.1992 29.2715 59.4517 29.2715 59.4517V63.9517H32.594Z" fill="#A93439"/>
<path d="M38.0764 63.9517V59.4517C38.0764 59.4517 37.7389 58.1992 36.3589 58.1992C34.9789 58.1992 34.7539 59.4517 34.7539 59.4517V63.9517H38.0764Z" fill="#A93439"/>
<path d="M43.5608 63.9517V59.4517C43.5608 59.4517 43.2233 58.1992 41.8433 58.1992C40.4633 58.1992 40.2383 59.4517 40.2383 59.4517V63.9517H43.5608Z" fill="#A93439"/>
<path d="M27.8241 74.5123V68.7823C27.8241 68.7823 27.4116 67.2148 25.7391 67.2148C24.0666 67.2148 23.7891 68.7823 23.7891 68.7823V74.5123H27.8241Z" fill="#A93439"/>
<path d="M43.4237 74.5127V68.7902C43.4237 68.7902 43.0112 67.2227 41.3387 67.2227C39.6662 67.2227 39.3887 68.7902 39.3887 68.7902V74.5127H43.4237Z" fill="#A93439"/>
<path d="M34.372 43.6496L34.4095 41.4746H32.9545L32.9395 43.6496H34.372Z" fill="#A93439"/>
<path d="M36.8073 43.6496H38.2173C38.1948 43.4021 38.1648 43.1096 38.1273 42.8096C38.0148 41.9471 37.8798 41.4746 37.8798 41.4746H36.4023C36.4023 41.4746 36.4548 42.0071 36.5898 42.5471C36.6648 42.8096 36.7398 43.2521 36.8073 43.6496Z" fill="#A93439"/>
<path d="M30.5542 43.6489C30.6142 43.2739 30.6817 42.8539 30.7492 42.5989C30.8917 42.0514 30.9442 41.5264 30.9442 41.5264H29.4667C29.4667 41.5264 29.3317 41.9989 29.2192 42.8539C29.1817 43.1389 29.1517 43.4089 29.1367 43.6489H30.5542Z" fill="#A93439"/>
<path d="M26.6314 43.6494C26.6689 43.3944 26.7064 43.1244 26.7439 42.9144C26.8414 42.3744 27.1414 41.4219 27.1414 41.4219H25.8589C25.8589 41.4219 25.6789 41.9544 25.5289 42.8244C25.4764 43.1169 25.4239 43.4019 25.3789 43.6494H26.6314Z" fill="#A93439"/>
<path d="M40.7082 43.6493H41.9682C41.9232 43.4243 41.8782 43.1693 41.8332 42.8918C41.6832 42.0293 41.5032 41.4893 41.5032 41.4893H40.2207C40.2207 41.4893 40.5207 42.4343 40.6182 42.9743C40.6482 43.1768 40.6857 43.4168 40.7082 43.6493Z" fill="#A93439"/>
<path d="M35.9082 27.5537C35.9082 27.5537 35.9232 30.3812 35.9232 31.5587C35.9232 31.5962 36.7182 31.5362 36.8832 31.5812C36.2907 31.5812 36.6207 32.3537 36.5682 32.3537C36.5682 32.3537 40.4982 33.2687 42.6432 38.0687C44.7882 42.8762 44.6982 48.8387 44.6982 48.8387C44.6982 48.8387 44.7132 53.3387 44.7357 55.3412H46.1007C46.1457 55.7312 45.9807 67.9637 46.1457 74.1437C52.7907 69.4187 58.9407 64.0937 62.9232 56.5937C66.4557 49.9337 68.4057 40.3262 66.2082 32.8487C62.6682 20.7587 42.1782 12.1637 35.9082 26.5412V27.5537Z" fill="#A93439"/>
<path d="M31.4383 27.607C31.4383 27.607 31.4158 30.4345 31.4158 31.612C31.4158 31.657 30.6208 31.5895 30.4558 31.627C31.0483 31.627 30.7108 32.3995 30.7708 32.3995C30.7708 32.3995 27.1033 33.127 24.5983 38.062C22.0858 42.997 22.4983 53.347 22.4683 55.3495L21.2083 55.3645C21.1633 55.747 21.3058 67.987 21.1333 74.1595C14.5033 69.427 8.36831 64.087 4.4083 56.572C0.890805 49.9045 -1.0367 40.2895 1.1683 32.8195C4.7308 20.737 25.2208 12.187 31.4608 26.572L31.4383 27.607Z" fill="#A93439"/>
<path d="M47.4587 45.3672H19.8887V46.4922H47.4587V45.3672Z" fill="#A93439"/>
<path d="M47.4587 47.1064H19.8887V48.2314H47.4587V47.1064Z" fill="#A93439"/>
<path d="M33.2163 26.4141H32.4062V31.6266H33.2163V26.4141Z" fill="#A93439"/>
<path d="M34.935 26.4141H34.125V31.6266H34.935V26.4141Z" fill="#A93439"/>
<path d="M36.2447 67.1689H31.2422V74.4664H36.2447V67.1689Z" fill="#A93439"/>
<path d="M34.0266 24.0219C34.0266 24.0219 33.5616 7.0119 17.9391 0.794397C17.0616 0.441897 11.7216 1.9419 12.5841 2.3469C29.8491 7.2219 32.4441 20.8644 33.3066 24.0219H34.0266Z" fill="#683817"/>
</svg>
