<svg width="191" height="56" viewBox="0 0 191 56" fill="none" xmlns="http://www.w3.org/2000/svg">
<path d="M23.572 23.3438H11.437L8.37703 31.7513H12.607V35.1188H0.832031V31.7513H4.45453L16.132 1.36133H21.2845L32.2495 31.7513H36.892V35.1188H21.187V31.7513H26.4895L23.572 23.3438ZM12.562 20.3888H22.552L17.812 6.67133H17.6095L12.562 20.3888Z" fill="#A93439"/>
<path d="M37.8448 24.9723V4.93976H32.9473V1.57227H48.0898V4.93976H43.1023V23.2923C43.1023 29.7648 46.3648 32.2623 52.5823 32.2623C55.3348 32.2623 57.1723 31.3473 58.6498 29.8623C60.3823 28.1298 60.7348 25.8873 60.7348 22.0623V4.93976H55.4923V1.57227H69.2998V4.93976H64.5073V24.9798C64.5073 30.7398 59.7673 35.9448 51.0073 35.9448C42.4348 35.9373 37.8448 31.3998 37.8448 24.9723Z" fill="#A93439"/>
<path d="M70.3652 23.6517H73.4252C77.1452 30.4842 79.4927 32.7792 84.2327 32.7792C88.2077 32.7792 90.6077 30.7392 90.6077 27.2217C90.6077 23.0892 86.2727 21.9717 81.6827 20.6442C76.4327 19.1667 70.8227 17.3817 70.8227 10.4967C70.8227 5.50172 75.0002 0.761719 81.3752 0.761719C84.2327 0.761719 87.7502 1.98422 89.6327 4.33172L90.7052 0.919218H94.0727V12.5442H91.0127C87.9002 5.91422 84.9452 3.92672 81.1202 3.92672C77.8577 3.92672 75.8177 5.96672 75.8177 9.02672C75.8177 13.5642 80.3027 14.5842 84.9977 15.8067C90.1502 17.0817 95.6027 18.6642 95.6027 25.4442C95.6027 31.3092 90.8102 35.9442 84.2852 35.9442C80.5127 35.9442 76.9952 34.6167 74.9552 32.2692L73.7327 35.7867H70.3652V23.6517Z" fill="#A93439"/>
<path d="M104.933 31.7598H110.843V4.42976H108.6C104.115 4.42976 103.148 5.90727 100.643 13.5048H98.25V1.57227H128.692V13.5048H126.293C123.795 5.90727 122.828 4.42976 118.343 4.42976H116.1V31.7598H122.018V35.1273H104.94L104.933 31.7598Z" fill="#A93439"/>
<path d="M132.771 31.7598H138.426V4.93976H132.771V1.57227H149.339V4.93976H143.676V31.7598H149.339V35.1273H132.771V31.7598Z" fill="#A93439"/>
<path d="M162.547 8.35226H162.089V31.7523H167.392V35.1198H153.164V31.7523H158.317V4.93976H153.164V1.57227H164.279L181.154 26.0448H181.612V4.93976H176.309V1.57227H190.537V4.93976H185.384V35.9373H181.514L162.547 8.35226Z" fill="#A93439"/>
<path d="M1.34766 51.6263H3.06516V43.4888H1.34766V42.4688H6.37265V43.4888H4.65515V51.6263H6.37265V52.6463H1.34766V51.6263Z" fill="#D1D5DB"/>
<path d="M7.4375 51.6266H8.57V46.5866H7.4375V45.5666H9.9875V47.3591C10.79 46.0316 11.63 45.4766 12.65 45.4766C13.775 45.4766 14.54 46.2941 14.54 47.6891V51.6341H15.665V52.6541H12.05V51.6341H13.085V48.2141C13.085 47.6891 12.9575 47.2391 12.695 46.9766C12.4925 46.7741 12.215 46.6691 11.8625 46.6691C10.9925 46.6691 10.025 47.5241 10.025 48.9416V51.6341H11.06V52.6541H7.445V51.6266H7.4375Z" fill="#D1D5DB"/>
<path d="M17.4503 52.0239C16.7678 51.3489 16.4453 50.3064 16.4453 49.2114C16.4453 48.0639 16.8503 46.8939 17.5103 46.2264C18.0203 45.7164 18.6728 45.4389 19.4453 45.4389C20.4803 45.4389 21.1628 45.9489 21.6128 46.6764V43.1364H20.4353V42.0264H23.0603V51.6264H24.0953V52.6464H21.6353V51.1914C21.1103 52.2564 20.2553 52.7814 19.3178 52.7814C18.5903 52.7814 17.9078 52.4889 17.4503 52.0239ZM21.6353 49.0914C21.6353 47.6814 21.0803 46.4139 19.8278 46.4139C18.6953 46.4139 18.0503 47.4039 18.0503 49.0914C18.0503 50.8389 18.8678 51.8139 19.8278 51.8139C20.7578 51.8139 21.6353 50.8239 21.6353 49.0914Z" fill="#D1D5DB"/>
<path d="M26.3983 49.1963C26.4433 50.9438 27.2008 51.8138 28.5658 51.8138C29.4358 51.8138 30.0808 51.4463 30.5158 50.5013H31.2583C30.8533 52.0163 29.7433 52.7888 28.1833 52.7888C26.0158 52.7888 24.8008 51.2288 24.8008 49.1888C24.8008 47.0663 26.2708 45.4463 28.2808 45.4463C30.3958 45.4463 31.3408 47.3363 31.2958 49.2038L26.3983 49.1963ZM26.4208 48.4688H29.8108C29.6983 47.1563 29.2558 46.2563 28.1683 46.2563C27.1933 46.2563 26.5408 46.8788 26.4208 48.4688Z" fill="#D1D5DB"/>
<path d="M32.0156 54.0035H33.1481V46.5785H32.0156V45.5585H34.5656V47.186C35.0756 45.9485 36.0056 45.4385 36.9506 45.4385C37.6931 45.4385 38.2931 45.716 38.7581 46.181C39.4106 46.8335 39.7031 47.8385 39.7031 48.9935C39.7031 50.156 39.3131 51.221 38.6681 51.866C38.1881 52.346 37.5431 52.6385 36.8756 52.6385C35.7956 52.6385 35.0381 52.0685 34.6031 51.311V53.996H36.0881V55.016H32.0231L32.0156 54.0035ZM38.0906 48.9185C38.0906 47.201 37.3781 46.4135 36.4181 46.4135C35.5181 46.4135 34.5656 47.5385 34.5656 49.166C34.5656 50.576 35.1806 51.671 36.3731 51.671C37.4756 51.671 38.0906 50.711 38.0906 48.9185Z" fill="#D1D5DB"/>
<path d="M42.4094 49.1963C42.4544 50.9438 43.2119 51.8138 44.5694 51.8138C45.4394 51.8138 46.0844 51.4463 46.5194 50.5013H47.2619C46.8569 52.0163 45.7469 52.7888 44.1869 52.7888C42.0194 52.7888 40.7969 51.2288 40.7969 49.1888C40.7969 47.0663 42.2669 45.4463 44.2769 45.4463C46.3919 45.4463 47.3369 47.3363 47.2919 49.2038L42.4094 49.1963ZM42.4244 48.4688H45.8144C45.7094 47.1563 45.2594 46.2563 44.1719 46.2563C43.1969 46.2563 42.5444 46.8788 42.4244 48.4688Z" fill="#D1D5DB"/>
<path d="M48.2676 51.6266H49.4001V46.5866H48.2676V45.5666H50.8176V47.3591C51.6201 46.0316 52.4601 45.4766 53.4801 45.4766C54.6126 45.4766 55.3626 46.2941 55.3626 47.6891V51.6341H56.4951V52.6541H52.8801V51.6341H53.9151V48.2141C53.9151 47.6891 53.7951 47.2391 53.5326 46.9766C53.3301 46.7741 53.0526 46.6691 52.7001 46.6691C51.8376 46.6691 50.8626 47.5241 50.8626 48.9416V51.6341H51.8976V52.6541H48.2751L48.2676 51.6266Z" fill="#D1D5DB"/>
<path d="M58.2726 52.0239C57.5901 51.3489 57.2676 50.3064 57.2676 49.2114C57.2676 48.0639 57.6726 46.8939 58.3326 46.2264C58.8426 45.7164 59.4876 45.4389 60.2601 45.4389C61.2951 45.4389 61.9776 45.9489 62.4276 46.6764V43.1364H61.2501V42.0264H63.8751V51.6264H64.9101V52.6464H62.4501V51.1914C61.9251 52.2564 61.0776 52.7814 60.1326 52.7814C59.4126 52.7814 58.7376 52.4889 58.2726 52.0239ZM62.4576 49.0914C62.4576 47.6814 61.9026 46.4139 60.6501 46.4139C59.5251 46.4139 58.8726 47.4039 58.8726 49.0914C58.8726 50.8389 59.6901 51.8139 60.6501 51.8139C61.5801 51.8139 62.4576 50.8239 62.4576 49.0914Z" fill="#D1D5DB"/>
<path d="M67.2186 49.1963C67.2636 50.9438 68.0211 51.8138 69.3861 51.8138C70.2486 51.8138 70.9011 51.4463 71.3361 50.5013H72.0786C71.6736 52.0163 70.5636 52.7888 69.0036 52.7888C66.8361 52.7888 65.6211 51.2288 65.6211 49.1888C65.6211 47.0663 67.0911 45.4463 69.1011 45.4463C71.2236 45.4463 72.1611 47.3363 72.1161 49.2038L67.2186 49.1963ZM67.2336 48.4688H70.6236C70.5186 47.1563 70.0686 46.2563 68.9811 46.2563C68.0061 46.2563 67.3611 46.8788 67.2336 48.4688Z" fill="#D1D5DB"/>
<path d="M73.0859 51.6266H74.2109V46.5866H73.0859V45.5666H75.6359V47.3591C76.4384 46.0316 77.2784 45.4766 78.2984 45.4766C79.4234 45.4766 80.1884 46.2941 80.1884 47.6891V51.6341H81.3209V52.6541H77.6984V51.6341H78.7334V48.2141C78.7334 47.6891 78.6059 47.2391 78.3434 46.9766C78.1409 46.7741 77.8634 46.6691 77.5109 46.6691C76.6409 46.6691 75.6734 47.5241 75.6734 48.9416V51.6341H76.7084V52.6541H73.0934L73.0859 51.6266Z" fill="#D1D5DB"/>
<path d="M84.3132 43.7207V45.6407H86.6382V46.5782H84.3132V50.7557C84.3132 51.4532 84.5157 51.7907 85.1682 51.7907C85.6032 51.7907 85.9407 51.3857 86.2482 50.5682L86.9457 50.8607C86.5407 52.2182 85.7232 52.7807 84.7332 52.7807C83.4957 52.7807 82.8582 52.0532 82.8582 50.8907V46.5782H81.4707V45.6407H82.8582V43.8782L84.3132 43.7207Z" fill="#D1D5DB"/>
<path d="M90.4551 49.1657H91.3851C92.5176 51.2357 93.2226 51.9332 94.6626 51.9332C95.8701 51.9332 96.5976 51.3107 96.5976 50.2457C96.5976 48.9932 95.2851 48.6557 93.8901 48.2507C92.3001 47.8007 90.5976 47.2607 90.5976 45.1757C90.5976 43.6607 91.8651 42.2207 93.8001 42.2207C94.6701 42.2207 95.7351 42.5882 96.3051 43.3007L96.6351 42.2657H97.6551V45.7907H96.7251C95.7801 43.7807 94.8801 43.1732 93.7251 43.1732C92.7351 43.1732 92.1201 43.7957 92.1201 44.7182C92.1201 46.0982 93.4776 46.4057 94.9026 46.7732C96.4626 47.1557 98.1201 47.6357 98.1201 49.6907C98.1201 51.4682 96.6651 52.8782 94.6851 52.8782C93.5376 52.8782 92.4726 52.4732 91.8576 51.7682L91.4826 52.8332H90.4626L90.4551 49.1657Z" fill="#D1D5DB"/>
<path d="M99.1484 49.211C99.1484 47.0135 100.723 45.4385 102.816 45.4385C104.361 45.4385 105.538 46.5035 105.538 47.4335C105.538 48.161 105.186 48.686 104.533 48.686C103.911 48.686 103.573 48.251 103.573 47.741C103.573 47.3285 103.911 46.9235 104.173 46.811C103.956 46.4735 103.491 46.1885 102.748 46.1885C101.668 46.1885 100.753 47.1785 100.753 49.016C100.753 50.7785 101.511 51.7985 102.951 51.7985C103.821 51.7985 104.526 51.2885 104.886 50.2835H105.628C105.253 51.8735 104.128 52.7735 102.568 52.7735C100.401 52.781 99.1484 51.251 99.1484 49.211Z" fill="#D1D5DB"/>
<path d="M106.287 51.6264H107.412V43.1364H106.287V42.0264H108.867V47.3289C109.67 45.9939 110.48 45.4764 111.5 45.4764C112.632 45.4764 113.39 46.2939 113.39 47.6889V51.6339H114.522V52.6539H110.907V51.6339H111.942V48.2139C111.942 47.6889 111.822 47.2389 111.56 46.9764C111.357 46.7739 111.08 46.6689 110.727 46.6689C109.857 46.6689 108.882 47.5239 108.882 48.9414V51.6339H109.917V52.6539H106.302V51.6264H106.287Z" fill="#D1D5DB"/>
<path d="M115.213 49.136C115.213 46.991 116.638 45.4385 118.753 45.4385C120.935 45.4385 122.278 46.9235 122.278 49.0685C122.278 51.2285 120.853 52.781 118.753 52.781C116.54 52.781 115.213 51.3035 115.213 49.136ZM120.673 49.106C120.673 47.1635 119.915 46.2785 118.678 46.2785C117.455 46.2785 116.825 47.1635 116.825 49.106C116.825 51.056 117.583 51.956 118.82 51.956C120.02 51.9485 120.673 51.0485 120.673 49.106Z" fill="#D1D5DB"/>
<path d="M123.305 49.136C123.305 46.991 124.73 45.4385 126.845 45.4385C129.027 45.4385 130.37 46.9235 130.37 49.0685C130.37 51.2285 128.945 52.781 126.845 52.781C124.632 52.781 123.305 51.3035 123.305 49.136ZM128.757 49.106C128.757 47.1635 128 46.2785 126.762 46.2785C125.54 46.2785 124.91 47.1635 124.91 49.106C124.91 51.056 125.667 51.956 126.905 51.956C128.112 51.9485 128.757 51.0485 128.757 49.106Z" fill="#D1D5DB"/>
<path d="M131.127 51.6264H132.409V43.1364H131.127V42.0264H133.864V51.6264H135.147V52.6464H131.127V51.6264Z" fill="#D1D5DB"/>
<path d="M138.566 51.6263H140.284V43.4888H138.566V42.4688H142.924C146.726 42.4688 148.676 44.4788 148.676 47.4038C148.676 50.2163 146.959 52.6463 143.059 52.6463H138.559L138.566 51.6263ZM143.081 51.6263C145.676 51.6263 146.824 50.4938 146.824 47.4038C146.824 44.6963 145.661 43.4888 142.924 43.4888H141.874V51.6263H143.081Z" fill="#D1D5DB"/>
<path d="M149.795 51.6264H151.077V46.5864H149.795V45.5664H152.532V51.6264H153.815V52.6464H149.795V51.6264ZM150.702 43.0764C150.702 42.4614 151.107 42.0264 151.707 42.0264C152.315 42.0264 152.712 42.4239 152.712 43.0464C152.712 43.6689 152.315 44.0814 151.707 44.0814C151.107 44.0814 150.702 43.6914 150.702 43.0764Z" fill="#D1D5DB"/>
<path d="M154.662 50.1113H155.607C155.99 51.2363 156.875 52.0313 157.865 52.0313C158.697 52.0313 159.057 51.6113 159.057 51.0413C159.057 50.4263 158.577 50.1338 157.182 49.7438C155.48 49.2638 154.782 48.6788 154.782 47.5463C154.782 46.4063 155.772 45.4463 157.227 45.4463C157.955 45.4463 158.607 45.7238 158.945 46.2638L159.102 45.4463H160.017V47.8763H159.087C158.607 46.8413 158.157 46.2038 157.205 46.2038C156.665 46.2038 156.11 46.5113 156.11 47.1038C156.11 47.7263 156.65 48.0488 157.917 48.3863C159.552 48.8363 160.332 49.3613 160.332 50.5688C160.332 51.6338 159.387 52.7963 157.797 52.7963C156.92 52.7963 156.192 52.4288 155.742 51.8663L155.57 52.7963H154.67V50.1113H154.662Z" fill="#D1D5DB"/>
<path d="M163.647 43.7207V45.6407H165.964V46.5782H163.647V50.7557C163.647 51.4532 163.849 51.7907 164.494 51.7907C164.929 51.7907 165.267 51.3857 165.574 50.5682L166.272 50.8607C165.867 52.2182 165.049 52.7807 164.059 52.7807C162.822 52.7807 162.184 52.0532 162.184 50.8907V46.5782H160.789V45.6407H162.184V43.8782L163.647 43.7207Z" fill="#D1D5DB"/>
<path d="M166.759 51.6266H167.884V46.5866H166.759V45.5666H169.309V47.2091C169.669 46.0166 170.592 45.4766 171.394 45.4766C172.182 45.4766 172.632 46.0166 172.632 46.6841C172.632 47.2241 172.227 47.6891 171.702 47.6891C171.162 47.6891 170.727 47.3666 170.727 46.7741C170.727 46.6991 170.742 46.6016 170.757 46.5116C170.059 46.4816 169.579 47.2691 169.332 48.1991V51.6341H170.674V52.6541H166.752L166.759 51.6266Z" fill="#D1D5DB"/>
<path d="M173.27 51.6264H174.552V46.5864H173.27V45.5664H176.007V51.6264H177.29V52.6464H173.27V51.6264ZM174.185 43.0764C174.185 42.4614 174.59 42.0264 175.19 42.0264C175.79 42.0264 176.195 42.4239 176.195 43.0464C176.195 43.6689 175.79 44.0814 175.19 44.0814C174.582 44.0814 174.185 43.6914 174.185 43.0764Z" fill="#D1D5DB"/>
<path d="M178.002 49.211C178.002 47.0135 179.577 45.4385 181.662 45.4385C183.214 45.4385 184.384 46.5035 184.384 47.4335C184.384 48.161 184.024 48.686 183.379 48.686C182.757 48.686 182.419 48.251 182.419 47.741C182.419 47.3285 182.764 46.9235 183.027 46.811C182.809 46.4735 182.344 46.1885 181.602 46.1885C180.522 46.1885 179.607 47.1785 179.607 49.016C179.607 50.7785 180.364 51.7985 181.804 51.7985C182.674 51.7985 183.387 51.2885 183.739 50.2835H184.482C184.114 51.8735 182.982 52.7735 181.422 52.7735C179.254 52.781 178.002 51.251 178.002 49.211Z" fill="#D1D5DB"/>
<path d="M187.731 43.7207V45.6407H190.049V46.5782H187.731V50.7557C187.731 51.4532 187.934 51.7907 188.579 51.7907C189.014 51.7907 189.351 51.3857 189.666 50.5682L190.364 50.8607C189.959 52.2182 189.141 52.7807 188.151 52.7807C186.914 52.7807 186.284 52.0532 186.284 50.8907V46.5782H184.889V45.6407H186.284V43.8782L187.731 43.7207Z" fill="#D1D5DB"/>
</svg>
