<svg width="177" height="53" viewBox="0 0 177 53" fill="none" xmlns="http://www.w3.org/2000/svg">
<g id="Group">
<g id="Group_2">
<g id="Group_3">
<path id="Vector" d="M63.4764 30.6275H55.2634L53.1924 36.3344H56.0553V38.6202H48.0859V36.3344H50.5377L58.441 15.7061H61.9283L69.3494 36.3344H72.4915V38.6202H61.8623V36.3344H65.451L63.4764 30.6275ZM56.0248 28.6217H62.7861L59.5781 19.3104H59.441L56.0248 28.6217Z" fill="#A93439"/>
<path id="Vector_2" d="M73.1369 31.7323V18.1344H69.8223V15.8486H80.0708V18.1344H76.6952V30.5919C76.6952 34.9854 78.9033 36.6806 83.1113 36.6806C84.9742 36.6806 86.2178 36.0595 87.2178 35.0515C88.3904 33.8755 88.6289 32.3534 88.6289 29.757V18.1344H85.0808V15.8486H94.4257V18.1344H91.1822V31.7374C91.1822 35.6472 87.9741 39.1803 82.0453 39.1803C76.2434 39.1752 73.1369 36.0952 73.1369 31.7323Z" fill="#A93439"/>
<path id="Vector_3" d="M95.1465 30.8363H97.2175C99.7352 35.4741 101.324 37.0319 104.532 37.0319C107.222 37.0319 108.847 35.6472 108.847 33.2596C108.847 30.4545 105.913 29.6959 102.806 28.7948C99.253 27.7919 95.4561 26.5803 95.4561 21.9068C95.4561 18.5163 98.2835 15.2988 102.598 15.2988C104.532 15.2988 106.913 16.1286 108.187 17.7221L108.913 15.4057H111.192V23.2966H109.121C107.014 18.7963 105.014 17.4472 102.425 17.4472C100.217 17.4472 98.8367 18.8319 98.8367 20.909C98.8367 23.989 101.872 24.6814 105.05 25.5112C108.537 26.3766 112.227 27.4508 112.227 32.053C112.227 36.0341 108.984 39.1803 104.568 39.1803C102.014 39.1803 99.6337 38.2792 98.253 36.6857L97.4256 39.0734H95.1465V30.8363Z" fill="#A93439"/>
<path id="Vector_4" d="M118.54 36.3395H122.54V17.7883H121.022C117.987 17.7883 117.332 18.7912 115.637 23.9483H114.018V15.8486H134.621V23.9483H132.997C131.307 18.7912 130.652 17.7883 127.616 17.7883H126.099V36.3395H130.104V38.6254H118.545L118.54 36.3395Z" fill="#A93439"/>
<path id="Vector_5" d="M137.383 36.3395H141.21V18.1345H137.383V15.8486H148.596V18.1345H144.763V36.3395H148.596V38.6254H137.383V36.3395Z" fill="#A93439"/>
<path id="Vector_6" d="M157.536 20.4508H157.226V36.3345H160.815V38.6203H151.186V36.3345H154.673V18.1344H151.186V15.8486H158.708L170.129 32.4603H170.439V18.1344H166.85V15.8486H176.479V18.1344H172.992V39.1752H170.373L157.536 20.4508Z" fill="#A93439"/>
</g>
<g id="Group_4">
<path id="Vector_7" d="M48.4355 49.8254H49.598V44.3017H48.4355V43.6094H51.8365V44.3017H50.6741V49.8254H51.8365V50.5177H48.4355V49.8254Z" fill="#414042"/>
<path id="Vector_8" d="M52.5566 49.8249H53.3231V46.4038H52.5566V45.7115H54.2825V46.9282C54.8256 46.0271 55.3941 45.6504 56.0845 45.6504C56.8459 45.6504 57.3636 46.2053 57.3636 47.1522V49.83H58.125V50.5224H55.6784V49.83H56.3789V47.5086C56.3789 47.1522 56.2926 46.8468 56.1149 46.6686C55.9779 46.5311 55.7901 46.4598 55.5515 46.4598C54.9627 46.4598 54.3079 47.0402 54.3079 48.0024V49.83H55.0084V50.5224H52.5617V49.8249H52.5566Z" fill="#414042"/>
<path id="Vector_9" d="M59.3345 50.0948C58.8726 49.6366 58.6543 48.929 58.6543 48.1857C58.6543 47.4068 58.9284 46.6126 59.3751 46.1595C59.7203 45.8133 60.1619 45.625 60.6847 45.625C61.3852 45.625 61.8471 45.9711 62.1517 46.465V44.062H61.3547V43.3086H63.1313V49.825H63.8318V50.5173H62.1669V49.5297C61.8116 50.2526 61.2329 50.609 60.5984 50.609C60.106 50.609 59.6441 50.4104 59.3345 50.0948ZM62.1669 48.1042C62.1669 47.1471 61.7913 46.2868 60.9436 46.2868C60.1771 46.2868 59.7406 46.9588 59.7406 48.1042C59.7406 49.2904 60.2939 49.9522 60.9436 49.9522C61.573 49.9522 62.1669 49.2802 62.1669 48.1042Z" fill="#414042"/>
<path id="Vector_10" d="M65.3898 48.1753C65.4202 49.3615 65.9329 49.9521 66.8568 49.9521C67.4456 49.9521 67.8821 49.7026 68.1765 49.0612H68.679C68.4049 50.0895 67.6537 50.6139 66.5979 50.6139C65.1309 50.6139 64.3086 49.555 64.3086 48.1702C64.3086 46.7295 65.3035 45.6299 66.6639 45.6299C68.0953 45.6299 68.7349 46.9128 68.7044 48.1804L65.3898 48.1753ZM65.405 47.6815H67.6994C67.6232 46.7906 67.3237 46.1797 66.5877 46.1797C65.9278 46.1797 65.4862 46.6022 65.405 47.6815Z" fill="#414042"/>
<path id="Vector_11" d="M69.1914 51.4388H69.9579V46.3988H69.1914V45.7065H70.9173V46.8112C71.2624 45.9712 71.8919 45.625 72.5314 45.625C73.034 45.625 73.44 45.8134 73.7548 46.129C74.1964 46.5719 74.3943 47.2541 74.3943 48.0381C74.3943 48.8272 74.1304 49.5501 73.6938 49.9879C73.369 50.3137 72.9324 50.5123 72.4807 50.5123C71.7497 50.5123 71.237 50.1254 70.9426 49.6112V51.4337H71.9477V52.1261H69.1965L69.1914 51.4388ZM73.303 47.9872C73.303 46.8214 72.8208 46.2868 72.171 46.2868C71.5619 46.2868 70.9173 47.0505 70.9173 48.1552C70.9173 49.1123 71.3335 49.8555 72.1406 49.8555C72.8868 49.8555 73.303 49.2039 73.303 47.9872Z" fill="#414042"/>
<path id="Vector_12" d="M76.2261 48.1753C76.2566 49.3615 76.7693 49.9521 77.688 49.9521C78.2768 49.9521 78.7134 49.7026 79.0078 49.0612H79.5103C79.2362 50.0895 78.4849 50.6139 77.4291 50.6139C75.9622 50.6139 75.1348 49.555 75.1348 48.1702C75.1348 46.7295 76.1297 45.6299 77.4901 45.6299C78.9215 45.6299 79.5611 46.9128 79.5306 48.1804L76.2261 48.1753ZM76.2363 47.6815H78.5306C78.4596 46.7906 78.155 46.1797 77.419 46.1797C76.7591 46.1797 76.3175 46.6022 76.2363 47.6815Z" fill="#414042"/>
<path id="Vector_13" d="M80.1914 49.8249H80.9579V46.4038H80.1914V45.7115H81.9173V46.9282C82.4604 46.0271 83.0289 45.6504 83.7192 45.6504C84.4857 45.6504 84.9933 46.2053 84.9933 47.1522V49.83H85.7598V50.5224H83.3132V49.83H84.0137V47.5086C84.0137 47.1522 83.9324 46.8468 83.7548 46.6686C83.6177 46.5311 83.4299 46.4598 83.1913 46.4598C82.6076 46.4598 81.9477 47.0402 81.9477 48.0024V49.83H82.6482V50.5224H80.1965L80.1914 49.8249Z" fill="#414042"/>
<path id="Vector_14" d="M86.9634 50.0948C86.5015 49.6366 86.2832 48.929 86.2832 48.1857C86.2832 47.4068 86.5573 46.6126 87.004 46.1595C87.3492 45.8133 87.7857 45.625 88.3085 45.625C89.009 45.625 89.4709 45.9711 89.7755 46.465V44.062H88.9786V43.3086H90.7552V49.825H91.4557V50.5173H89.7907V49.5297C89.4354 50.2526 88.8618 50.609 88.2222 50.609C87.7349 50.609 87.2781 50.4104 86.9634 50.0948ZM89.7958 48.1042C89.7958 47.1471 89.4202 46.2868 88.5725 46.2868C87.8111 46.2868 87.3695 46.9588 87.3695 48.1042C87.3695 49.2904 87.9228 49.9522 88.5725 49.9522C89.2019 49.9522 89.7958 49.2802 89.7958 48.1042Z" fill="#414042"/>
<path id="Vector_15" d="M93.0187 48.1753C93.0492 49.3615 93.5618 49.9521 94.4857 49.9521C95.0694 49.9521 95.511 49.7026 95.8054 49.0612H96.308C96.0338 50.0895 95.2826 50.6139 94.2268 50.6139C92.7598 50.6139 91.9375 49.555 91.9375 48.1702C91.9375 46.7295 92.9324 45.6299 94.2928 45.6299C95.7293 45.6299 96.3638 46.9128 96.3333 48.1804L93.0187 48.1753ZM93.0288 47.6815H95.3232C95.2521 46.7906 94.9476 46.1797 94.2116 46.1797C93.5517 46.1797 93.1151 46.6022 93.0288 47.6815Z" fill="#414042"/>
<path id="Vector_16" d="M96.9883 49.8249H97.7497V46.4038H96.9883V45.7115H98.7141V46.9282C99.2573 46.0271 99.8258 45.6504 100.516 45.6504C101.278 45.6504 101.795 46.2053 101.795 47.1522V49.83H102.562V50.5224H100.11V49.83H100.811V47.5086C100.811 47.1522 100.724 46.8468 100.547 46.6686C100.41 46.5311 100.222 46.4598 99.9831 46.4598C99.3943 46.4598 98.7395 47.0402 98.7395 48.0024V49.83H99.44V50.5224H96.9934L96.9883 49.8249Z" fill="#414042"/>
<path id="Vector_17" d="M104.586 44.459V45.7623H106.159V46.3986H104.586V49.2343C104.586 49.7077 104.723 49.9368 105.165 49.9368C105.459 49.9368 105.687 49.6619 105.896 49.107L106.368 49.3055C106.094 50.227 105.54 50.6088 104.87 50.6088C104.033 50.6088 103.601 50.115 103.601 49.3259V46.3986H102.662V45.7623H103.601V44.5659L104.586 44.459Z" fill="#414042"/>
<path id="Vector_18" d="M108.744 48.1556H109.374C110.14 49.5607 110.617 50.0341 111.592 50.0341C112.409 50.0341 112.901 49.6116 112.901 48.8887C112.901 48.0385 112.013 47.8094 111.069 47.5345C109.993 47.229 108.841 46.8625 108.841 45.4472C108.841 44.4189 109.698 43.4414 111.008 43.4414C111.597 43.4414 112.318 43.6909 112.703 44.1745L112.927 43.472H113.617V45.8647H112.988C112.348 44.5003 111.739 44.0879 110.957 44.0879C110.287 44.0879 109.871 44.5105 109.871 45.1367C109.871 46.0734 110.79 46.2821 111.754 46.5316C112.81 46.7912 113.932 47.117 113.932 48.512C113.932 49.7185 112.947 50.6756 111.607 50.6756C110.83 50.6756 110.11 50.4007 109.693 49.9221L109.44 50.645H108.749L108.744 48.1556Z" fill="#414042"/>
<path id="Vector_19" d="M114.627 48.1857C114.627 46.6941 115.693 45.625 117.109 45.625C118.155 45.625 118.952 46.3479 118.952 46.9792C118.952 47.473 118.713 47.8294 118.272 47.8294C117.85 47.8294 117.622 47.5341 117.622 47.1879C117.622 46.9079 117.85 46.633 118.028 46.5566C117.881 46.3275 117.566 46.1341 117.063 46.1341C116.332 46.1341 115.713 46.8061 115.713 48.0534C115.713 49.2497 116.226 49.9421 117.2 49.9421C117.789 49.9421 118.266 49.5959 118.51 48.9137H119.013C118.759 49.993 117.997 50.6039 116.942 50.6039C115.475 50.609 114.627 49.5705 114.627 48.1857Z" fill="#414042"/>
<path id="Vector_20" d="M119.459 49.825H120.22V44.0621H119.459V43.3086H121.205V46.9079C121.748 46.0017 122.296 45.6504 122.987 45.6504C123.753 45.6504 124.266 46.2053 124.266 47.1522V49.83H125.032V50.5224H122.586V49.83H123.286V47.5086C123.286 47.1522 123.205 46.8468 123.027 46.6686C122.89 46.5311 122.703 46.4599 122.464 46.4599C121.875 46.4599 121.215 47.0402 121.215 48.0024V49.83H121.916V50.5224H119.469V49.825H119.459Z" fill="#414042"/>
<path id="Vector_21" d="M125.5 48.1348C125.5 46.6788 126.464 45.625 127.896 45.625C129.373 45.625 130.282 46.633 130.282 48.089C130.282 49.5552 129.317 50.609 127.896 50.609C126.398 50.609 125.5 49.6061 125.5 48.1348ZM129.195 48.1145C129.195 46.7959 128.683 46.1952 127.845 46.1952C127.018 46.1952 126.591 46.7959 126.591 48.1145C126.591 49.4381 127.104 50.049 127.942 50.049C128.754 50.0439 129.195 49.433 129.195 48.1145Z" fill="#414042"/>
<path id="Vector_22" d="M130.977 48.1348C130.977 46.6788 131.941 45.625 133.372 45.625C134.85 45.625 135.758 46.633 135.758 48.089C135.758 49.5552 134.794 50.609 133.372 50.609C131.875 50.609 130.977 49.6061 130.977 48.1348ZM134.667 48.1145C134.667 46.7959 134.154 46.1952 133.317 46.1952C132.489 46.1952 132.063 46.7959 132.063 48.1145C132.063 49.4381 132.576 50.049 133.413 50.049C134.23 50.0439 134.667 49.433 134.667 48.1145Z" fill="#414042"/>
<path id="Vector_23" d="M136.271 49.825H137.139V44.062H136.271V43.3086H138.124V49.825H138.992V50.5173H136.271V49.825Z" fill="#414042"/>
<path id="Vector_24" d="M141.306 49.8254H142.468V44.3017H141.306V43.6094H144.255C146.829 43.6094 148.148 44.9737 148.148 46.9592C148.148 48.8683 146.986 50.5177 144.346 50.5177H141.301L141.306 49.8254ZM144.362 49.8254C146.118 49.8254 146.895 49.0566 146.895 46.9592C146.895 45.1214 146.108 44.3017 144.255 44.3017H143.544V49.8254H144.362Z" fill="#414042"/>
<path id="Vector_25" d="M148.906 49.825H149.774V46.4039H148.906V45.7115H150.759V49.825H151.627V50.5173H148.906V49.825ZM149.52 44.0213C149.52 43.6039 149.795 43.3086 150.201 43.3086C150.612 43.3086 150.881 43.5784 150.881 44.001C150.881 44.4235 150.612 44.7035 150.201 44.7035C149.795 44.7035 149.52 44.4388 149.52 44.0213Z" fill="#414042"/>
<path id="Vector_26" d="M152.199 48.7964H152.839C153.098 49.5601 153.697 50.0997 154.367 50.0997C154.93 50.0997 155.174 49.8146 155.174 49.4277C155.174 49.0102 154.849 48.8117 153.905 48.547C152.752 48.2212 152.28 47.8241 152.28 47.0553C152.28 46.2815 152.95 45.6299 153.935 45.6299C154.428 45.6299 154.869 45.8182 155.098 46.1848L155.204 45.6299H155.824V47.2793H155.194C154.869 46.5768 154.565 46.1441 153.92 46.1441C153.555 46.1441 153.179 46.3528 153.179 46.755C153.179 47.1775 153.544 47.3964 154.402 47.6255C155.509 47.931 156.037 48.2873 156.037 49.107C156.037 49.8299 155.397 50.619 154.321 50.619C153.727 50.619 153.235 50.3695 152.93 49.9877L152.813 50.619H152.204V48.7964H152.199Z" fill="#414042"/>
<path id="Vector_27" d="M158.282 44.459V45.7623H159.85V46.3986H158.282V49.2343C158.282 49.7077 158.419 49.9368 158.855 49.9368C159.15 49.9368 159.378 49.6619 159.586 49.107L160.058 49.3055C159.784 50.227 159.231 50.6088 158.561 50.6088C157.723 50.6088 157.292 50.115 157.292 49.3259V46.3986H156.348V45.7623H157.292V44.5659L158.282 44.459Z" fill="#414042"/>
<path id="Vector_28" d="M160.388 49.8249H161.149V46.4038H160.388V45.7115H162.114V46.8264C162.357 46.0169 162.982 45.6504 163.525 45.6504C164.058 45.6504 164.362 46.0169 164.362 46.47C164.362 46.8366 164.088 47.1522 163.733 47.1522C163.368 47.1522 163.073 46.9333 163.073 46.5311C163.073 46.4802 163.083 46.414 163.093 46.3529C162.621 46.3326 162.296 46.8671 162.129 47.4984V49.83H163.038V50.5224H160.383L160.388 49.8249Z" fill="#414042"/>
<path id="Vector_29" d="M164.793 49.825H165.661V46.4039H164.793V45.7115H166.646V49.825H167.514V50.5173H164.793V49.825ZM165.412 44.0213C165.412 43.6039 165.686 43.3086 166.092 43.3086C166.499 43.3086 166.773 43.5784 166.773 44.001C166.773 44.4235 166.499 44.7035 166.092 44.7035C165.681 44.7035 165.412 44.4388 165.412 44.0213Z" fill="#414042"/>
<path id="Vector_30" d="M167.996 48.1857C167.996 46.6941 169.062 45.625 170.473 45.625C171.524 45.625 172.316 46.3479 172.316 46.9792C172.316 47.473 172.072 47.8294 171.636 47.8294C171.214 47.8294 170.986 47.5341 170.986 47.1879C170.986 46.9079 171.219 46.633 171.397 46.5566C171.25 46.3275 170.935 46.1341 170.433 46.1341C169.702 46.1341 169.082 46.8061 169.082 48.0534C169.082 49.2497 169.595 49.9421 170.57 49.9421C171.158 49.9421 171.641 49.5959 171.879 48.9137H172.382C172.133 49.993 171.367 50.6039 170.311 50.6039C168.844 50.609 167.996 49.5705 167.996 48.1857Z" fill="#414042"/>
<path id="Vector_31" d="M174.58 44.459V45.7623H176.149V46.3986H174.58V49.2343C174.58 49.7077 174.717 49.9368 175.154 49.9368C175.448 49.9368 175.676 49.6619 175.89 49.107L176.362 49.3055C176.088 50.227 175.534 50.6088 174.864 50.6088C174.027 50.6088 173.6 50.115 173.6 49.3259V46.3986H172.656V45.7623H173.6V44.5659L174.58 44.459Z" fill="#414042"/>
</g>
</g>
<g id="Group_5">
<path id="Vector_32" d="M31.9481 50.2069C31.8415 46.012 31.9481 37.7037 31.9227 37.444H30.9989C30.9836 36.0898 30.9684 33.0302 30.9684 33.0302C30.9684 33.0302 31.0293 28.988 29.5776 25.7247C28.1258 22.4615 25.466 21.8455 25.466 21.8455C25.5015 21.8455 25.2782 21.3211 25.6792 21.3211C25.5675 21.2957 25.0294 21.3364 25.0294 21.3109C25.0294 20.5168 25.0193 18.5924 25.0193 18.5924V17.8949C25.0294 17.8695 25.0396 17.844 25.0548 17.8135H21.9432C21.9635 17.8542 21.9788 17.8898 21.9991 17.9306V18.628C21.9991 18.628 21.9838 20.5473 21.9838 21.3466C21.9838 21.3771 21.4407 21.3313 21.3341 21.3568C21.7351 21.3568 21.5067 21.8811 21.5473 21.8811C21.5473 21.8811 19.0651 22.3749 17.3697 25.7247C15.6693 29.0797 15.9484 36.1 15.9231 37.4593L15.0703 37.4695C15.0398 37.7291 15.1363 46.0069 15.0195 50.2069H16.8266V46.5771C16.8266 46.5771 17.0144 45.5131 18.1464 45.5131C19.2783 45.5131 19.5575 46.5771 19.5575 46.5771V50.2069H21.6488V45.4775H25.4812V50.2069H27.3898V46.5771C27.3898 46.5771 27.5725 45.5131 28.7096 45.5131C29.8415 45.5131 30.1207 46.5771 30.1207 46.5771V50.2069H31.9481ZM17.2124 34.7102C17.2124 34.7102 17.319 34.028 17.9687 34.028C18.6184 34.028 18.7758 34.7102 18.7758 34.7102V37.108H17.2124V34.7102ZM19.06 43.2935H16.8063V40.2695C16.8063 40.2695 16.9636 39.4193 17.8976 39.4193C18.8316 39.4193 19.06 40.2695 19.06 40.2695V43.2935ZM18.8113 29.1255C18.7859 29.268 18.7606 29.4513 18.7352 29.6193H17.8824C17.9179 29.4564 17.9484 29.2629 17.9839 29.0644C18.0854 28.4789 18.2073 28.1124 18.2073 28.1124H19.0753C19.0804 28.1124 18.8722 28.7589 18.8113 29.1255ZM26.3492 28.148C26.3492 28.148 26.4406 28.4688 26.5167 29.0491C26.5421 29.2528 26.5624 29.4513 26.5776 29.6193H25.6183C25.5777 29.3546 25.5218 29.0491 25.4761 28.876C25.3797 28.5095 25.3492 28.148 25.3492 28.148H26.3492ZM23.0193 28.148H24.0041L23.9787 29.6193H23.0092L23.0193 28.148ZM22.6183 34.6949C22.6183 34.6949 22.8315 34.0026 23.4762 34.0026C24.1259 34.0026 24.3797 34.6949 24.3797 34.6949V37.1029H22.6183V34.6949ZM20.4864 29.0848C20.5625 28.5044 20.6539 28.1837 20.6539 28.1837H21.659C21.659 28.1837 21.6234 28.5451 21.527 28.9117C21.4813 29.0848 21.4356 29.3698 21.395 29.6244H20.4356C20.4458 29.4615 20.461 29.2782 20.4864 29.0848ZM19.9179 34.6949C19.9179 34.6949 20.0245 34.0127 20.6742 34.0127C21.324 34.0127 21.4813 34.6949 21.4813 34.6949V37.1029H19.9179V34.6949ZM22.7706 43.2935H20.5169V40.2389C20.5169 40.2389 20.6691 39.3888 21.6031 39.3888C22.5371 39.3888 22.7655 40.2389 22.7655 40.2389L22.7706 43.2935ZM26.4812 43.2935H24.2274V40.2389C24.2274 40.2389 24.3797 39.3888 25.3137 39.3888C26.2477 39.3888 26.4761 40.2389 26.4761 40.2389L26.4812 43.2935ZM27.0852 37.1029H25.5218V34.6949C25.5218 34.6949 25.6284 34.0127 26.2782 34.0127C26.9228 34.0127 27.0852 34.6949 27.0852 34.6949V37.1029ZM29.7857 34.6949V37.1029H28.2223V34.6949C28.2223 34.6949 28.3289 34.0127 28.9786 34.0127C29.6283 34.0127 29.7857 34.6949 29.7857 34.6949ZM28.8009 28.1582C28.8009 28.1582 28.9228 28.5197 29.0243 29.1102C29.0547 29.2986 29.0903 29.4717 29.1156 29.6244H28.268C28.2476 29.4717 28.2273 29.3037 28.202 29.1713C28.136 28.7997 27.9329 28.1633 27.9329 28.1633H28.8009V28.1582ZM27.9431 43.2935V40.2389C27.9431 40.2389 28.0954 39.3888 29.0294 39.3888C29.9633 39.3888 30.1918 40.2389 30.1918 40.2389V43.2935H27.9431Z" fill="white"/>
<g id="Group_6">
<path id="Vector_33" d="M33.0452 4.70958C33.0503 4.53649 33.0503 4.3634 33.0503 4.19031C33.0351 3.49795 32.964 2.80558 32.8726 2.11831C32.7965 1.54304 32.7407 0.937218 32.5732 0.377218C32.563 0.341582 32.4869 0.0564906 32.426 0.0666724C30.9691 0.204127 29.1773 0.952491 27.9083 1.62449C24.8271 3.25867 23.2383 6.70013 23.5328 10.1009C23.614 11.0019 23.7561 11.903 23.9845 12.7838C24.0962 13.2012 24.4363 15.0798 24.4414 15.0798C27.0707 14.4332 30.2179 12.0659 31.6747 9.63758C32.4158 8.40049 32.8523 6.92922 32.9945 5.46304C33.0198 5.21358 33.0351 4.95904 33.0452 4.70958Z" fill="#009D4E"/>
</g>
<g id="Group_7">
<path id="Vector_34" d="M21.4579 37.1029V34.6949C21.4579 34.6949 21.3006 34.0127 20.6509 34.0127C20.0011 34.0127 19.8945 34.6949 19.8945 34.6949V37.1029H21.4579Z" fill="#A93439"/>
<path id="Vector_35" d="M27.0615 37.1029V34.6949C27.0615 34.6949 26.9041 34.0127 26.2544 34.0127C25.6046 34.0127 25.498 34.6949 25.498 34.6949V37.1029H27.0615Z" fill="#A93439"/>
<path id="Vector_36" d="M29.7665 37.1029V34.6949C29.7665 34.6949 29.6092 34.0127 28.9595 34.0127C28.3097 34.0127 28.2031 34.6949 28.2031 34.6949V37.1029H29.7665Z" fill="#A93439"/>
<path id="Vector_37" d="M24.361 37.1033V34.6953C24.361 34.6953 24.1072 34.0029 23.4625 34.0029C22.8128 34.0029 22.5996 34.6953 22.5996 34.6953V37.1033H24.361Z" fill="#A93439"/>
<path id="Vector_38" d="M18.7568 37.1034V34.7056C18.7568 34.7056 18.5994 34.0234 17.9497 34.0234C17.3 34.0234 17.1934 34.7056 17.1934 34.7056V37.1034H18.7568Z" fill="#A93439"/>
</g>
<g id="Group_8">
<g id="Group_9">
<path id="Vector_39" d="M19.0358 43.2931V40.2691C19.0358 40.2691 18.8074 39.4189 17.8734 39.4189C16.9394 39.4189 16.7871 40.2691 16.7871 40.2691V43.2931H19.0358Z" fill="#A93439"/>
</g>
<g id="Group_10">
<path id="Vector_40" d="M22.7506 43.2934V40.2389C22.7506 40.2389 22.5222 39.3887 21.5882 39.3887C20.6542 39.3887 20.502 40.2389 20.502 40.2389V43.2934H22.7506Z" fill="#A93439"/>
</g>
<g id="Group_11">
<path id="Vector_41" d="M26.4616 43.2934V40.2389C26.4616 40.2389 26.2331 39.3887 25.2992 39.3887C24.3652 39.3887 24.2129 40.2389 24.2129 40.2389V43.2934H26.4616Z" fill="#A93439"/>
</g>
<g id="Group_12">
<path id="Vector_42" d="M30.1725 43.2934V40.2389C30.1725 40.2389 29.9441 39.3887 29.0101 39.3887C28.0761 39.3887 27.9238 40.2389 27.9238 40.2389V43.2934H30.1725Z" fill="#A93439"/>
</g>
</g>
<g id="Group_13">
<path id="Vector_43" d="M19.5219 50.4613V46.5718C19.5219 46.5718 19.2427 45.5078 18.1108 45.5078C16.9788 45.5078 16.791 46.5718 16.791 46.5718V50.4613H19.5219Z" fill="#A93439"/>
</g>
<g id="Group_14">
<path id="Vector_44" d="M30.0805 50.462V46.5777C30.0805 46.5777 29.8013 45.5137 28.6694 45.5137C27.5374 45.5137 27.3496 46.5777 27.3496 46.5777V50.462H30.0805Z" fill="#A93439"/>
</g>
<g id="Group_15">
<path id="Vector_45" d="M23.9539 29.5125L23.9793 28.0361H22.9945L22.9844 29.5125H23.9539Z" fill="#A93439"/>
<path id="Vector_46" d="M25.6022 29.5125H26.5565C26.5413 29.3445 26.521 29.146 26.4956 28.9423C26.4195 28.3569 26.3281 28.0361 26.3281 28.0361H25.3281C25.3281 28.0361 25.3637 28.3976 25.455 28.7641C25.5058 28.9423 25.5565 29.2427 25.6022 29.5125Z" fill="#A93439"/>
<path id="Vector_47" d="M21.3695 29.513C21.4101 29.2584 21.4558 28.9734 21.5015 28.8003C21.5979 28.4286 21.6335 28.0723 21.6335 28.0723H20.6335C20.6335 28.0723 20.5421 28.393 20.466 28.9734C20.4406 29.1668 20.4203 29.3501 20.4102 29.513H21.3695Z" fill="#A93439"/>
<path id="Vector_48" d="M18.7149 29.513C18.7403 29.3399 18.7656 29.1566 18.791 29.0141C18.857 28.6475 19.0601 28.001 19.0601 28.001H18.1921C18.1921 28.001 18.0702 28.3624 17.9687 28.953C17.9332 29.1515 17.8976 29.345 17.8672 29.513H18.7149Z" fill="#A93439"/>
<path id="Vector_49" d="M28.242 29.5131H29.0948C29.0644 29.3603 29.0339 29.1872 29.0035 28.9989C28.9019 28.4134 28.7801 28.0469 28.7801 28.0469H27.9121C27.9121 28.0469 28.1151 28.6883 28.1811 29.0549C28.2014 29.1923 28.2268 29.3552 28.242 29.5131Z" fill="#A93439"/>
</g>
<path id="Vector_50" d="M24.9941 18.5873C24.9941 18.5873 25.0043 20.5066 25.0043 21.3059C25.0043 21.3313 25.5424 21.2906 25.654 21.3212C25.253 21.3212 25.4764 21.8455 25.4408 21.8455C25.4408 21.8455 28.1007 22.4666 29.5524 25.7248C31.0041 28.9881 30.9432 33.0353 30.9432 33.0353C30.9432 33.0353 30.9534 36.0899 30.9686 37.4492H31.8925C31.9229 37.7139 31.8112 46.0172 31.9229 50.2121C36.4203 47.0048 40.5826 43.3903 43.278 38.2993C45.6688 33.7786 46.9886 27.2572 45.5013 22.1815C43.1054 13.975 29.2377 8.1408 24.9941 17.9001V18.5873Z" fill="#A93439"/>
<path id="Vector_51" d="M21.9692 18.6231C21.9692 18.6231 21.954 20.5423 21.954 21.3416C21.954 21.3722 21.4159 21.3263 21.3043 21.3518C21.7053 21.3518 21.4768 21.8762 21.5175 21.8762C21.5175 21.8762 19.0353 22.37 17.3399 25.7198C15.6394 29.0696 15.9186 36.0951 15.8983 37.4543L15.0455 37.4645C15.0151 37.7242 15.1115 46.0325 14.9948 50.2223C10.5076 47.01 6.35537 43.3853 3.67523 38.2842C1.29457 33.7583 -0.00996429 27.2318 1.48239 22.1613C3.8935 13.9598 17.7612 8.15616 21.9844 17.9205L21.9692 18.6231Z" fill="#A93439"/>
<path id="Vector_52" d="M32.8118 30.6787H14.1523V31.4423H32.8118V30.6787Z" fill="#A93439"/>
<path id="Vector_53" d="M32.8118 31.8594H14.1523V32.623H32.8118V31.8594Z" fill="#A93439"/>
<path id="Vector_54" d="M23.1732 17.8135H22.625V21.3517H23.1732V17.8135Z" fill="#A93439"/>
<path id="Vector_55" d="M24.3353 17.8135H23.7871V21.3517H24.3353V17.8135Z" fill="#A93439"/>
<path id="Vector_56" d="M25.2236 45.4775H21.8379V50.431H25.2236V45.4775Z" fill="#A93439"/>
<path id="Vector_57" d="M23.7204 16.1894C23.7204 16.1894 23.4057 4.64318 12.8324 0.422821C12.2385 0.183548 8.62434 1.20173 9.20809 1.47664C20.8931 4.78573 22.6494 14.0461 23.2331 16.1894H23.7204Z" fill="#683817"/>
</g>
</g>
</svg>
