<svg width="183" height="56" viewBox="0 0 183 56" fill="none" xmlns="http://www.w3.org/2000/svg">
<path d="M66.4755 32.6275H58.2625L56.1914 38.3344H59.0543V40.6202H51.085V38.3344H53.5367L61.44 17.7061H64.9273L72.3484 38.3344H75.4905V40.6202H64.8613V38.3344H68.45L66.4755 32.6275ZM59.0239 30.6217H65.7851L62.5771 21.3104H62.44L59.0239 30.6217Z" fill="white"/>
<path d="M76.135 33.7323V20.1344H72.8203V17.8486H83.0688V20.1344H79.6932V32.5919C79.6932 36.9854 81.9013 38.6806 86.1093 38.6806C87.9722 38.6806 89.2159 38.0595 90.2158 37.0515C91.3884 35.8755 91.627 34.3534 91.627 31.757V20.1344H88.0788V17.8486H97.4238V20.1344H94.1802V33.7374C94.1802 37.6472 90.9722 41.1803 85.0434 41.1803C79.2415 41.1752 76.135 38.0952 76.135 33.7323Z" fill="white"/>
<path d="M98.1445 32.8363H100.216C102.733 37.4741 104.322 39.0319 107.53 39.0319C110.22 39.0319 111.845 37.6472 111.845 35.2596C111.845 32.4545 108.911 31.6959 105.804 30.7948C102.251 29.7919 98.4542 28.5803 98.4542 23.9068C98.4542 20.5163 101.282 17.2988 105.596 17.2988C107.53 17.2988 109.911 18.1286 111.185 19.7221L111.911 17.4057H114.19V25.2966H112.119C110.012 20.7963 108.012 19.4472 105.424 19.4472C103.215 19.4472 101.835 20.8319 101.835 22.909C101.835 25.989 104.87 26.6814 108.048 27.5112C111.535 28.3766 115.225 29.4508 115.225 34.053C115.225 38.0341 111.982 41.1803 107.566 41.1803C105.012 41.1803 102.632 40.2792 101.251 38.6857L100.424 41.0734H98.1445V32.8363Z" fill="white"/>
<path d="M121.54 38.3395H125.54V19.7883H124.022C120.987 19.7883 120.332 20.7912 118.637 25.9483H117.018V17.8486H137.621V25.9483H135.997C134.307 20.7912 133.652 19.7883 130.616 19.7883H129.099V38.3395H133.104V40.6254H121.545L121.54 38.3395Z" fill="white"/>
<path d="M140.383 38.3395H144.21V20.1345H140.383V17.8486H151.596V20.1345H147.763V38.3395H151.596V40.6254H140.383V38.3395Z" fill="white"/>
<path d="M160.534 22.4508H160.224V38.3345H163.813V40.6203H154.184V38.3345H157.671V20.1344H154.184V17.8486H161.706L173.127 34.4603H173.437V20.1344H169.848V17.8486H179.477V20.1344H175.99V41.1752H173.371L160.534 22.4508Z" fill="white"/>
<path d="M51.4355 51.8254H52.598V46.3017H51.4355V45.6094H54.8365V46.3017H53.6741V51.8254H54.8365V52.5177H51.4355V51.8254Z" fill="white"/>
<path d="M55.5576 51.8249H56.3241V48.4038H55.5576V47.7115H57.2835V48.9282C57.8266 48.0271 58.3951 47.6504 59.0855 47.6504C59.8469 47.6504 60.3646 48.2053 60.3646 49.1522V51.83H61.126V52.5224H58.6794V51.83H59.3799V49.5086C59.3799 49.1522 59.2936 48.8468 59.1159 48.6686C58.9789 48.5311 58.791 48.4598 58.5525 48.4598C57.9637 48.4598 57.3088 49.0402 57.3088 50.0024V51.83H58.0093V52.5224H55.5627V51.8249H55.5576Z" fill="white"/>
<path d="M62.3335 52.0948C61.8716 51.6366 61.6533 50.929 61.6533 50.1857C61.6533 49.4068 61.9274 48.6126 62.3741 48.1595C62.7193 47.8133 63.1609 47.625 63.6837 47.625C64.3842 47.625 64.8461 47.9711 65.1507 48.465V46.062H64.3538V45.3086H66.1304V51.825H66.8309V52.5173H65.1659V51.5297C64.8106 52.2526 64.2319 52.609 63.5974 52.609C63.1051 52.609 62.6431 52.4104 62.3335 52.0948ZM65.1659 50.1042C65.1659 49.1471 64.7903 48.2868 63.9426 48.2868C63.1761 48.2868 62.7396 48.9588 62.7396 50.1042C62.7396 51.2904 63.2929 51.9522 63.9426 51.9522C64.572 51.9522 65.1659 51.2802 65.1659 50.1042Z" fill="white"/>
<path d="M68.3898 50.1753C68.4202 51.3615 68.9329 51.9521 69.8568 51.9521C70.4456 51.9521 70.8821 51.7026 71.1765 51.0612H71.679C71.4049 52.0895 70.6537 52.6139 69.5979 52.6139C68.1309 52.6139 67.3086 51.555 67.3086 50.1702C67.3086 48.7295 68.3035 47.6299 69.6639 47.6299C71.0953 47.6299 71.7349 48.9128 71.7044 50.1804L68.3898 50.1753ZM68.405 49.6815H70.6994C70.6232 48.7906 70.3237 48.1797 69.5877 48.1797C68.9278 48.1797 68.4862 48.6022 68.405 49.6815Z" fill="white"/>
<path d="M72.1914 53.4388H72.9579V48.3988H72.1914V47.7065H73.9173V48.8112C74.2624 47.9712 74.8919 47.625 75.5314 47.625C76.034 47.625 76.44 47.8134 76.7548 48.129C77.1964 48.5719 77.3943 49.2541 77.3943 50.0381C77.3943 50.8272 77.1304 51.5501 76.6938 51.9879C76.369 52.3137 75.9324 52.5123 75.4807 52.5123C74.7497 52.5123 74.237 52.1254 73.9426 51.6112V53.4337H74.9477V54.1261H72.1965L72.1914 53.4388ZM76.303 49.9872C76.303 48.8214 75.8208 48.2868 75.171 48.2868C74.5619 48.2868 73.9173 49.0505 73.9173 50.1552C73.9173 51.1123 74.3335 51.8555 75.1406 51.8555C75.8868 51.8555 76.303 51.2039 76.303 49.9872Z" fill="white"/>
<path d="M79.2271 50.1753C79.2575 51.3615 79.7702 51.9521 80.689 51.9521C81.2778 51.9521 81.7143 51.7026 82.0088 51.0612H82.5113C82.2372 52.0895 81.4859 52.6139 80.4301 52.6139C78.9631 52.6139 78.1357 51.555 78.1357 50.1702C78.1357 48.7295 79.1307 47.6299 80.491 47.6299C81.9225 47.6299 82.562 48.9128 82.5316 50.1804L79.2271 50.1753ZM79.2372 49.6815H81.5316C81.4605 48.7906 81.156 48.1797 80.42 48.1797C79.7601 48.1797 79.3185 48.6022 79.2372 49.6815Z" fill="white"/>
<path d="M83.1914 51.8249H83.9579V48.4038H83.1914V47.7115H84.9173V48.9282C85.4604 48.0271 86.0289 47.6504 86.7192 47.6504C87.4857 47.6504 87.9933 48.2053 87.9933 49.1522V51.83H88.7598V52.5224H86.3132V51.83H87.0137V49.5086C87.0137 49.1522 86.9324 48.8468 86.7548 48.6686C86.6177 48.5311 86.4299 48.4598 86.1913 48.4598C85.6076 48.4598 84.9477 49.0402 84.9477 50.0024V51.83H85.6482V52.5224H83.1965L83.1914 51.8249Z" fill="white"/>
<path d="M89.9624 52.0948C89.5005 51.6366 89.2822 50.929 89.2822 50.1857C89.2822 49.4068 89.5563 48.6126 90.003 48.1595C90.3482 47.8133 90.7847 47.625 91.3076 47.625C92.0081 47.625 92.47 47.9711 92.7745 48.465V46.062H91.9776V45.3086H93.7542V51.825H94.4547V52.5173H92.7898V51.5297C92.4344 52.2526 91.8608 52.609 91.2213 52.609C90.734 52.609 90.2771 52.4104 89.9624 52.0948ZM92.7948 50.1042C92.7948 49.1471 92.4192 48.2868 91.5715 48.2868C90.8101 48.2868 90.3685 48.9588 90.3685 50.1042C90.3685 51.2904 90.9218 51.9522 91.5715 51.9522C92.2009 51.9522 92.7948 51.2802 92.7948 50.1042Z" fill="white"/>
<path d="M96.0187 50.1753C96.0492 51.3615 96.5618 51.9521 97.4857 51.9521C98.0694 51.9521 98.511 51.7026 98.8054 51.0612H99.308C99.0338 52.0895 98.2826 52.6139 97.2268 52.6139C95.7598 52.6139 94.9375 51.555 94.9375 50.1702C94.9375 48.7295 95.9324 47.6299 97.2928 47.6299C98.7293 47.6299 99.3638 48.9128 99.3333 50.1804L96.0187 50.1753ZM96.0288 49.6815H98.3232C98.2521 48.7906 97.9476 48.1797 97.2116 48.1797C96.5517 48.1797 96.1151 48.6022 96.0288 49.6815Z" fill="white"/>
<path d="M99.9873 51.8249H100.749V48.4038H99.9873V47.7115H101.713V48.9282C102.256 48.0271 102.825 47.6504 103.515 47.6504C104.277 47.6504 104.794 48.2053 104.794 49.1522V51.83H105.561V52.5224H103.109V51.83H103.81V49.5086C103.81 49.1522 103.723 48.8468 103.546 48.6686C103.409 48.5311 103.221 48.4598 102.982 48.4598C102.393 48.4598 101.739 49.0402 101.739 50.0024V51.83H102.439V52.5224H99.9924L99.9873 51.8249Z" fill="white"/>
<path d="M107.587 46.459V47.7623H109.16V48.3986H107.587V51.2343C107.587 51.7077 107.724 51.9368 108.166 51.9368C108.46 51.9368 108.688 51.6619 108.897 51.107L109.369 51.3055C109.094 52.227 108.541 52.6088 107.871 52.6088C107.034 52.6088 106.602 52.115 106.602 51.3259V48.3986H105.663V47.7623H106.602V46.5659L107.587 46.459Z" fill="white"/>
<path d="M111.744 50.1556H112.374C113.14 51.5607 113.617 52.0341 114.592 52.0341C115.409 52.0341 115.901 51.6116 115.901 50.8887C115.901 50.0385 115.013 49.8094 114.069 49.5345C112.993 49.229 111.841 48.8625 111.841 47.4472C111.841 46.4189 112.698 45.4414 114.008 45.4414C114.597 45.4414 115.318 45.6909 115.703 46.1745L115.927 45.472H116.617V47.8647H115.988C115.348 46.5003 114.739 46.0879 113.957 46.0879C113.287 46.0879 112.871 46.5105 112.871 47.1367C112.871 48.0734 113.79 48.2821 114.754 48.5316C115.81 48.7912 116.932 49.117 116.932 50.512C116.932 51.7185 115.947 52.6756 114.607 52.6756C113.83 52.6756 113.11 52.4007 112.693 51.9221L112.44 52.645H111.749L111.744 50.1556Z" fill="white"/>
<path d="M117.627 50.1857C117.627 48.6941 118.693 47.625 120.109 47.625C121.155 47.625 121.952 48.3479 121.952 48.9792C121.952 49.473 121.713 49.8294 121.272 49.8294C120.85 49.8294 120.622 49.5341 120.622 49.1879C120.622 48.9079 120.85 48.633 121.028 48.5566C120.881 48.3275 120.566 48.1341 120.063 48.1341C119.332 48.1341 118.713 48.8061 118.713 50.0534C118.713 51.2497 119.226 51.9421 120.2 51.9421C120.789 51.9421 121.266 51.5959 121.51 50.9137H122.013C121.759 51.993 120.997 52.6039 119.942 52.6039C118.475 52.609 117.627 51.5705 117.627 50.1857Z" fill="white"/>
<path d="M122.459 51.825H123.22V46.0621H122.459V45.3086H124.205V48.9079C124.748 48.0017 125.296 47.6504 125.987 47.6504C126.753 47.6504 127.266 48.2053 127.266 49.1522V51.83H128.032V52.5224H125.586V51.83H126.286V49.5086C126.286 49.1522 126.205 48.8468 126.027 48.6686C125.89 48.5311 125.703 48.4599 125.464 48.4599C124.875 48.4599 124.215 49.0402 124.215 50.0024V51.83H124.916V52.5224H122.469V51.825H122.459Z" fill="white"/>
<path d="M128.5 50.1348C128.5 48.6788 129.464 47.625 130.896 47.625C132.373 47.625 133.282 48.633 133.282 50.089C133.282 51.5552 132.317 52.609 130.896 52.609C129.398 52.609 128.5 51.6061 128.5 50.1348ZM132.195 50.1145C132.195 48.7959 131.683 48.1952 130.845 48.1952C130.018 48.1952 129.591 48.7959 129.591 50.1145C129.591 51.4381 130.104 52.049 130.942 52.049C131.754 52.0439 132.195 51.433 132.195 50.1145Z" fill="white"/>
<path d="M133.977 50.1348C133.977 48.6788 134.941 47.625 136.372 47.625C137.85 47.625 138.758 48.633 138.758 50.089C138.758 51.5552 137.794 52.609 136.372 52.609C134.875 52.609 133.977 51.6061 133.977 50.1348ZM137.667 50.1145C137.667 48.7959 137.154 48.1952 136.317 48.1952C135.489 48.1952 135.063 48.7959 135.063 50.1145C135.063 51.4381 135.576 52.049 136.413 52.049C137.23 52.0439 137.667 51.433 137.667 50.1145Z" fill="white"/>
<path d="M139.271 51.825H140.139V46.062H139.271V45.3086H141.124V51.825H141.992V52.5173H139.271V51.825Z" fill="white"/>
<path d="M144.307 51.8254H145.469V46.3017H144.307V45.6094H147.256C149.83 45.6094 151.149 46.9737 151.149 48.9592C151.149 50.8683 149.987 52.5177 147.347 52.5177H144.302L144.307 51.8254ZM147.363 51.8254C149.119 51.8254 149.896 51.0566 149.896 48.9592C149.896 47.1214 149.109 46.3017 147.256 46.3017H146.545V51.8254H147.363Z" fill="white"/>
<path d="M151.905 51.825H152.773V48.4039H151.905V47.7115H153.758V51.825H154.626V52.5173H151.905V51.825ZM152.519 46.0213C152.519 45.6039 152.794 45.3086 153.2 45.3086C153.611 45.3086 153.88 45.5784 153.88 46.001C153.88 46.4235 153.611 46.7035 153.2 46.7035C152.794 46.7035 152.519 46.4388 152.519 46.0213Z" fill="white"/>
<path d="M155.199 50.7964H155.839C156.098 51.5601 156.697 52.0997 157.367 52.0997C157.93 52.0997 158.174 51.8146 158.174 51.4277C158.174 51.0102 157.849 50.8117 156.905 50.547C155.752 50.2212 155.28 49.8241 155.28 49.0553C155.28 48.2815 155.95 47.6299 156.935 47.6299C157.428 47.6299 157.869 47.8182 158.098 48.1848L158.204 47.6299H158.824V49.2793H158.194C157.869 48.5768 157.565 48.1441 156.92 48.1441C156.555 48.1441 156.179 48.3528 156.179 48.755C156.179 49.1775 156.544 49.3964 157.402 49.6255C158.509 49.931 159.037 50.2873 159.037 51.107C159.037 51.8299 158.397 52.619 157.321 52.619C156.727 52.619 156.235 52.3695 155.93 51.9877L155.813 52.619H155.204V50.7964H155.199Z" fill="white"/>
<path d="M161.281 46.459V47.7623H162.849V48.3986H161.281V51.2343C161.281 51.7077 161.418 51.9368 161.854 51.9368C162.149 51.9368 162.377 51.6619 162.585 51.107L163.057 51.3055C162.783 52.227 162.23 52.6088 161.56 52.6088C160.722 52.6088 160.291 52.115 160.291 51.3259V48.3986H159.347V47.7623H160.291V46.5659L161.281 46.459Z" fill="white"/>
<path d="M163.387 51.8249H164.148V48.4038H163.387V47.7115H165.113V48.8264C165.356 48.0169 165.981 47.6504 166.524 47.6504C167.057 47.6504 167.361 48.0169 167.361 48.47C167.361 48.8366 167.087 49.1522 166.732 49.1522C166.367 49.1522 166.072 48.9333 166.072 48.5311C166.072 48.4802 166.082 48.414 166.092 48.3529C165.62 48.3326 165.295 48.8671 165.128 49.4984V51.83H166.037V52.5224H163.382L163.387 51.8249Z" fill="white"/>
<path d="M167.793 51.825H168.661V48.4039H167.793V47.7115H169.646V51.825H170.514V52.5173H167.793V51.825ZM168.412 46.0213C168.412 45.6039 168.686 45.3086 169.092 45.3086C169.499 45.3086 169.773 45.5784 169.773 46.001C169.773 46.4235 169.499 46.7035 169.092 46.7035C168.681 46.7035 168.412 46.4388 168.412 46.0213Z" fill="white"/>
<path d="M170.996 50.1857C170.996 48.6941 172.062 47.625 173.473 47.625C174.524 47.625 175.316 48.3479 175.316 48.9792C175.316 49.473 175.072 49.8294 174.636 49.8294C174.214 49.8294 173.986 49.5341 173.986 49.1879C173.986 48.9079 174.219 48.633 174.397 48.5566C174.25 48.3275 173.935 48.1341 173.433 48.1341C172.702 48.1341 172.082 48.8061 172.082 50.0534C172.082 51.2497 172.595 51.9421 173.57 51.9421C174.158 51.9421 174.641 51.5959 174.879 50.9137H175.382C175.133 51.993 174.367 52.6039 173.311 52.6039C171.844 52.609 170.996 51.5705 170.996 50.1857Z" fill="white"/>
<path d="M177.58 46.459V47.7623H179.149V48.3986H177.58V51.2343C177.58 51.7077 177.717 51.9368 178.154 51.9368C178.448 51.9368 178.676 51.6619 178.89 51.107L179.362 51.3055C179.088 52.227 178.534 52.6088 177.864 52.6088C177.027 52.6088 176.6 52.115 176.6 51.3259V48.3986H175.656V47.7623H176.6V46.5659L177.58 46.459Z" fill="white"/>
<path d="M36.0452 6.70958C36.0503 6.53649 36.0503 6.3634 36.0503 6.19031C36.0351 5.49795 35.964 4.80558 35.8726 4.11831C35.7965 3.54304 35.7407 2.93722 35.5732 2.37722C35.563 2.34158 35.4869 2.05649 35.426 2.06667C33.9691 2.20413 32.1773 2.95249 30.9083 3.62449C27.8271 5.25867 26.2383 8.70013 26.5328 12.1009C26.614 13.0019 26.7561 13.903 26.9845 14.7838C27.0962 15.2012 27.4363 17.0798 27.4414 17.0798C30.0707 16.4332 33.2179 14.0659 34.6747 11.6376C35.4158 10.4005 35.8523 8.92922 35.9945 7.46304C36.0198 7.21358 36.0351 6.95904 36.0452 6.70958Z" fill="white"/>
<path d="M24.456 39.1029V36.6949C24.456 36.6949 24.2986 36.0127 23.6489 36.0127C22.9992 36.0127 22.8926 36.6949 22.8926 36.6949V39.1029H24.456Z" fill="white"/>
<path d="M30.0605 39.1029V36.6949C30.0605 36.6949 29.9031 36.0127 29.2534 36.0127C28.6037 36.0127 28.4971 36.6949 28.4971 36.6949V39.1029H30.0605Z" fill="white"/>
<path d="M32.7656 39.1029V36.6949C32.7656 36.6949 32.6082 36.0127 31.9585 36.0127C31.3087 36.0127 31.2021 36.6949 31.2021 36.6949V39.1029H32.7656Z" fill="white"/>
<path d="M27.36 39.1033V36.6953C27.36 36.6953 27.1062 36.0029 26.4616 36.0029C25.8118 36.0029 25.5986 36.6953 25.5986 36.6953V39.1033H27.36Z" fill="white"/>
<path d="M21.7558 39.1034V36.7056C21.7558 36.7056 21.5984 36.0234 20.9487 36.0234C20.299 36.0234 20.1924 36.7056 20.1924 36.7056V39.1034H21.7558Z" fill="white"/>
<path d="M22.0348 45.2931V42.2691C22.0348 42.2691 21.8064 41.4189 20.8724 41.4189C19.9384 41.4189 19.7861 42.2691 19.7861 42.2691V45.2931H22.0348Z" fill="white"/>
<path d="M25.7506 45.2934V42.2389C25.7506 42.2389 25.5222 41.3887 24.5882 41.3887C23.6542 41.3887 23.502 42.2389 23.502 42.2389V45.2934H25.7506Z" fill="white"/>
<path d="M29.4606 45.2934V42.2389C29.4606 42.2389 29.2322 41.3887 28.2982 41.3887C27.3642 41.3887 27.2119 42.2389 27.2119 42.2389V45.2934H29.4606Z" fill="white"/>
<path d="M33.1715 45.2934V42.2389C33.1715 42.2389 32.9431 41.3887 32.0091 41.3887C31.0751 41.3887 30.9229 42.2389 30.9229 42.2389V45.2934H33.1715Z" fill="white"/>
<path d="M22.5229 52.4613V48.5718C22.5229 48.5718 22.2437 47.5078 21.1118 47.5078C19.9798 47.5078 19.792 48.5718 19.792 48.5718V52.4613H22.5229Z" fill="white"/>
<path d="M33.0805 52.462V48.5777C33.0805 48.5777 32.8013 47.5137 31.6694 47.5137C30.5374 47.5137 30.3496 48.5777 30.3496 48.5777V52.462H33.0805Z" fill="white"/>
<path d="M26.9539 31.5125L26.9793 30.0361H25.9945L25.9844 31.5125H26.9539Z" fill="white"/>
<path d="M28.6042 31.5125H29.5585C29.5432 31.3445 29.5229 31.146 29.4976 30.9423C29.4214 30.3569 29.3301 30.0361 29.3301 30.0361H28.3301C28.3301 30.0361 28.3656 30.3976 28.457 30.7641C28.5077 30.9423 28.5585 31.2427 28.6042 31.5125Z" fill="white"/>
<path d="M24.3705 31.513C24.4111 31.2584 24.4568 30.9734 24.5025 30.8003C24.5989 30.4286 24.6345 30.0723 24.6345 30.0723H23.6345C23.6345 30.0723 23.5431 30.393 23.467 30.9734C23.4416 31.1668 23.4213 31.3501 23.4111 31.513H24.3705Z" fill="white"/>
<path d="M21.7159 31.513C21.7412 31.3399 21.7666 31.1566 21.792 31.0141C21.858 30.6475 22.061 30.001 22.061 30.001H21.193C21.193 30.001 21.0712 30.3624 20.9697 30.953C20.9342 31.1515 20.8986 31.345 20.8682 31.513H21.7159Z" fill="white"/>
<path d="M31.244 31.5131H32.0968C32.0663 31.3603 32.0359 31.1872 32.0054 30.9989C31.9039 30.4134 31.7821 30.0469 31.7821 30.0469H30.9141C30.9141 30.0469 31.1171 30.6883 31.1831 31.0549C31.2034 31.1923 31.2288 31.3552 31.244 31.5131Z" fill="white"/>
<path d="M27.9941 20.5873C27.9941 20.5873 28.0043 22.5066 28.0043 23.3059C28.0043 23.3313 28.5424 23.2906 28.654 23.3212C28.253 23.3212 28.4764 23.8455 28.4408 23.8455C28.4408 23.8455 31.1007 24.4666 32.5524 27.7248C34.0041 30.9881 33.9432 35.0353 33.9432 35.0353C33.9432 35.0353 33.9534 38.0899 33.9686 39.4492H34.8925C34.9229 39.7139 34.8112 48.0172 34.9229 52.2121C39.4203 49.0048 43.5826 45.3903 46.278 40.2993C48.6688 35.7786 49.9886 29.2572 48.5013 24.1815C46.1054 15.975 32.2377 10.1408 27.9941 19.9001V20.5873Z" fill="white"/>
<path d="M24.9692 20.6231C24.9692 20.6231 24.954 22.5423 24.954 23.3416C24.954 23.3722 24.4159 23.3263 24.3043 23.3518C24.7053 23.3518 24.4768 23.8762 24.5175 23.8762C24.5175 23.8762 22.0353 24.37 20.3399 27.7198C18.6394 31.0696 18.9186 38.0951 18.8983 39.4543L18.0455 39.4645C18.0151 39.7242 18.1115 48.0325 17.9948 52.2223C13.5076 49.01 9.35537 45.3853 6.67523 40.2842C4.29457 35.7583 2.99004 29.2318 4.48239 24.1613C6.8935 15.9598 20.7612 10.1562 24.9844 19.9205L24.9692 20.6231Z" fill="white"/>
<path d="M35.8118 32.6787H17.1523V33.4423H35.8118V32.6787Z" fill="white"/>
<path d="M35.8118 33.8594H17.1523V34.623H35.8118V33.8594Z" fill="white"/>
<path d="M26.1722 19.8135H25.624V23.3517H26.1722V19.8135Z" fill="white"/>
<path d="M27.3343 19.8135H26.7861V23.3517H27.3343V19.8135Z" fill="white"/>
<path d="M28.2226 47.4775H24.8369V52.431H28.2226V47.4775Z" fill="white"/>
<path d="M26.7204 18.1894C26.7204 18.1894 26.4057 6.64318 15.8324 2.42282C15.2385 2.18355 11.6243 3.20173 12.2081 3.47664C23.8931 6.78573 25.6494 16.0461 26.2331 18.1894H26.7204Z" fill="white"/>
</svg>
