<svg width="460" height="68" viewBox="0 0 460 68" fill="none" xmlns="http://www.w3.org/2000/svg">
<path d="M0.5 1H459.5" stroke="url(#paint0_linear_1_4)"/>
<g clip-path="url(#clip0_1_4)">
<path d="M232.653 44.6134L226 48.7765L219.347 44.6134C219.105 44.4603 218.794 44.4719 218.561 44.6409C218.329 44.8091 218.222 45.1016 218.292 45.3797L220.196 52.994L214.251 58.0339C214.032 58.2179 213.946 58.5173 214.034 58.7899C214.123 59.0631 214.369 59.2547 214.655 59.2746L222.413 59.8164L225.348 67.0955C225.563 67.627 226.437 67.627 226.652 67.0955L229.587 59.8164L237.345 59.2746C237.631 59.2547 237.877 59.0631 237.966 58.7899C238.054 58.5173 237.968 58.2179 237.749 58.0339L231.804 52.9939L233.708 45.3796C233.778 45.1015 233.671 44.809 233.439 44.6408C233.202 44.4683 232.891 44.4644 232.653 44.6134Z" fill="#E3A008"/>
</g>
<g clip-path="url(#clip1_1_4)">
<path d="M176.435 36.4089L172 39.1843L167.565 36.4089C167.404 36.3068 167.196 36.3146 167.041 36.4272C166.886 36.5394 166.815 36.7344 166.862 36.9198L168.131 41.996L164.168 45.3559C164.021 45.4786 163.964 45.6782 164.023 45.8599C164.082 46.0421 164.246 46.1698 164.436 46.1831L169.609 46.5443L171.565 51.397C171.709 51.7513 172.291 51.7513 172.435 51.397L174.391 46.5443L179.564 46.1831C179.754 46.1698 179.918 46.0421 179.977 45.8599C180.036 45.6782 179.979 45.4786 179.832 45.3559L175.869 41.9959L177.138 36.9198C177.185 36.7343 177.114 36.5393 176.959 36.4272C176.801 36.3122 176.594 36.3096 176.435 36.4089Z" fill="#E3A008"/>
</g>
<g clip-path="url(#clip2_1_4)">
<path d="M267.565 36.4089L272 39.1843L276.435 36.4089C276.596 36.3068 276.804 36.3146 276.959 36.4272C277.114 36.5394 277.185 36.7344 277.138 36.9198L275.869 41.996L279.832 45.3559C279.979 45.4786 280.036 45.6782 279.977 45.8599C279.918 46.0421 279.754 46.1698 279.564 46.1831L274.391 46.5443L272.435 51.397C272.291 51.7513 271.709 51.7513 271.565 51.397L269.609 46.5443L264.436 46.1831C264.246 46.1698 264.082 46.0421 264.023 45.8599C263.964 45.6782 264.021 45.4786 264.168 45.3559L268.131 41.9959L266.862 36.9198C266.815 36.7343 266.886 36.5393 267.041 36.4272C267.199 36.3122 267.406 36.3096 267.565 36.4089Z" fill="#E3A008"/>
</g>
<g clip-path="url(#clip3_1_4)">
<path d="M131.326 16.3067L128 18.3883L124.674 16.3067C124.553 16.2301 124.397 16.236 124.28 16.3204C124.164 16.4046 124.111 16.5508 124.146 16.6899L125.098 20.497L122.126 23.0169C122.016 23.1089 121.973 23.2586 122.017 23.3949C122.062 23.5316 122.184 23.6274 122.327 23.6373L126.206 23.9082L127.674 27.5478C127.782 27.8135 128.218 27.8135 128.326 27.5478L129.794 23.9082L133.673 23.6373C133.816 23.6274 133.938 23.5316 133.983 23.3949C134.027 23.2586 133.984 23.1089 133.874 23.0169L130.902 20.4969L131.854 16.6898C131.889 16.5508 131.836 16.4045 131.72 16.3204C131.601 16.2341 131.445 16.2322 131.326 16.3067Z" fill="#E3A008"/>
</g>
<g clip-path="url(#clip4_1_4)">
<path d="M312.674 16.3067L316 18.3883L319.326 16.3067C319.447 16.2301 319.603 16.236 319.72 16.3204C319.836 16.4046 319.889 16.5508 319.854 16.6899L318.902 20.497L321.874 23.0169C321.984 23.1089 322.027 23.2586 321.983 23.3949C321.938 23.5316 321.816 23.6274 321.673 23.6373L317.794 23.9082L316.326 27.5478C316.218 27.8135 315.782 27.8135 315.674 27.5478L314.206 23.9082L310.327 23.6373C310.184 23.6274 310.062 23.5316 310.017 23.3949C309.973 23.2586 310.016 23.1089 310.126 23.0169L313.098 20.4969L312.146 16.6898C312.111 16.5508 312.164 16.4045 312.28 16.3204C312.399 16.2341 312.555 16.2322 312.674 16.3067Z" fill="#E3A008"/>
</g>
<defs>
<linearGradient id="paint0_linear_1_4" x1="456" y1="1.00022" x2="-2.50001" y2="0.999999" gradientUnits="userSpaceOnUse">
<stop offset="0.00178571" stop-color="white" stop-opacity="0"/>
<stop offset="0.500979" stop-color="white"/>
<stop offset="1" stop-color="white" stop-opacity="0"/>
</linearGradient>
<clipPath id="clip0_1_4">
<rect width="24" height="24" fill="white" transform="matrix(1 0 0 -1 214 68)"/>
</clipPath>
<clipPath id="clip1_1_4">
<rect width="16" height="16" fill="white" transform="matrix(1 0 0 -1 164 52)"/>
</clipPath>
<clipPath id="clip2_1_4">
<rect width="16" height="16" fill="white" transform="matrix(-1 0 0 -1 280 52)"/>
</clipPath>
<clipPath id="clip3_1_4">
<rect width="12" height="12" fill="white" transform="matrix(1 0 0 -1 122 28)"/>
</clipPath>
<clipPath id="clip4_1_4">
<rect width="12" height="12" fill="white" transform="matrix(-1 0 0 -1 322 28)"/>
</clipPath>
</defs>
</svg>
