<svg width="24" height="24" viewBox="0 0 24 24" fill="none" xmlns="http://www.w3.org/2000/svg">
<path d="M3.35181 2H12.2518C12.9918 2 13.6018 2.61001 13.6018 3.35001V4.82999C13.6018 5.36999 13.2618 6.04 12.9318 6.38L10.0319 8.94C9.63186 9.28 9.36182 9.94999 9.36182 10.49V13.39C9.36182 13.79 9.09183 14.33 8.75183 14.54L7.81183 15.15C6.93183 15.69 5.7218 15.08 5.7218 14V10.43C5.7218 9.95999 5.45182 9.35001 5.18182 9.01001L2.62183 6.31C2.28183 5.97 2.01184 5.36999 2.01184 4.95999V3.41C2.00184 2.61 2.61181 2 3.35181 2Z" stroke="#9CA1AB" stroke-width="1.5" stroke-miterlimit="10" stroke-linecap="round" stroke-linejoin="round"/>
<path d="M2 12.0002V15.0002C2 20.0002 4 22.0002 9 22.0002H15C20 22.0002 22 20.0002 22 15.0002V9.00024C22 5.88024 21.22 3.92024 19.41 2.90024C18.9 2.61024 17.88 2.39023 16.95 2.24023" stroke="#9CA1AB" stroke-width="1.5" stroke-linecap="round" stroke-linejoin="round"/>
<path d="M13 13H18" stroke="#9CA1AB" stroke-width="1.5" stroke-linecap="round" stroke-linejoin="round"/>
<path d="M11 17H18" stroke="#9CA1AB" stroke-width="1.5" stroke-linecap="round" stroke-linejoin="round"/>
</svg>
