<svg width="24" height="24" viewBox="0 0 24 24" fill="none" xmlns="http://www.w3.org/2000/svg">
<path d="M8 5.75C7.59 5.75 7.25 5.41 7.25 5V2C7.25 1.59 7.59 1.25 8 1.25C8.41 1.25 8.75 1.59 8.75 2V5C8.75 5.41 8.41 5.75 8 5.75Z" fill="#9CA1AB"/>
<path d="M16 5.75C15.59 5.75 15.25 5.41 15.25 5V2C15.25 1.59 15.59 1.25 16 1.25C16.41 1.25 16.75 1.59 16.75 2V5C16.75 5.41 16.41 5.75 16 5.75Z" fill="#9CA1AB"/>
<path d="M8.5 14.5009C8.37 14.5009 8.24 14.4709 8.12 14.4209C7.99 14.3709 7.89001 14.3009 7.79001 14.2109C7.61001 14.0209 7.5 13.7609 7.5 13.5009C7.5 13.2409 7.61001 12.9809 7.79001 12.7909C7.89001 12.7009 8 12.6309 8.12 12.5809C8.36 12.4809 8.64 12.4809 8.88 12.5809C9 12.6309 9.10999 12.7009 9.20999 12.7909C9.24999 12.8409 9.29999 12.8909 9.32999 12.9409C9.36999 13.0009 9.40001 13.0609 9.42001 13.1209C9.45001 13.1809 9.47001 13.2409 9.48001 13.3009C9.49001 13.3709 9.5 13.4409 9.5 13.5009C9.5 13.7609 9.38999 14.0209 9.20999 14.2109C9.10999 14.3009 9 14.3709 8.88 14.4209C8.76 14.4709 8.63 14.5009 8.5 14.5009Z" fill="#9CA1AB"/>
<path d="M12 14.4992C11.87 14.4992 11.74 14.4692 11.62 14.4192C11.49 14.3692 11.39 14.2992 11.29 14.2092C11.11 14.0192 11 13.7592 11 13.4992C11 13.4392 11.01 13.3692 11.02 13.2992C11.03 13.2392 11.05 13.1792 11.08 13.1192C11.1 13.0592 11.13 12.9992 11.17 12.9392C11.21 12.8892 11.25 12.8392 11.29 12.7892C11.66 12.4192 12.33 12.4192 12.71 12.7892C12.75 12.8392 12.79 12.8892 12.83 12.9392C12.87 12.9992 12.9 13.0592 12.92 13.1192C12.95 13.1792 12.97 13.2392 12.98 13.2992C12.99 13.3692 13 13.4392 13 13.4992C13 13.7592 12.89 14.0192 12.71 14.2092C12.52 14.3892 12.27 14.4992 12 14.4992Z" fill="#9CA1AB"/>
<path d="M8.5 18.0009C8.37 18.0009 8.24 17.9709 8.12 17.9209C8 17.8709 7.89001 17.8009 7.79001 17.7109C7.61001 17.5209 7.5 17.2609 7.5 17.0009C7.5 16.9409 7.50999 16.8709 7.51999 16.8109C7.52999 16.7409 7.54999 16.6809 7.57999 16.6209C7.59999 16.5609 7.63001 16.5009 7.67001 16.4409C7.70001 16.3909 7.75001 16.3409 7.79001 16.2909C7.89001 16.2009 8 16.1309 8.12 16.0809C8.36 15.9809 8.64 15.9809 8.88 16.0809C9 16.1309 9.10999 16.2009 9.20999 16.2909C9.24999 16.3409 9.29999 16.3909 9.32999 16.4409C9.36999 16.5009 9.40001 16.5609 9.42001 16.6209C9.45001 16.6809 9.47001 16.7409 9.48001 16.8109C9.49001 16.8709 9.5 16.9409 9.5 17.0009C9.5 17.2609 9.38999 17.5209 9.20999 17.7109C9.10999 17.8009 9 17.8709 8.88 17.9209C8.76 17.9709 8.63 18.0009 8.5 18.0009Z" fill="#9CA1AB"/>
<path d="M20.5 9.83984H3.5C3.09 9.83984 2.75 9.49984 2.75 9.08984C2.75 8.67984 3.09 8.33984 3.5 8.33984H20.5C20.91 8.33984 21.25 8.67984 21.25 9.08984C21.25 9.49984 20.91 9.83984 20.5 9.83984Z" fill="#9CA1AB"/>
<path d="M15.8196 22.7796C15.4396 22.7796 15.0796 22.6396 14.8196 22.3796C14.5096 22.0696 14.3696 21.6196 14.4396 21.1496L14.6296 19.7996C14.6796 19.4496 14.8896 19.0296 15.1396 18.7796L18.6796 15.2396C19.1596 14.7596 19.6296 14.5096 20.1396 14.4596C20.7696 14.3996 21.3796 14.6596 21.9596 15.2396C22.5696 15.8496 23.3896 17.0896 21.9596 18.5196L18.4196 22.0596C18.1696 22.3096 17.7496 22.5196 17.3996 22.5696L16.0495 22.7596C15.9695 22.7696 15.8996 22.7796 15.8196 22.7796ZM20.3096 15.9496C20.2996 15.9496 20.2896 15.9496 20.2796 15.9496C20.1396 15.9596 19.9496 16.0896 19.7396 16.2996L16.1996 19.8396C16.1696 19.8696 16.1196 19.9696 16.1196 20.0096L15.9396 21.2596L17.1896 21.0796C17.2296 21.0696 17.3295 21.0196 17.3595 20.9896L20.8996 17.4496C21.3396 17.0096 21.3996 16.7896 20.8996 16.2896C20.7396 16.1396 20.5096 15.9496 20.3096 15.9496Z" fill="#9CA1AB"/>
<path d="M20.9206 19.2509C20.8506 19.2509 20.7806 19.2409 20.7206 19.2209C19.4006 18.8509 18.3506 17.8009 17.9806 16.4809C17.8706 16.0809 18.1006 15.6709 18.5006 15.5509C18.9006 15.4409 19.3106 15.6709 19.4306 16.0709C19.6606 16.8909 20.3106 17.5409 21.1306 17.7709C21.5306 17.8809 21.7606 18.3009 21.6506 18.7009C21.5506 19.0309 21.2506 19.2509 20.9206 19.2509Z" fill="#9CA1AB"/>
<path d="M12 22.75H8C4.35 22.75 2.25 20.65 2.25 17V8.5C2.25 4.85 4.35 2.75 8 2.75H16C19.65 2.75 21.75 4.85 21.75 8.5V12C21.75 12.41 21.41 12.75 21 12.75C20.59 12.75 20.25 12.41 20.25 12V8.5C20.25 5.64 18.86 4.25 16 4.25H8C5.14 4.25 3.75 5.64 3.75 8.5V17C3.75 19.86 5.14 21.25 8 21.25H12C12.41 21.25 12.75 21.59 12.75 22C12.75 22.41 12.41 22.75 12 22.75Z" fill="#9CA1AB"/>
</svg>
