<svg width="126" height="38" viewBox="0 0 126 38" fill="none" xmlns="http://www.w3.org/2000/svg">
<path d="M45.2907 22.3066H39.4479L37.9746 26.383H40.0112V28.0157H34.3418V26.383H36.086L41.7085 11.6484H44.1893L49.4687 26.383H51.704V28.0157H44.1424V26.383H46.6954L45.2907 22.3066ZM39.9896 20.8739H44.7996L42.5174 14.223H42.4199L39.9896 20.8739Z" fill="#A93439"/>
<path d="M52.1627 23.0955V13.3827H49.8047V11.75H57.0955V13.3827H54.6941V22.2809C54.6941 25.4191 56.265 26.63 59.2586 26.63C60.5838 26.63 61.4686 26.1864 62.18 25.4664C63.0141 24.6264 63.1838 23.5391 63.1838 21.6845V13.3827H60.6597V11.75H67.3077V13.3827H65.0002V23.0991C65.0002 25.8918 62.718 28.4155 58.5002 28.4155C54.3727 28.4118 52.1627 26.2118 52.1627 23.0955Z" fill="#A93439"/>
<path d="M67.8203 22.4556H69.2936C71.0848 25.7683 72.215 26.8811 74.4973 26.8811C76.4111 26.8811 77.5667 25.892 77.5667 24.1865C77.5667 22.1829 75.4795 21.6411 73.2695 20.9974C70.7417 20.2811 68.0406 19.4156 68.0406 16.0774C68.0406 13.6556 70.052 11.3574 73.1214 11.3574C74.4973 11.3574 76.1909 11.9501 77.0972 13.0883L77.6136 11.4338H79.235V17.0701H77.7617C76.2631 13.8556 74.8403 12.892 72.9986 12.892C71.4278 12.892 70.4456 13.8811 70.4456 15.3647C70.4456 17.5647 72.605 18.0592 74.8656 18.652C77.3464 19.2701 79.9717 20.0374 79.9717 23.3247C79.9717 26.1683 77.6642 28.4156 74.5225 28.4156C72.7061 28.4156 71.0125 27.772 70.0303 26.6338L69.4417 28.3392H67.8203V22.4556Z" fill="#A93439"/>
<path d="M84.4636 26.3864H87.3092V13.1355H86.2294C84.07 13.1355 83.6042 13.8518 82.398 17.5355H81.2461V11.75H95.9036V17.5355H94.748C93.5455 13.8518 93.0797 13.1355 90.9203 13.1355H89.8405V26.3864H92.6897V28.0191H84.4672L84.4636 26.3864Z" fill="#A93439"/>
<path d="M97.8691 26.3864H100.592V13.3827H97.8691V11.75H105.846V13.3827H103.12V26.3864H105.846V28.0191H97.8691V26.3864Z" fill="#A93439"/>
<path d="M112.205 15.0373H111.985V26.3827H114.538V28.0155H107.688V26.3827H110.168V13.3827H107.688V11.75H113.039L121.164 23.6155H121.384V13.3827H118.831V11.75H125.682V13.3827H123.201V28.4118H121.337L112.205 15.0373Z" fill="#A93439"/>
<path d="M34.5918 36.0201H35.4187V32.0746H34.5918V31.5801H37.0112V32.0746H36.1843V36.0201H37.0112V36.5146H34.5918V36.0201Z" fill="#414042"/>
<path d="M37.5234 36.0189H38.0687V33.5753H37.5234V33.0807H38.7512V33.9498C39.1376 33.3062 39.5421 33.0371 40.0332 33.0371C40.5748 33.0371 40.9432 33.4335 40.9432 34.1098V36.0226H41.4848V36.5171H39.7443V36.0226H40.2426V34.3644C40.2426 34.1098 40.1812 33.8917 40.0548 33.7644C39.9573 33.6662 39.8237 33.6153 39.654 33.6153C39.2351 33.6153 38.7693 34.0298 38.7693 34.7171V36.0226H39.2676V36.5171H37.527V36.0189H37.5234Z" fill="#414042"/>
<path d="M42.3452 36.2125C42.0166 35.8852 41.8613 35.3798 41.8613 34.8489C41.8613 34.2925 42.0563 33.7252 42.3741 33.4016C42.6197 33.1543 42.9338 33.0198 43.3058 33.0198C43.8041 33.0198 44.1327 33.2671 44.3494 33.6198V31.9034H43.7824V31.3652H45.0463V36.0198H45.5447V36.5143H44.3602V35.8089C44.1074 36.3252 43.6958 36.5798 43.2444 36.5798C42.8941 36.5798 42.5655 36.438 42.3452 36.2125ZM44.3602 34.7907C44.3602 34.1071 44.093 33.4925 43.4899 33.4925C42.9447 33.4925 42.6341 33.9725 42.6341 34.7907C42.6341 35.638 43.0277 36.1107 43.4899 36.1107C43.9377 36.1107 44.3602 35.6307 44.3602 34.7907Z" fill="#414042"/>
<path d="M46.652 34.8416C46.6736 35.6889 47.0384 36.1107 47.6956 36.1107C48.1145 36.1107 48.425 35.9325 48.6345 35.4743H48.992C48.797 36.2089 48.2625 36.5834 47.5114 36.5834C46.4678 36.5834 45.8828 35.8271 45.8828 34.838C45.8828 33.8089 46.5906 33.0234 47.5584 33.0234C48.5767 33.0234 49.0317 33.9398 49.01 34.8453L46.652 34.8416ZM46.6628 34.4889H48.295C48.2409 33.8525 48.0278 33.4162 47.5042 33.4162C47.0348 33.4162 46.7206 33.718 46.6628 34.4889Z" fill="#414042"/>
<path d="M49.3574 37.1723H49.9027V33.5723H49.3574V33.0777H50.5852V33.8668C50.8308 33.2668 51.2785 33.0195 51.7335 33.0195C52.091 33.0195 52.3799 33.1541 52.6038 33.3795C52.918 33.6959 53.0588 34.1832 53.0588 34.7432C53.0588 35.3068 52.871 35.8232 52.5605 36.1359C52.3294 36.3686 52.0188 36.5104 51.6974 36.5104C51.1774 36.5104 50.8127 36.2341 50.6033 35.8668V37.1686H51.3183V37.6632H49.361L49.3574 37.1723ZM52.2824 34.7068C52.2824 33.8741 51.9394 33.4923 51.4771 33.4923C51.0438 33.4923 50.5852 34.0377 50.5852 34.8268C50.5852 35.5104 50.8813 36.0413 51.4555 36.0413C51.9863 36.0413 52.2824 35.5759 52.2824 34.7068Z" fill="#414042"/>
<path d="M54.3623 34.8416C54.384 35.6889 54.7487 36.1107 55.4023 36.1107C55.8212 36.1107 56.1318 35.9325 56.3412 35.4743H56.6987C56.5037 36.2089 55.9693 36.5834 55.2182 36.5834C54.1745 36.5834 53.5859 35.8271 53.5859 34.838C53.5859 33.8089 54.2937 33.0234 55.2615 33.0234C56.2798 33.0234 56.7348 33.9398 56.7132 34.8453L54.3623 34.8416ZM54.3696 34.4889H56.0018C55.9512 33.8525 55.7345 33.4162 55.2109 33.4162C54.7415 33.4162 54.4273 33.718 54.3696 34.4889Z" fill="#414042"/>
<path d="M57.1836 36.0189H57.7289V33.5753H57.1836V33.0807H58.4114V33.9498C58.7978 33.3062 59.2022 33.0371 59.6933 33.0371C60.2386 33.0371 60.5997 33.4335 60.5997 34.1098V36.0226H61.145V36.5171H59.4044V36.0226H59.9028V34.3644C59.9028 34.1098 59.845 33.8917 59.7186 33.7644C59.6211 33.6662 59.4875 33.6153 59.3178 33.6153C58.9025 33.6153 58.433 34.0298 58.433 34.7171V36.0226H58.9314V36.5171H57.1872L57.1836 36.0189Z" fill="#414042"/>
<path d="M61.9995 36.2125C61.6709 35.8852 61.5156 35.3798 61.5156 34.8489C61.5156 34.2925 61.7106 33.7252 62.0284 33.4016C62.274 33.1543 62.5845 33.0198 62.9565 33.0198C63.4548 33.0198 63.7834 33.2671 64.0001 33.6198V31.9034H63.4331V31.3652H64.697V36.0198H65.1953V36.5143H64.0109V35.8089C63.7581 36.3252 63.3501 36.5798 62.8951 36.5798C62.5484 36.5798 62.2234 36.438 61.9995 36.2125ZM64.0145 34.7907C64.0145 34.1071 63.7473 33.4925 63.1442 33.4925C62.6026 33.4925 62.2884 33.9725 62.2884 34.7907C62.2884 35.638 62.682 36.1107 63.1442 36.1107C63.592 36.1107 64.0145 35.6307 64.0145 34.7907Z" fill="#414042"/>
<path d="M66.3082 34.8416C66.3299 35.6889 66.6946 36.1107 67.3518 36.1107C67.7671 36.1107 68.0813 35.9325 68.2907 35.4743H68.6482C68.4532 36.2089 67.9188 36.5834 67.1677 36.5834C66.1241 36.5834 65.5391 35.8271 65.5391 34.838C65.5391 33.8089 66.2468 33.0234 67.2146 33.0234C68.2366 33.0234 68.688 33.9398 68.6663 34.8453L66.3082 34.8416ZM66.3154 34.4889H67.9477C67.8971 33.8525 67.6805 33.4162 67.1568 33.4162C66.6874 33.4162 66.3768 33.718 66.3154 34.4889Z" fill="#414042"/>
<path d="M69.1328 36.0189H69.6745V33.5753H69.1328V33.0807H70.3606V33.9498C70.747 33.3062 71.1514 33.0371 71.6425 33.0371C72.1842 33.0371 72.5525 33.4335 72.5525 34.1098V36.0226H73.0978V36.5171H71.3536V36.0226H71.852V34.3644C71.852 34.1098 71.7906 33.8917 71.6642 33.7644C71.5667 33.6662 71.4331 33.6153 71.2634 33.6153C70.8445 33.6153 70.3786 34.0298 70.3786 34.7171V36.0226H70.877V36.5171H69.1364L69.1328 36.0189Z" fill="#414042"/>
<path d="M74.5385 32.1875V33.1184H75.658V33.573H74.5385V35.5984C74.5385 35.9366 74.636 36.1002 74.9502 36.1002C75.1596 36.1002 75.3221 35.9039 75.4702 35.5075L75.806 35.6493C75.611 36.3075 75.2174 36.5802 74.7407 36.5802C74.1449 36.5802 73.838 36.2275 73.838 35.6639V33.573H73.1699V33.1184H73.838V32.2639L74.5385 32.1875Z" fill="#414042"/>
<path d="M77.4961 34.8263H77.9439C78.4892 35.8299 78.8286 36.1681 79.5219 36.1681C80.1033 36.1681 80.4536 35.8663 80.4536 35.3499C80.4536 34.7426 79.8216 34.579 79.15 34.3826C78.3844 34.1644 77.5647 33.9026 77.5647 32.8917C77.5647 32.1572 78.175 31.459 79.1066 31.459C79.5255 31.459 80.0383 31.6372 80.3128 31.9826L80.4716 31.4808H80.9628V33.1899H80.515C80.06 32.2153 79.6266 31.9208 79.0705 31.9208C78.5939 31.9208 78.2978 32.2226 78.2978 32.6699C78.2978 33.339 78.9514 33.4881 79.6375 33.6663C80.3886 33.8517 81.1866 34.0844 81.1866 35.0808C81.1866 35.9426 80.4861 36.6263 79.5328 36.6263C78.9803 36.6263 78.4675 36.4299 78.1714 36.0881L77.9908 36.6044H77.4997L77.4961 34.8263Z" fill="#414042"/>
<path d="M81.6816 34.8486C81.6816 33.7832 82.44 33.0195 83.4475 33.0195C84.1914 33.0195 84.7583 33.5359 84.7583 33.9868C84.7583 34.3395 84.5886 34.5941 84.2744 34.5941C83.9747 34.5941 83.8122 34.3832 83.8122 34.1359C83.8122 33.9359 83.9747 33.7395 84.1011 33.685C83.9964 33.5213 83.7725 33.3832 83.415 33.3832C82.895 33.3832 82.4544 33.8632 82.4544 34.7541C82.4544 35.6086 82.8191 36.1032 83.5125 36.1032C83.9314 36.1032 84.2708 35.8559 84.4441 35.3686H84.8016C84.6211 36.1395 84.0794 36.5759 83.3283 36.5759C82.2847 36.5795 81.6816 35.8377 81.6816 34.8486Z" fill="#414042"/>
<path d="M85.1191 36.0198H85.6608V31.9034H85.1191V31.3652H86.3614V33.9361C86.7478 33.2889 87.1377 33.038 87.6289 33.038C88.1741 33.038 88.5389 33.4343 88.5389 34.1107V36.0234H89.0841V36.518H87.3436V36.0234H87.8419V34.3652C87.8419 34.1107 87.7841 33.8925 87.6577 33.7652C87.5603 33.6671 87.4266 33.6161 87.2569 33.6161C86.838 33.6161 86.3686 34.0307 86.3686 34.718V36.0234H86.8669V36.518H85.1264V36.0198H85.1191Z" fill="#414042"/>
<path d="M89.416 34.8123C89.416 33.7723 90.1021 33.0195 91.1205 33.0195C92.1713 33.0195 92.8177 33.7395 92.8177 34.7795C92.8177 35.8268 92.1316 36.5795 91.1205 36.5795C90.0552 36.5795 89.416 35.8632 89.416 34.8123ZM92.0449 34.7977C92.0449 33.8559 91.6802 33.4268 91.0843 33.4268C90.4957 33.4268 90.1924 33.8559 90.1924 34.7977C90.1924 35.7432 90.5571 36.1795 91.153 36.1795C91.7307 36.1759 92.0449 35.7395 92.0449 34.7977Z" fill="#414042"/>
<path d="M93.3125 34.8123C93.3125 33.7723 93.9986 33.0195 95.0169 33.0195C96.0678 33.0195 96.7142 33.7395 96.7142 34.7795C96.7142 35.8268 96.0281 36.5795 95.0169 36.5795C93.9517 36.5795 93.3125 35.8632 93.3125 34.8123ZM95.9378 34.7977C95.9378 33.8559 95.573 33.4268 94.9772 33.4268C94.3886 33.4268 94.0853 33.8559 94.0853 34.7977C94.0853 35.7432 94.45 36.1795 95.0458 36.1795C95.6272 36.1759 95.9378 35.7395 95.9378 34.7977Z" fill="#414042"/>
<path d="M97.0781 36.0198H97.6956V31.9034H97.0781V31.3652H98.3962V36.0198H99.0137V36.5143H97.0781V36.0198Z" fill="#414042"/>
<path d="M100.66 36.0201H101.487V32.0746H100.66V31.5801H102.758C104.589 31.5801 105.528 32.5546 105.528 33.9728C105.528 35.3364 104.701 36.5146 102.823 36.5146H100.656L100.66 36.0201ZM102.834 36.0201C104.083 36.0201 104.636 35.471 104.636 33.9728C104.636 32.6601 104.076 32.0746 102.758 32.0746H102.252V36.0201H102.834Z" fill="#414042"/>
<path d="M106.066 36.0198H106.684V33.5761H106.066V33.0816H107.384V36.0198H108.002V36.5143H106.066V36.0198ZM106.503 31.8743C106.503 31.5761 106.698 31.3652 106.987 31.3652C107.28 31.3652 107.471 31.558 107.471 31.8598C107.471 32.1616 107.28 32.3616 106.987 32.3616C106.698 32.3616 106.503 32.1725 106.503 31.8743Z" fill="#414042"/>
<path d="M108.41 35.2853H108.865C109.049 35.8307 109.475 36.2162 109.952 36.2162C110.353 36.2162 110.526 36.0125 110.526 35.7362C110.526 35.438 110.295 35.2962 109.623 35.1071C108.804 34.8743 108.468 34.5907 108.468 34.0416C108.468 33.4889 108.945 33.0234 109.645 33.0234C109.995 33.0234 110.31 33.158 110.472 33.4198L110.548 33.0234H110.988V34.2016H110.541C110.31 33.6998 110.093 33.3907 109.634 33.3907C109.374 33.3907 109.107 33.5398 109.107 33.8271C109.107 34.1289 109.367 34.2853 109.977 34.4489C110.765 34.6671 111.14 34.9216 111.14 35.5071C111.14 36.0234 110.685 36.5871 109.92 36.5871C109.497 36.5871 109.147 36.4089 108.93 36.1362L108.847 36.5871H108.414V35.2853H108.41Z" fill="#414042"/>
<path d="M112.737 32.1875V33.1184H113.853V33.573H112.737V35.5984C112.737 35.9366 112.835 36.1002 113.145 36.1002C113.355 36.1002 113.517 35.9039 113.665 35.5075L114.001 35.6493C113.806 36.3075 113.412 36.5802 112.936 36.5802C112.34 36.5802 112.033 36.2275 112.033 35.6639V33.573H111.361V33.1184H112.033V32.2639L112.737 32.1875Z" fill="#414042"/>
<path d="M114.234 36.0189H114.776V33.5753H114.234V33.0807H115.462V33.8771C115.635 33.2989 116.079 33.0371 116.466 33.0371C116.845 33.0371 117.062 33.2989 117.062 33.6226C117.062 33.8844 116.867 34.1098 116.614 34.1098C116.354 34.1098 116.144 33.9535 116.144 33.6662C116.144 33.6298 116.152 33.5826 116.159 33.5389C115.823 33.5244 115.592 33.9062 115.473 34.3571V36.0226H116.119V36.5171H114.23L114.234 36.0189Z" fill="#414042"/>
<path d="M117.369 36.0198H117.987V33.5761H117.369V33.0816H118.687V36.0198H119.305V36.5143H117.369V36.0198ZM117.81 31.8743C117.81 31.5761 118.005 31.3652 118.294 31.3652C118.582 31.3652 118.777 31.558 118.777 31.8598C118.777 32.1616 118.582 32.3616 118.294 32.3616C118.001 32.3616 117.81 32.1725 117.81 31.8743Z" fill="#414042"/>
<path d="M119.648 34.8486C119.648 33.7832 120.407 33.0195 121.411 33.0195C122.158 33.0195 122.721 33.5359 122.721 33.9868C122.721 34.3395 122.548 34.5941 122.238 34.5941C121.938 34.5941 121.775 34.3832 121.775 34.1359C121.775 33.9359 121.941 33.7395 122.068 33.685C121.963 33.5213 121.739 33.3832 121.382 33.3832C120.862 33.3832 120.421 33.8632 120.421 34.7541C120.421 35.6086 120.786 36.1032 121.479 36.1032C121.898 36.1032 122.241 35.8559 122.411 35.3686H122.768C122.591 36.1395 122.046 36.5759 121.295 36.5759C120.251 36.5795 119.648 35.8377 119.648 34.8486Z" fill="#414042"/>
<path d="M124.332 32.1875V33.1184H125.447V33.573H124.332V35.5984C124.332 35.9366 124.429 36.1002 124.74 36.1002C124.949 36.1002 125.112 35.9039 125.263 35.5075L125.599 35.6493C125.404 36.3075 125.01 36.5802 124.534 36.5802C123.938 36.5802 123.635 36.2275 123.635 35.6639V33.573H122.963V33.1184H123.635V32.2639L124.332 32.1875Z" fill="#414042"/>
<path d="M22.8614 36.2905C22.7856 33.2942 22.8614 27.3596 22.8434 27.1742H22.1861C22.1753 26.2069 22.1645 24.0214 22.1645 24.0214C22.1645 24.0214 22.2078 21.1342 21.175 18.8033C20.1422 16.4723 18.25 16.0323 18.25 16.0323C18.2753 16.0323 18.1164 15.6578 18.4017 15.6578C18.3222 15.6396 17.9395 15.6687 17.9395 15.6505C17.9395 15.0833 17.9322 13.7087 17.9322 13.7087V13.2105C17.9395 13.1923 17.9467 13.1742 17.9575 13.1523H15.7439C15.7584 13.1814 15.7692 13.2069 15.7836 13.236V13.7342C15.7836 13.7342 15.7728 15.1051 15.7728 15.676C15.7728 15.6978 15.3864 15.6651 15.3106 15.6833C15.5959 15.6833 15.4334 16.0578 15.4622 16.0578C15.4622 16.0578 13.6964 16.4105 12.4903 18.8033C11.2806 21.1996 11.4792 26.2142 11.4611 27.1851L10.8545 27.1923C10.8328 27.3778 10.9014 33.2905 10.8184 36.2905H12.1039V33.6978C12.1039 33.6978 12.2375 32.9378 13.0428 32.9378C13.8481 32.9378 14.0467 33.6978 14.0467 33.6978V36.2905H15.5345V32.9123H18.2609V36.2905H19.6186V33.6978C19.6186 33.6978 19.7486 32.9378 20.5575 32.9378C21.3628 32.9378 21.5614 33.6978 21.5614 33.6978V36.2905H22.8614ZM12.3784 25.2214C12.3784 25.2214 12.4542 24.7342 12.9164 24.7342C13.3786 24.7342 13.4906 25.2214 13.4906 25.2214V26.9342H12.3784V25.2214ZM13.6928 31.3523H12.0895V29.1923C12.0895 29.1923 12.2014 28.5851 12.8659 28.5851C13.5303 28.5851 13.6928 29.1923 13.6928 29.1923V31.3523ZM13.5159 21.2323C13.4978 21.3342 13.4797 21.4651 13.4617 21.5851H12.855C12.8803 21.4687 12.902 21.3305 12.9272 21.1887C12.9995 20.7705 13.0861 20.5087 13.0861 20.5087H13.7036C13.7072 20.5087 13.5592 20.9705 13.5159 21.2323ZM18.8784 20.5342C18.8784 20.5342 18.9434 20.7633 18.9975 21.1778C19.0156 21.3233 19.03 21.4651 19.0409 21.5851H18.3584C18.3295 21.396 18.2897 21.1778 18.2572 21.0542C18.1886 20.7923 18.167 20.5342 18.167 20.5342H18.8784ZM16.5095 20.5342H17.21L17.192 21.5851H16.5022L16.5095 20.5342ZM16.2242 25.2105C16.2242 25.2105 16.3759 24.716 16.8345 24.716C17.2967 24.716 17.4772 25.2105 17.4772 25.2105V26.9305H16.2242V25.2105ZM14.7075 21.2033C14.7617 20.7887 14.8267 20.5596 14.8267 20.5596H15.5417C15.5417 20.5596 15.5164 20.8178 15.4478 21.0796C15.4153 21.2033 15.3828 21.4069 15.3539 21.5887H14.6714C14.6786 21.4723 14.6895 21.3414 14.7075 21.2033ZM14.3031 25.2105C14.3031 25.2105 14.3789 24.7233 14.8411 24.7233C15.3034 24.7233 15.4153 25.2105 15.4153 25.2105V26.9305H14.3031V25.2105ZM16.3325 31.3523H14.7292V29.1705C14.7292 29.1705 14.8375 28.5633 15.502 28.5633C16.1664 28.5633 16.3289 29.1705 16.3289 29.1705L16.3325 31.3523ZM18.9722 31.3523H17.3689V29.1705C17.3689 29.1705 17.4772 28.5633 18.1417 28.5633C18.8061 28.5633 18.9686 29.1705 18.9686 29.1705L18.9722 31.3523ZM19.402 26.9305H18.2897V25.2105C18.2897 25.2105 18.3656 24.7233 18.8278 24.7233C19.2864 24.7233 19.402 25.2105 19.402 25.2105V26.9305ZM21.3231 25.2105V26.9305H20.2109V25.2105C20.2109 25.2105 20.2867 24.7233 20.7489 24.7233C21.2111 24.7233 21.3231 25.2105 21.3231 25.2105ZM20.6225 20.5414C20.6225 20.5414 20.7092 20.7996 20.7814 21.2214C20.8031 21.356 20.8284 21.4796 20.8464 21.5887H20.2434C20.2289 21.4796 20.2145 21.3596 20.1964 21.2651C20.1495 20.9996 20.005 20.5451 20.005 20.5451H20.6225V20.5414ZM20.0122 31.3523V29.1705C20.0122 29.1705 20.1206 28.5633 20.785 28.5633C21.4495 28.5633 21.612 29.1705 21.612 29.1705V31.3523H20.0122Z" fill="white"/>
<path d="M23.6415 3.79312C23.6451 3.66948 23.6451 3.54584 23.6451 3.42221C23.6343 2.92766 23.5837 2.43312 23.5187 1.94221C23.4646 1.5313 23.4249 1.09857 23.3057 0.698571C23.2985 0.673116 23.2443 0.46948 23.201 0.476753C22.1646 0.574934 20.8899 1.10948 19.9871 1.58948C17.7951 2.75675 16.6649 5.21493 16.8743 7.64403C16.9321 8.28766 17.0332 8.9313 17.1957 9.56039C17.2751 9.85857 17.5171 11.2004 17.5207 11.2004C19.3912 10.7386 21.6301 9.04766 22.6665 7.31312C23.1937 6.42948 23.5043 5.37857 23.6054 4.3313C23.6235 4.15312 23.6343 3.9713 23.6415 3.79312Z" fill="#009D4E"/>
<path d="M15.3993 26.9319V25.2119C15.3993 25.2119 15.2874 24.7246 14.8252 24.7246C14.3629 24.7246 14.2871 25.2119 14.2871 25.2119V26.9319H15.3993Z" fill="#A93439"/>
<path d="M19.3857 26.9319V25.2119C19.3857 25.2119 19.2737 24.7246 18.8115 24.7246C18.3493 24.7246 18.2734 25.2119 18.2734 25.2119V26.9319H19.3857Z" fill="#A93439"/>
<path d="M21.3095 26.9319V25.2119C21.3095 25.2119 21.1975 24.7246 20.7353 24.7246C20.2731 24.7246 20.1973 25.2119 20.1973 25.2119V26.9319H21.3095Z" fill="#A93439"/>
<path d="M17.464 26.9313V25.2113C17.464 25.2113 17.2834 24.7168 16.8248 24.7168C16.3626 24.7168 16.2109 25.2113 16.2109 25.2113V26.9313H17.464Z" fill="#A93439"/>
<path d="M13.4775 26.9305V25.2177C13.4775 25.2177 13.3655 24.7305 12.9033 24.7305C12.4411 24.7305 12.3652 25.2177 12.3652 25.2177V26.9305H13.4775Z" fill="#A93439"/>
<path d="M13.6759 31.3532V29.1932C13.6759 29.1932 13.5134 28.5859 12.8489 28.5859C12.1845 28.5859 12.0762 29.1932 12.0762 29.1932V31.3532H13.6759Z" fill="#A93439"/>
<path d="M16.3185 31.3535V29.1717C16.3185 29.1717 16.156 28.5645 15.4915 28.5645C14.8271 28.5645 14.7188 29.1717 14.7188 29.1717V31.3535H16.3185Z" fill="#A93439"/>
<path d="M18.9591 31.3535V29.1717C18.9591 29.1717 18.7966 28.5645 18.1322 28.5645C17.4677 28.5645 17.3594 29.1717 17.3594 29.1717V31.3535H18.9591Z" fill="#A93439"/>
<path d="M21.5978 31.3535V29.1717C21.5978 29.1717 21.4353 28.5645 20.7708 28.5645C20.1064 28.5645 19.998 29.1717 19.998 29.1717V31.3535H21.5978Z" fill="#A93439"/>
<path d="M14.0209 36.4737V33.6955C14.0209 33.6955 13.8223 32.9355 13.017 32.9355C12.2117 32.9355 12.0781 33.6955 12.0781 33.6955V36.4737H14.0209Z" fill="#A93439"/>
<path d="M21.5326 36.474V33.6995C21.5326 33.6995 21.334 32.9395 20.5287 32.9395C19.7235 32.9395 19.5898 33.6995 19.5898 33.6995V36.474H21.5326Z" fill="#A93439"/>
<path d="M17.1741 21.5096L17.1922 20.4551H16.4916L16.4844 21.5096H17.1741Z" fill="#A93439"/>
<path d="M18.3473 21.5096H19.0262C19.0154 21.3896 19.001 21.2478 18.9829 21.1024C18.9287 20.6842 18.8637 20.4551 18.8637 20.4551H18.1523C18.1523 20.4551 18.1776 20.7133 18.2426 20.9751C18.2787 21.1024 18.3148 21.3169 18.3473 21.5096Z" fill="#A93439"/>
<path d="M15.3348 21.5096C15.3637 21.3277 15.3962 21.1241 15.4287 21.0005C15.4973 20.735 15.5226 20.4805 15.5226 20.4805H14.8112C14.8112 20.4805 14.7462 20.7096 14.6921 21.1241C14.674 21.2623 14.6596 21.3932 14.6523 21.5096H15.3348Z" fill="#A93439"/>
<path d="M13.4468 21.5097C13.4649 21.3861 13.4829 21.2551 13.501 21.1533C13.5479 20.8915 13.6924 20.4297 13.6924 20.4297H13.0749C13.0749 20.4297 12.9882 20.6879 12.916 21.1097C12.8907 21.2515 12.8654 21.3897 12.8438 21.5097H13.4468Z" fill="#A93439"/>
<path d="M20.225 21.5102H20.8316C20.81 21.4011 20.7883 21.2774 20.7666 21.1429C20.6944 20.7247 20.6077 20.4629 20.6077 20.4629H19.9902C19.9902 20.4629 20.1347 20.9211 20.1816 21.1829C20.1961 21.2811 20.2141 21.3974 20.225 21.5102Z" fill="#A93439"/>
<path d="M17.9141 13.7068C17.9141 13.7068 17.9213 15.0777 17.9213 15.6486C17.9213 15.6668 18.3041 15.6377 18.3835 15.6595C18.0982 15.6595 18.2571 16.0341 18.2318 16.0341C18.2318 16.0341 20.1241 16.4777 21.1568 18.805C22.1896 21.1359 22.1463 24.0268 22.1463 24.0268C22.1463 24.0268 22.1535 26.2086 22.1643 27.1795H22.8216C22.8432 27.3686 22.7638 33.2995 22.8432 36.2959C26.0427 34.005 29.0038 31.4231 30.9213 27.7868C32.6221 24.5577 33.561 19.8995 32.503 16.2741C30.7985 10.4122 20.933 6.24496 17.9141 13.2159V13.7068Z" fill="#A93439"/>
<path d="M15.7623 13.7313C15.7623 13.7313 15.7515 15.1022 15.7515 15.6731C15.7515 15.695 15.3687 15.6622 15.2893 15.6804C15.5745 15.6804 15.412 16.055 15.4409 16.055C15.4409 16.055 13.6751 16.4077 12.469 18.8004C11.2593 21.1931 11.4579 26.2113 11.4434 27.1822L10.8368 27.1895C10.8151 27.375 10.8837 33.3095 10.8007 36.3022C7.60843 34.0077 4.65455 31.4186 2.74788 27.775C1.05427 24.5422 0.126212 19.8804 1.18788 16.2586C2.90316 10.4004 12.7687 6.25496 15.7732 13.2295L15.7623 13.7313Z" fill="#A93439"/>
<path d="M23.4756 22.3418H10.2012V22.8873H23.4756V22.3418Z" fill="#A93439"/>
<path d="M23.4756 23.1855H10.2012V23.731H23.4756V23.1855Z" fill="#A93439"/>
<path d="M16.6185 13.1523H16.2285V15.6796H16.6185V13.1523Z" fill="#A93439"/>
<path d="M17.4447 13.1523H17.0547V15.6796H17.4447V13.1523Z" fill="#A93439"/>
<path d="M18.0766 32.9141H15.668V36.4522H18.0766V32.9141Z" fill="#A93439"/>
<path d="M17.0081 11.9927C17.0081 11.9927 16.7842 3.74541 9.26222 0.730865C8.83972 0.559956 6.26861 1.28723 6.68388 1.48359C14.9967 3.84723 16.2461 10.4618 16.6614 11.9927H17.0081Z" fill="#683817"/>
</svg>
