<svg width="42" height="46" viewBox="0 0 42 46" fill="none" xmlns="http://www.w3.org/2000/svg">
<g clip-path="url(#clip0_2843_39495)">
<path d="M29.209 42.4523C29.1199 39.0814 29.209 32.4051 29.1878 32.1964H28.4157C28.403 31.1082 28.3902 28.6496 28.3902 28.6496C28.3902 28.6496 28.4412 25.4014 27.2278 22.7791C26.0145 20.1569 23.7915 19.6619 23.7915 19.6619C23.8212 19.6619 23.6345 19.2405 23.9696 19.2405C23.8763 19.2201 23.4266 19.2528 23.4266 19.2323C23.4266 18.5941 23.4181 17.0478 23.4181 17.0478V16.4873C23.4266 16.4669 23.4351 16.4464 23.4478 16.4219H20.8472C20.8642 16.4546 20.8769 16.4832 20.8939 16.516V17.0764C20.8939 17.0764 20.8812 18.6187 20.8812 19.261C20.8812 19.2855 20.4272 19.2487 20.3381 19.2691C20.6733 19.2691 20.4824 19.6905 20.5163 19.6905C20.5163 19.6905 18.4418 20.0873 17.0248 22.7791C15.6036 25.4751 15.8369 31.1164 15.8157 32.2087L15.103 32.2169C15.0775 32.4255 15.1581 39.0773 15.0605 42.4523H16.5709V39.5355C16.5709 39.5355 16.7278 38.6805 17.6739 38.6805C18.6199 38.6805 18.8533 39.5355 18.8533 39.5355V42.4523H20.6012V38.6519H23.8042V42.4523H25.3993V39.5355C25.3993 39.5355 25.5521 38.6805 26.5024 38.6805C27.4484 38.6805 27.6818 39.5355 27.6818 39.5355V42.4523H29.209ZM16.8933 29.9996C16.8933 29.9996 16.9824 29.4514 17.5254 29.4514C18.0684 29.4514 18.1999 29.9996 18.1999 29.9996V31.9264H16.8933V29.9996ZM18.4375 36.8969H16.5539V34.4669C16.5539 34.4669 16.6854 33.7837 17.466 33.7837C18.2466 33.7837 18.4375 34.4669 18.4375 34.4669V36.8969ZM18.2296 25.5119C18.2084 25.6264 18.1872 25.7737 18.166 25.9087H17.4533C17.483 25.7778 17.5084 25.6223 17.5381 25.4628C17.623 24.9923 17.7248 24.6978 17.7248 24.6978H18.4502C18.4545 24.6978 18.2805 25.2173 18.2296 25.5119ZM24.5296 24.7264C24.5296 24.7264 24.606 24.9841 24.6696 25.4505C24.6909 25.6141 24.7078 25.7737 24.7205 25.9087H23.9187C23.8848 25.696 23.8381 25.4505 23.7999 25.3114C23.7193 25.0169 23.6939 24.7264 23.6939 24.7264H24.5296ZM21.7466 24.7264H22.5696L22.5484 25.9087H21.7381L21.7466 24.7264ZM21.4115 29.9873C21.4115 29.9873 21.5896 29.431 22.1284 29.431C22.6715 29.431 22.8836 29.9873 22.8836 29.9873V31.9223H21.4115V29.9873ZM19.6296 25.4791C19.6933 25.0128 19.7696 24.7551 19.7696 24.7551H20.6096C20.6096 24.7551 20.5799 25.0455 20.4993 25.3401C20.4612 25.4791 20.423 25.7082 20.389 25.9128H19.5872C19.5957 25.7819 19.6084 25.6346 19.6296 25.4791ZM19.1545 29.9873C19.1545 29.9873 19.2436 29.4391 19.7866 29.4391C20.3296 29.4391 20.4612 29.9873 20.4612 29.9873V31.9223H19.1545V29.9873ZM21.5387 36.8969H19.6551V34.4423C19.6551 34.4423 19.7824 33.7591 20.563 33.7591C21.3436 33.7591 21.5345 34.4423 21.5345 34.4423L21.5387 36.8969ZM24.6399 36.8969H22.7563V34.4423C22.7563 34.4423 22.8836 33.7591 23.6642 33.7591C24.4448 33.7591 24.6357 34.4423 24.6357 34.4423L24.6399 36.8969ZM25.1448 31.9223H23.8381V29.9873C23.8381 29.9873 23.9272 29.4391 24.4702 29.4391C25.009 29.4391 25.1448 29.9873 25.1448 29.9873V31.9223ZM27.4018 29.9873V31.9223H26.0951V29.9873C26.0951 29.9873 26.1842 29.4391 26.7272 29.4391C27.2702 29.4391 27.4018 29.9873 27.4018 29.9873ZM26.5787 24.7346C26.5787 24.7346 26.6805 25.0251 26.7654 25.4996C26.7909 25.651 26.8205 25.7901 26.8418 25.9128H26.1333C26.1163 25.7901 26.0993 25.6551 26.0781 25.5487C26.023 25.2501 25.8533 24.7387 25.8533 24.7387H26.5787V24.7346ZM25.8618 36.8969V34.4423C25.8618 34.4423 25.989 33.7591 26.7696 33.7591C27.5502 33.7591 27.7412 34.4423 27.7412 34.4423V36.8969H25.8618Z" fill="white"/>
<path d="M30.1238 5.89128C30.1281 5.75219 30.1281 5.6131 30.1281 5.47401C30.1154 4.91764 30.056 4.36128 29.9796 3.80901C29.916 3.34673 29.8693 2.85992 29.7293 2.40992C29.7208 2.38128 29.6572 2.15219 29.6063 2.16037C28.3887 2.27082 26.8911 2.87219 25.8305 3.41219C23.2554 4.72537 21.9275 7.49083 22.1735 10.2236C22.2414 10.9476 22.3602 11.6717 22.5511 12.3795C22.6444 12.7149 22.9287 14.2245 22.9329 14.2245C25.1305 13.7049 27.7608 11.8026 28.9784 9.85128C29.5978 8.85719 29.9626 7.67492 30.0814 6.49673C30.1026 6.29628 30.1154 6.09173 30.1238 5.89128Z" fill="#009D4E"/>
<path d="M20.4395 31.9207V29.9857C20.4395 29.9857 20.308 29.4375 19.7649 29.4375C19.2219 29.4375 19.1328 29.9857 19.1328 29.9857V31.9207H20.4395Z" fill="#A93439"/>
<path d="M25.1231 31.9207V29.9857C25.1231 29.9857 24.9916 29.4375 24.4485 29.4375C23.9055 29.4375 23.8164 29.9857 23.8164 29.9857V31.9207H25.1231Z" fill="#A93439"/>
<path d="M27.3828 31.9207V29.9857C27.3828 29.9857 27.2513 29.4375 26.7083 29.4375C26.1653 29.4375 26.0762 29.9857 26.0762 29.9857V31.9207H27.3828Z" fill="#A93439"/>
<path d="M22.8647 31.9211V29.9861C22.8647 29.9861 22.6526 29.4297 22.1138 29.4297C21.5708 29.4297 21.3926 29.9861 21.3926 29.9861V31.9211H22.8647Z" fill="#A93439"/>
<path d="M18.1817 31.9203V29.9935C18.1817 29.9935 18.0502 29.4453 17.5071 29.4453C16.9641 29.4453 16.875 29.9935 16.875 29.9935V31.9203H18.1817Z" fill="#A93439"/>
<path d="M18.4165 36.8964V34.4664C18.4165 34.4664 18.2256 33.7832 17.445 33.7832C16.6644 33.7832 16.5371 34.4664 16.5371 34.4664V36.8964H18.4165Z" fill="#A93439"/>
<path d="M21.522 36.8955V34.441C21.522 34.441 21.3311 33.7578 20.5505 33.7578C19.7699 33.7578 19.6426 34.441 19.6426 34.441V36.8955H21.522Z" fill="#A93439"/>
<path d="M24.6235 36.8955V34.441C24.6235 34.441 24.4326 33.7578 23.652 33.7578C22.8714 33.7578 22.7441 34.441 22.7441 34.441V36.8955H24.6235Z" fill="#A93439"/>
<path d="M27.7251 36.8955V34.441C27.7251 34.441 27.5342 33.7578 26.7536 33.7578C25.973 33.7578 25.8457 34.441 25.8457 34.441V36.8955H27.7251Z" fill="#A93439"/>
<path d="M18.8234 42.6562V39.5308C18.8234 39.5308 18.5901 38.6758 17.644 38.6758C16.698 38.6758 16.541 39.5308 16.541 39.5308V42.6562H18.8234Z" fill="#A93439"/>
<path d="M27.6477 42.6561V39.5347C27.6477 39.5347 27.4143 38.6797 26.4683 38.6797C25.5222 38.6797 25.3652 39.5347 25.3652 39.5347V42.6561H27.6477Z" fill="#A93439"/>
<path d="M22.5251 25.8231L22.5464 24.6367H21.7233L21.7148 25.8231H22.5251Z" fill="#A93439"/>
<path d="M23.9049 25.8231H24.7024C24.6897 25.6881 24.6728 25.5285 24.6515 25.3649C24.5879 24.8944 24.5115 24.6367 24.5115 24.6367H23.6758C23.6758 24.6367 23.7055 24.9272 23.7818 25.2217C23.8243 25.3649 23.8667 25.6063 23.9049 25.8231Z" fill="#A93439"/>
<path d="M20.3663 25.8218C20.4002 25.6172 20.4384 25.3882 20.4766 25.2491C20.5572 24.9504 20.5869 24.6641 20.5869 24.6641H19.7511C19.7511 24.6641 19.6748 24.9218 19.6111 25.3882C19.5899 25.5436 19.5729 25.6909 19.5645 25.8218H20.3663Z" fill="#A93439"/>
<path d="M18.1479 25.8224C18.1691 25.6833 18.1904 25.5361 18.2116 25.4215C18.2667 25.127 18.4364 24.6074 18.4364 24.6074H17.711C17.711 24.6074 17.6092 24.8979 17.5243 25.3724C17.4946 25.532 17.4649 25.6874 17.4395 25.8224H18.1479Z" fill="#A93439"/>
<path d="M26.1117 25.8227H26.8244C26.799 25.7 26.7735 25.5609 26.7481 25.4095C26.6632 24.9391 26.5614 24.6445 26.5614 24.6445H25.8359C25.8359 24.6445 26.0056 25.16 26.0608 25.4545C26.0778 25.565 26.099 25.6959 26.1117 25.8227Z" fill="#A93439"/>
<path d="M23.3965 17.0437C23.3965 17.0437 23.405 18.5859 23.405 19.2282C23.405 19.2487 23.8547 19.2159 23.948 19.2405C23.6128 19.2405 23.7995 19.6618 23.7698 19.6618C23.7698 19.6618 25.9928 20.1609 27.2062 22.7791C28.4195 25.4014 28.3686 28.6537 28.3686 28.6537C28.3686 28.6537 28.3771 31.1082 28.3898 32.2005H29.1619C29.1874 32.4132 29.0941 39.0855 29.1874 42.4564C32.9462 39.8791 36.425 36.9746 38.6777 32.8837C40.6759 29.2509 41.7789 24.0105 40.5359 19.9318C38.5335 13.3373 26.9432 8.64912 23.3965 16.4914V17.0437Z" fill="#A93439"/>
<path d="M20.8678 17.0708C20.8678 17.0708 20.855 18.6131 20.855 19.2553C20.855 19.2799 20.4053 19.2431 20.312 19.2635C20.6472 19.2635 20.4562 19.6849 20.4902 19.6849C20.4902 19.6849 18.4156 20.0817 16.9987 22.7735C15.5775 25.4653 15.8108 31.1108 15.7938 32.2031L15.0811 32.2112C15.0556 32.4199 15.1362 39.0962 15.0387 42.4631C11.2884 39.8817 7.81806 36.969 5.57806 32.8699C3.58837 29.2331 2.49806 23.9885 3.74534 19.914C5.76049 13.3235 17.3508 8.65988 20.8805 16.5062L20.8678 17.0708Z" fill="#A93439"/>
<path d="M29.9291 26.7598H14.334V27.3734H29.9291V26.7598Z" fill="#A93439"/>
<path d="M29.9291 27.709H14.334V28.3226H29.9291V27.709Z" fill="#A93439"/>
<path d="M21.8722 16.4219H21.4141V19.2651H21.8722V16.4219Z" fill="#A93439"/>
<path d="M22.8449 16.4219H22.3867V19.2651H22.8449V16.4219Z" fill="#A93439"/>
<path d="M23.5875 38.6504H20.7578V42.6308H23.5875V38.6504Z" fill="#A93439"/>
<path d="M22.3306 15.1165C22.3306 15.1165 22.0676 5.83834 13.2306 2.44698C12.7343 2.25471 9.71368 3.07289 10.2016 3.2938C19.9676 5.95289 21.4355 13.3943 21.9234 15.1165H22.3306Z" fill="#683817"/>
</g>
<defs>
<clipPath id="clip0_2843_39495">
<rect width="42" height="45" fill="white" transform="translate(0 0.5)"/>
</clipPath>
</defs>
</svg>
